%TF.GenerationSoftware,KiCad,Pcbnew,5.1.6-c6e7f7d~86~ubuntu18.04.1*%
%TF.CreationDate,2020-06-24T13:55:19-04:00*%
%TF.ProjectId,Toastboard,546f6173-7462-46f6-9172-642e6b696361,rev?*%
%TF.SameCoordinates,Original*%
%TF.FileFunction,Legend,Top*%
%TF.FilePolarity,Positive*%
%FSLAX46Y46*%
G04 Gerber Fmt 4.6, Leading zero omitted, Abs format (unit mm)*
G04 Created by KiCad (PCBNEW 5.1.6-c6e7f7d~86~ubuntu18.04.1) date 2020-06-24 13:55:19*
%MOMM*%
%LPD*%
G01*
G04 APERTURE LIST*
%ADD10C,0.400000*%
%ADD11C,0.150000*%
%ADD12C,0.120000*%
G04 APERTURE END LIST*
D10*
X86200000Y-60900000D02*
G75*
G03*
X86200000Y-60900000I-100000J0D01*
G01*
X77800000Y-64200000D02*
G75*
G03*
X77800000Y-64200000I-100000J0D01*
G01*
D11*
X122976190Y-59627380D02*
X122976190Y-58627380D01*
X123357142Y-58627380D01*
X123452380Y-58675000D01*
X123500000Y-58722619D01*
X123547619Y-58817857D01*
X123547619Y-58960714D01*
X123500000Y-59055952D01*
X123452380Y-59103571D01*
X123357142Y-59151190D01*
X122976190Y-59151190D01*
X124166666Y-58627380D02*
X124357142Y-58627380D01*
X124452380Y-58675000D01*
X124547619Y-58770238D01*
X124595238Y-58960714D01*
X124595238Y-59294047D01*
X124547619Y-59484523D01*
X124452380Y-59579761D01*
X124357142Y-59627380D01*
X124166666Y-59627380D01*
X124071428Y-59579761D01*
X123976190Y-59484523D01*
X123928571Y-59294047D01*
X123928571Y-58960714D01*
X123976190Y-58770238D01*
X124071428Y-58675000D01*
X124166666Y-58627380D01*
X124880952Y-58627380D02*
X125452380Y-58627380D01*
X125166666Y-59627380D02*
X125166666Y-58627380D01*
X125547619Y-59722619D02*
X126309523Y-59722619D01*
X127071428Y-59627380D02*
X126500000Y-59627380D01*
X126785714Y-59627380D02*
X126785714Y-58627380D01*
X126690476Y-58770238D01*
X126595238Y-58865476D01*
X126500000Y-58913095D01*
X107904761Y-90627380D02*
X108476190Y-90627380D01*
X108190476Y-91627380D02*
X108190476Y-90627380D01*
X108952380Y-91627380D02*
X108857142Y-91579761D01*
X108809523Y-91532142D01*
X108761904Y-91436904D01*
X108761904Y-91151190D01*
X108809523Y-91055952D01*
X108857142Y-91008333D01*
X108952380Y-90960714D01*
X109095238Y-90960714D01*
X109190476Y-91008333D01*
X109238095Y-91055952D01*
X109285714Y-91151190D01*
X109285714Y-91436904D01*
X109238095Y-91532142D01*
X109190476Y-91579761D01*
X109095238Y-91627380D01*
X108952380Y-91627380D01*
X110142857Y-91627380D02*
X110142857Y-91103571D01*
X110095238Y-91008333D01*
X110000000Y-90960714D01*
X109809523Y-90960714D01*
X109714285Y-91008333D01*
X110142857Y-91579761D02*
X110047619Y-91627380D01*
X109809523Y-91627380D01*
X109714285Y-91579761D01*
X109666666Y-91484523D01*
X109666666Y-91389285D01*
X109714285Y-91294047D01*
X109809523Y-91246428D01*
X110047619Y-91246428D01*
X110142857Y-91198809D01*
X110571428Y-91579761D02*
X110666666Y-91627380D01*
X110857142Y-91627380D01*
X110952380Y-91579761D01*
X111000000Y-91484523D01*
X111000000Y-91436904D01*
X110952380Y-91341666D01*
X110857142Y-91294047D01*
X110714285Y-91294047D01*
X110619047Y-91246428D01*
X110571428Y-91151190D01*
X110571428Y-91103571D01*
X110619047Y-91008333D01*
X110714285Y-90960714D01*
X110857142Y-90960714D01*
X110952380Y-91008333D01*
X111285714Y-90960714D02*
X111666666Y-90960714D01*
X111428571Y-90627380D02*
X111428571Y-91484523D01*
X111476190Y-91579761D01*
X111571428Y-91627380D01*
X111666666Y-91627380D01*
X112333333Y-91103571D02*
X112476190Y-91151190D01*
X112523809Y-91198809D01*
X112571428Y-91294047D01*
X112571428Y-91436904D01*
X112523809Y-91532142D01*
X112476190Y-91579761D01*
X112380952Y-91627380D01*
X112000000Y-91627380D01*
X112000000Y-90627380D01*
X112333333Y-90627380D01*
X112428571Y-90675000D01*
X112476190Y-90722619D01*
X112523809Y-90817857D01*
X112523809Y-90913095D01*
X112476190Y-91008333D01*
X112428571Y-91055952D01*
X112333333Y-91103571D01*
X112000000Y-91103571D01*
X113142857Y-91627380D02*
X113047619Y-91579761D01*
X113000000Y-91532142D01*
X112952380Y-91436904D01*
X112952380Y-91151190D01*
X113000000Y-91055952D01*
X113047619Y-91008333D01*
X113142857Y-90960714D01*
X113285714Y-90960714D01*
X113380952Y-91008333D01*
X113428571Y-91055952D01*
X113476190Y-91151190D01*
X113476190Y-91436904D01*
X113428571Y-91532142D01*
X113380952Y-91579761D01*
X113285714Y-91627380D01*
X113142857Y-91627380D01*
X114333333Y-91627380D02*
X114333333Y-91103571D01*
X114285714Y-91008333D01*
X114190476Y-90960714D01*
X114000000Y-90960714D01*
X113904761Y-91008333D01*
X114333333Y-91579761D02*
X114238095Y-91627380D01*
X114000000Y-91627380D01*
X113904761Y-91579761D01*
X113857142Y-91484523D01*
X113857142Y-91389285D01*
X113904761Y-91294047D01*
X114000000Y-91246428D01*
X114238095Y-91246428D01*
X114333333Y-91198809D01*
X114809523Y-91627380D02*
X114809523Y-90960714D01*
X114809523Y-91151190D02*
X114857142Y-91055952D01*
X114904761Y-91008333D01*
X115000000Y-90960714D01*
X115095238Y-90960714D01*
X115857142Y-91627380D02*
X115857142Y-90627380D01*
X115857142Y-91579761D02*
X115761904Y-91627380D01*
X115571428Y-91627380D01*
X115476190Y-91579761D01*
X115428571Y-91532142D01*
X115380952Y-91436904D01*
X115380952Y-91151190D01*
X115428571Y-91055952D01*
X115476190Y-91008333D01*
X115571428Y-90960714D01*
X115761904Y-90960714D01*
X115857142Y-91008333D01*
X117666666Y-91627380D02*
X117333333Y-91151190D01*
X117095238Y-91627380D02*
X117095238Y-90627380D01*
X117476190Y-90627380D01*
X117571428Y-90675000D01*
X117619047Y-90722619D01*
X117666666Y-90817857D01*
X117666666Y-90960714D01*
X117619047Y-91055952D01*
X117571428Y-91103571D01*
X117476190Y-91151190D01*
X117095238Y-91151190D01*
X118476190Y-91579761D02*
X118380952Y-91627380D01*
X118190476Y-91627380D01*
X118095238Y-91579761D01*
X118047619Y-91484523D01*
X118047619Y-91103571D01*
X118095238Y-91008333D01*
X118190476Y-90960714D01*
X118380952Y-90960714D01*
X118476190Y-91008333D01*
X118523809Y-91103571D01*
X118523809Y-91198809D01*
X118047619Y-91294047D01*
X118857142Y-90960714D02*
X119095238Y-91627380D01*
X119333333Y-90960714D01*
X120666666Y-90627380D02*
X120761904Y-90627380D01*
X120857142Y-90675000D01*
X120904761Y-90722619D01*
X120952380Y-90817857D01*
X121000000Y-91008333D01*
X121000000Y-91246428D01*
X120952380Y-91436904D01*
X120904761Y-91532142D01*
X120857142Y-91579761D01*
X120761904Y-91627380D01*
X120666666Y-91627380D01*
X120571428Y-91579761D01*
X120523809Y-91532142D01*
X120476190Y-91436904D01*
X120428571Y-91246428D01*
X120428571Y-91008333D01*
X120476190Y-90817857D01*
X120523809Y-90722619D01*
X120571428Y-90675000D01*
X120666666Y-90627380D01*
X106357142Y-93277380D02*
X106357142Y-92277380D01*
X106595238Y-92277380D01*
X106738095Y-92325000D01*
X106833333Y-92420238D01*
X106880952Y-92515476D01*
X106928571Y-92705952D01*
X106928571Y-92848809D01*
X106880952Y-93039285D01*
X106833333Y-93134523D01*
X106738095Y-93229761D01*
X106595238Y-93277380D01*
X106357142Y-93277380D01*
X107738095Y-93229761D02*
X107642857Y-93277380D01*
X107452380Y-93277380D01*
X107357142Y-93229761D01*
X107309523Y-93134523D01*
X107309523Y-92753571D01*
X107357142Y-92658333D01*
X107452380Y-92610714D01*
X107642857Y-92610714D01*
X107738095Y-92658333D01*
X107785714Y-92753571D01*
X107785714Y-92848809D01*
X107309523Y-92944047D01*
X108166666Y-93229761D02*
X108261904Y-93277380D01*
X108452380Y-93277380D01*
X108547619Y-93229761D01*
X108595238Y-93134523D01*
X108595238Y-93086904D01*
X108547619Y-92991666D01*
X108452380Y-92944047D01*
X108309523Y-92944047D01*
X108214285Y-92896428D01*
X108166666Y-92801190D01*
X108166666Y-92753571D01*
X108214285Y-92658333D01*
X108309523Y-92610714D01*
X108452380Y-92610714D01*
X108547619Y-92658333D01*
X109023809Y-93277380D02*
X109023809Y-92610714D01*
X109023809Y-92277380D02*
X108976190Y-92325000D01*
X109023809Y-92372619D01*
X109071428Y-92325000D01*
X109023809Y-92277380D01*
X109023809Y-92372619D01*
X109928571Y-92610714D02*
X109928571Y-93420238D01*
X109880952Y-93515476D01*
X109833333Y-93563095D01*
X109738095Y-93610714D01*
X109595238Y-93610714D01*
X109500000Y-93563095D01*
X109928571Y-93229761D02*
X109833333Y-93277380D01*
X109642857Y-93277380D01*
X109547619Y-93229761D01*
X109500000Y-93182142D01*
X109452380Y-93086904D01*
X109452380Y-92801190D01*
X109500000Y-92705952D01*
X109547619Y-92658333D01*
X109642857Y-92610714D01*
X109833333Y-92610714D01*
X109928571Y-92658333D01*
X110404761Y-92610714D02*
X110404761Y-93277380D01*
X110404761Y-92705952D02*
X110452380Y-92658333D01*
X110547619Y-92610714D01*
X110690476Y-92610714D01*
X110785714Y-92658333D01*
X110833333Y-92753571D01*
X110833333Y-93277380D01*
X111690476Y-93229761D02*
X111595238Y-93277380D01*
X111404761Y-93277380D01*
X111309523Y-93229761D01*
X111261904Y-93134523D01*
X111261904Y-92753571D01*
X111309523Y-92658333D01*
X111404761Y-92610714D01*
X111595238Y-92610714D01*
X111690476Y-92658333D01*
X111738095Y-92753571D01*
X111738095Y-92848809D01*
X111261904Y-92944047D01*
X112595238Y-93277380D02*
X112595238Y-92277380D01*
X112595238Y-93229761D02*
X112500000Y-93277380D01*
X112309523Y-93277380D01*
X112214285Y-93229761D01*
X112166666Y-93182142D01*
X112119047Y-93086904D01*
X112119047Y-92801190D01*
X112166666Y-92705952D01*
X112214285Y-92658333D01*
X112309523Y-92610714D01*
X112500000Y-92610714D01*
X112595238Y-92658333D01*
X113833333Y-93277380D02*
X113833333Y-92277380D01*
X113833333Y-92658333D02*
X113928571Y-92610714D01*
X114119047Y-92610714D01*
X114214285Y-92658333D01*
X114261904Y-92705952D01*
X114309523Y-92801190D01*
X114309523Y-93086904D01*
X114261904Y-93182142D01*
X114214285Y-93229761D01*
X114119047Y-93277380D01*
X113928571Y-93277380D01*
X113833333Y-93229761D01*
X114642857Y-92610714D02*
X114880952Y-93277380D01*
X115119047Y-92610714D02*
X114880952Y-93277380D01*
X114785714Y-93515476D01*
X114738095Y-93563095D01*
X114642857Y-93610714D01*
X116547619Y-92277380D02*
X116547619Y-92991666D01*
X116500000Y-93134523D01*
X116404761Y-93229761D01*
X116261904Y-93277380D01*
X116166666Y-93277380D01*
X117166666Y-93277380D02*
X117071428Y-93229761D01*
X117023809Y-93182142D01*
X116976190Y-93086904D01*
X116976190Y-92801190D01*
X117023809Y-92705952D01*
X117071428Y-92658333D01*
X117166666Y-92610714D01*
X117309523Y-92610714D01*
X117404761Y-92658333D01*
X117452380Y-92705952D01*
X117500000Y-92801190D01*
X117500000Y-93086904D01*
X117452380Y-93182142D01*
X117404761Y-93229761D01*
X117309523Y-93277380D01*
X117166666Y-93277380D01*
X118309523Y-93229761D02*
X118214285Y-93277380D01*
X118023809Y-93277380D01*
X117928571Y-93229761D01*
X117880952Y-93134523D01*
X117880952Y-92753571D01*
X117928571Y-92658333D01*
X118023809Y-92610714D01*
X118214285Y-92610714D01*
X118309523Y-92658333D01*
X118357142Y-92753571D01*
X118357142Y-92848809D01*
X117880952Y-92944047D01*
X119547619Y-93277380D02*
X119547619Y-92277380D01*
X119928571Y-92277380D01*
X120023809Y-92325000D01*
X120071428Y-92372619D01*
X120119047Y-92467857D01*
X120119047Y-92610714D01*
X120071428Y-92705952D01*
X120023809Y-92753571D01*
X119928571Y-92801190D01*
X119547619Y-92801190D01*
X120928571Y-93229761D02*
X120833333Y-93277380D01*
X120642857Y-93277380D01*
X120547619Y-93229761D01*
X120499999Y-93134523D01*
X120499999Y-92753571D01*
X120547619Y-92658333D01*
X120642857Y-92610714D01*
X120833333Y-92610714D01*
X120928571Y-92658333D01*
X120976190Y-92753571D01*
X120976190Y-92848809D01*
X120499999Y-92944047D01*
X121404761Y-93277380D02*
X121404761Y-92610714D01*
X121404761Y-92801190D02*
X121452380Y-92705952D01*
X121499999Y-92658333D01*
X121595238Y-92610714D01*
X121690476Y-92610714D01*
X122023809Y-93277380D02*
X122023809Y-92610714D01*
X122023809Y-92801190D02*
X122071428Y-92705952D01*
X122119047Y-92658333D01*
X122214285Y-92610714D01*
X122309523Y-92610714D01*
X122642857Y-93277380D02*
X122642857Y-92610714D01*
X122642857Y-92277380D02*
X122595238Y-92325000D01*
X122642857Y-92372619D01*
X122690476Y-92325000D01*
X122642857Y-92277380D01*
X122642857Y-92372619D01*
X70714285Y-95547619D02*
X70761904Y-95500000D01*
X70857142Y-95452380D01*
X71095238Y-95452380D01*
X71190476Y-95500000D01*
X71238095Y-95547619D01*
X71285714Y-95642857D01*
X71285714Y-95738095D01*
X71238095Y-95880952D01*
X70666666Y-96452380D01*
X71285714Y-96452380D01*
X68166666Y-95452380D02*
X68785714Y-95452380D01*
X68452380Y-95833333D01*
X68595238Y-95833333D01*
X68690476Y-95880952D01*
X68738095Y-95928571D01*
X68785714Y-96023809D01*
X68785714Y-96261904D01*
X68738095Y-96357142D01*
X68690476Y-96404761D01*
X68595238Y-96452380D01*
X68309523Y-96452380D01*
X68214285Y-96404761D01*
X68166666Y-96357142D01*
X73785714Y-96452380D02*
X73214285Y-96452380D01*
X73500000Y-96452380D02*
X73500000Y-95452380D01*
X73404761Y-95595238D01*
X73309523Y-95690476D01*
X73214285Y-95738095D01*
X75952380Y-95452380D02*
X76047619Y-95452380D01*
X76142857Y-95500000D01*
X76190476Y-95547619D01*
X76238095Y-95642857D01*
X76285714Y-95833333D01*
X76285714Y-96071428D01*
X76238095Y-96261904D01*
X76190476Y-96357142D01*
X76142857Y-96404761D01*
X76047619Y-96452380D01*
X75952380Y-96452380D01*
X75857142Y-96404761D01*
X75809523Y-96357142D01*
X75761904Y-96261904D01*
X75714285Y-96071428D01*
X75714285Y-95833333D01*
X75761904Y-95642857D01*
X75809523Y-95547619D01*
X75857142Y-95500000D01*
X75952380Y-95452380D01*
X78790476Y-69252380D02*
X79361904Y-69252380D01*
X79076190Y-70252380D02*
X79076190Y-69252380D01*
X79695238Y-69728571D02*
X80028571Y-69728571D01*
X80171428Y-70252380D02*
X79695238Y-70252380D01*
X79695238Y-69252380D01*
X80171428Y-69252380D01*
X80600000Y-70252380D02*
X80600000Y-69252380D01*
X80933333Y-69966666D01*
X81266666Y-69252380D01*
X81266666Y-70252380D01*
X81742857Y-70252380D02*
X81742857Y-69252380D01*
X82123809Y-69252380D01*
X82219047Y-69300000D01*
X82266666Y-69347619D01*
X82314285Y-69442857D01*
X82314285Y-69585714D01*
X82266666Y-69680952D01*
X82219047Y-69728571D01*
X82123809Y-69776190D01*
X81742857Y-69776190D01*
X122976190Y-76952380D02*
X122976190Y-75952380D01*
X123357142Y-75952380D01*
X123452380Y-76000000D01*
X123500000Y-76047619D01*
X123547619Y-76142857D01*
X123547619Y-76285714D01*
X123500000Y-76380952D01*
X123452380Y-76428571D01*
X123357142Y-76476190D01*
X122976190Y-76476190D01*
X124166666Y-75952380D02*
X124357142Y-75952380D01*
X124452380Y-76000000D01*
X124547619Y-76095238D01*
X124595238Y-76285714D01*
X124595238Y-76619047D01*
X124547619Y-76809523D01*
X124452380Y-76904761D01*
X124357142Y-76952380D01*
X124166666Y-76952380D01*
X124071428Y-76904761D01*
X123976190Y-76809523D01*
X123928571Y-76619047D01*
X123928571Y-76285714D01*
X123976190Y-76095238D01*
X124071428Y-76000000D01*
X124166666Y-75952380D01*
X124880952Y-75952380D02*
X125452380Y-75952380D01*
X125166666Y-76952380D02*
X125166666Y-75952380D01*
X125547619Y-77047619D02*
X126309523Y-77047619D01*
X126500000Y-76047619D02*
X126547619Y-76000000D01*
X126642857Y-75952380D01*
X126880952Y-75952380D01*
X126976190Y-76000000D01*
X127023809Y-76047619D01*
X127071428Y-76142857D01*
X127071428Y-76238095D01*
X127023809Y-76380952D01*
X126452380Y-76952380D01*
X127071428Y-76952380D01*
X90580952Y-65452380D02*
X90104761Y-65452380D01*
X90104761Y-64452380D01*
X90914285Y-64928571D02*
X91247619Y-64928571D01*
X91390476Y-65452380D02*
X90914285Y-65452380D01*
X90914285Y-64452380D01*
X91390476Y-64452380D01*
X91819047Y-65452380D02*
X91819047Y-64452380D01*
X92057142Y-64452380D01*
X92200000Y-64500000D01*
X92295238Y-64595238D01*
X92342857Y-64690476D01*
X92390476Y-64880952D01*
X92390476Y-65023809D01*
X92342857Y-65214285D01*
X92295238Y-65309523D01*
X92200000Y-65404761D01*
X92057142Y-65452380D01*
X91819047Y-65452380D01*
X92771428Y-65404761D02*
X92914285Y-65452380D01*
X93152380Y-65452380D01*
X93247619Y-65404761D01*
X93295238Y-65357142D01*
X93342857Y-65261904D01*
X93342857Y-65166666D01*
X93295238Y-65071428D01*
X93247619Y-65023809D01*
X93152380Y-64976190D01*
X92961904Y-64928571D01*
X92866666Y-64880952D01*
X92819047Y-64833333D01*
X92771428Y-64738095D01*
X92771428Y-64642857D01*
X92819047Y-64547619D01*
X92866666Y-64500000D01*
X92961904Y-64452380D01*
X93200000Y-64452380D01*
X93342857Y-64500000D01*
X94466666Y-64552380D02*
X95085714Y-64552380D01*
X94752380Y-64933333D01*
X94895238Y-64933333D01*
X94990476Y-64980952D01*
X95038095Y-65028571D01*
X95085714Y-65123809D01*
X95085714Y-65361904D01*
X95038095Y-65457142D01*
X94990476Y-65504761D01*
X94895238Y-65552380D01*
X94609523Y-65552380D01*
X94514285Y-65504761D01*
X94466666Y-65457142D01*
X96714285Y-64647619D02*
X96761904Y-64600000D01*
X96857142Y-64552380D01*
X97095238Y-64552380D01*
X97190476Y-64600000D01*
X97238095Y-64647619D01*
X97285714Y-64742857D01*
X97285714Y-64838095D01*
X97238095Y-64980952D01*
X96666666Y-65552380D01*
X97285714Y-65552380D01*
X99785714Y-65552380D02*
X99214285Y-65552380D01*
X99500000Y-65552380D02*
X99500000Y-64552380D01*
X99404761Y-64695238D01*
X99309523Y-64790476D01*
X99214285Y-64838095D01*
X101752380Y-64552380D02*
X101847619Y-64552380D01*
X101942857Y-64600000D01*
X101990476Y-64647619D01*
X102038095Y-64742857D01*
X102085714Y-64933333D01*
X102085714Y-65171428D01*
X102038095Y-65361904D01*
X101990476Y-65457142D01*
X101942857Y-65504761D01*
X101847619Y-65552380D01*
X101752380Y-65552380D01*
X101657142Y-65504761D01*
X101609523Y-65457142D01*
X101561904Y-65361904D01*
X101514285Y-65171428D01*
X101514285Y-64933333D01*
X101561904Y-64742857D01*
X101609523Y-64647619D01*
X101657142Y-64600000D01*
X101752380Y-64552380D01*
X115452380Y-55523809D02*
X114452380Y-55523809D01*
X114452380Y-55142857D01*
X114500000Y-55047619D01*
X114547619Y-55000000D01*
X114642857Y-54952380D01*
X114785714Y-54952380D01*
X114880952Y-55000000D01*
X114928571Y-55047619D01*
X114976190Y-55142857D01*
X114976190Y-55523809D01*
X114452380Y-54333333D02*
X114452380Y-54142857D01*
X114500000Y-54047619D01*
X114595238Y-53952380D01*
X114785714Y-53904761D01*
X115119047Y-53904761D01*
X115309523Y-53952380D01*
X115404761Y-54047619D01*
X115452380Y-54142857D01*
X115452380Y-54333333D01*
X115404761Y-54428571D01*
X115309523Y-54523809D01*
X115119047Y-54571428D01*
X114785714Y-54571428D01*
X114595238Y-54523809D01*
X114500000Y-54428571D01*
X114452380Y-54333333D01*
X114452380Y-53619047D02*
X114452380Y-53047619D01*
X115452380Y-53333333D02*
X114452380Y-53333333D01*
X115547619Y-52952380D02*
X115547619Y-52190476D01*
X115452380Y-51428571D02*
X115452380Y-52000000D01*
X115452380Y-51714285D02*
X114452380Y-51714285D01*
X114595238Y-51809523D01*
X114690476Y-51904761D01*
X114738095Y-52000000D01*
X112952380Y-55523809D02*
X111952380Y-55523809D01*
X111952380Y-55142857D01*
X112000000Y-55047619D01*
X112047619Y-55000000D01*
X112142857Y-54952380D01*
X112285714Y-54952380D01*
X112380952Y-55000000D01*
X112428571Y-55047619D01*
X112476190Y-55142857D01*
X112476190Y-55523809D01*
X111952380Y-54333333D02*
X111952380Y-54142857D01*
X112000000Y-54047619D01*
X112095238Y-53952380D01*
X112285714Y-53904761D01*
X112619047Y-53904761D01*
X112809523Y-53952380D01*
X112904761Y-54047619D01*
X112952380Y-54142857D01*
X112952380Y-54333333D01*
X112904761Y-54428571D01*
X112809523Y-54523809D01*
X112619047Y-54571428D01*
X112285714Y-54571428D01*
X112095238Y-54523809D01*
X112000000Y-54428571D01*
X111952380Y-54333333D01*
X111952380Y-53619047D02*
X111952380Y-53047619D01*
X112952380Y-53333333D02*
X111952380Y-53333333D01*
X113047619Y-52952380D02*
X113047619Y-52190476D01*
X112047619Y-52000000D02*
X112000000Y-51952380D01*
X111952380Y-51857142D01*
X111952380Y-51619047D01*
X112000000Y-51523809D01*
X112047619Y-51476190D01*
X112142857Y-51428571D01*
X112238095Y-51428571D01*
X112380952Y-51476190D01*
X112952380Y-52047619D01*
X112952380Y-51428571D01*
X110452380Y-55000000D02*
X110452380Y-55476190D01*
X109452380Y-55476190D01*
X109928571Y-54666666D02*
X109928571Y-54333333D01*
X110452380Y-54190476D02*
X110452380Y-54666666D01*
X109452380Y-54666666D01*
X109452380Y-54190476D01*
X110452380Y-53761904D02*
X109452380Y-53761904D01*
X109452380Y-53523809D01*
X109500000Y-53380952D01*
X109595238Y-53285714D01*
X109690476Y-53238095D01*
X109880952Y-53190476D01*
X110023809Y-53190476D01*
X110214285Y-53238095D01*
X110309523Y-53285714D01*
X110404761Y-53380952D01*
X110452380Y-53523809D01*
X110452380Y-53761904D01*
X110547619Y-53000000D02*
X110547619Y-52238095D01*
X109452380Y-51809523D02*
X109452380Y-51714285D01*
X109500000Y-51619047D01*
X109547619Y-51571428D01*
X109642857Y-51523809D01*
X109833333Y-51476190D01*
X110071428Y-51476190D01*
X110261904Y-51523809D01*
X110357142Y-51571428D01*
X110404761Y-51619047D01*
X110452380Y-51714285D01*
X110452380Y-51809523D01*
X110404761Y-51904761D01*
X110357142Y-51952380D01*
X110261904Y-52000000D01*
X110071428Y-52047619D01*
X109833333Y-52047619D01*
X109642857Y-52000000D01*
X109547619Y-51952380D01*
X109500000Y-51904761D01*
X109452380Y-51809523D01*
X107952380Y-55000000D02*
X107952380Y-55476190D01*
X106952380Y-55476190D01*
X107428571Y-54666666D02*
X107428571Y-54333333D01*
X107952380Y-54190476D02*
X107952380Y-54666666D01*
X106952380Y-54666666D01*
X106952380Y-54190476D01*
X107952380Y-53761904D02*
X106952380Y-53761904D01*
X106952380Y-53523809D01*
X107000000Y-53380952D01*
X107095238Y-53285714D01*
X107190476Y-53238095D01*
X107380952Y-53190476D01*
X107523809Y-53190476D01*
X107714285Y-53238095D01*
X107809523Y-53285714D01*
X107904761Y-53380952D01*
X107952380Y-53523809D01*
X107952380Y-53761904D01*
X108047619Y-53000000D02*
X108047619Y-52238095D01*
X107952380Y-51476190D02*
X107952380Y-52047619D01*
X107952380Y-51761904D02*
X106952380Y-51761904D01*
X107095238Y-51857142D01*
X107190476Y-51952380D01*
X107238095Y-52047619D01*
X105452380Y-55000000D02*
X105452380Y-55476190D01*
X104452380Y-55476190D01*
X104928571Y-54666666D02*
X104928571Y-54333333D01*
X105452380Y-54190476D02*
X105452380Y-54666666D01*
X104452380Y-54666666D01*
X104452380Y-54190476D01*
X105452380Y-53761904D02*
X104452380Y-53761904D01*
X104452380Y-53523809D01*
X104500000Y-53380952D01*
X104595238Y-53285714D01*
X104690476Y-53238095D01*
X104880952Y-53190476D01*
X105023809Y-53190476D01*
X105214285Y-53238095D01*
X105309523Y-53285714D01*
X105404761Y-53380952D01*
X105452380Y-53523809D01*
X105452380Y-53761904D01*
X105547619Y-53000000D02*
X105547619Y-52238095D01*
X104547619Y-52047619D02*
X104500000Y-52000000D01*
X104452380Y-51904761D01*
X104452380Y-51666666D01*
X104500000Y-51571428D01*
X104547619Y-51523809D01*
X104642857Y-51476190D01*
X104738095Y-51476190D01*
X104880952Y-51523809D01*
X105452380Y-52095238D01*
X105452380Y-51476190D01*
X102952380Y-55000000D02*
X102952380Y-55476190D01*
X101952380Y-55476190D01*
X102428571Y-54666666D02*
X102428571Y-54333333D01*
X102952380Y-54190476D02*
X102952380Y-54666666D01*
X101952380Y-54666666D01*
X101952380Y-54190476D01*
X102952380Y-53761904D02*
X101952380Y-53761904D01*
X101952380Y-53523809D01*
X102000000Y-53380952D01*
X102095238Y-53285714D01*
X102190476Y-53238095D01*
X102380952Y-53190476D01*
X102523809Y-53190476D01*
X102714285Y-53238095D01*
X102809523Y-53285714D01*
X102904761Y-53380952D01*
X102952380Y-53523809D01*
X102952380Y-53761904D01*
X103047619Y-53000000D02*
X103047619Y-52238095D01*
X101952380Y-52095238D02*
X101952380Y-51476190D01*
X102333333Y-51809523D01*
X102333333Y-51666666D01*
X102380952Y-51571428D01*
X102428571Y-51523809D01*
X102523809Y-51476190D01*
X102761904Y-51476190D01*
X102857142Y-51523809D01*
X102904761Y-51571428D01*
X102952380Y-51666666D01*
X102952380Y-51952380D01*
X102904761Y-52047619D01*
X102857142Y-52095238D01*
X99928571Y-55190476D02*
X99976190Y-55047619D01*
X100023809Y-55000000D01*
X100119047Y-54952380D01*
X100261904Y-54952380D01*
X100357142Y-55000000D01*
X100404761Y-55047619D01*
X100452380Y-55142857D01*
X100452380Y-55523809D01*
X99452380Y-55523809D01*
X99452380Y-55190476D01*
X99500000Y-55095238D01*
X99547619Y-55047619D01*
X99642857Y-55000000D01*
X99738095Y-55000000D01*
X99833333Y-55047619D01*
X99880952Y-55095238D01*
X99928571Y-55190476D01*
X99928571Y-55523809D01*
X99452380Y-54666666D02*
X99452380Y-54095238D01*
X100452380Y-54380952D02*
X99452380Y-54380952D01*
X100452380Y-53761904D02*
X99452380Y-53761904D01*
X100452380Y-53190476D01*
X99452380Y-53190476D01*
X100547619Y-52952380D02*
X100547619Y-52190476D01*
X99452380Y-51761904D02*
X99452380Y-51666666D01*
X99500000Y-51571428D01*
X99547619Y-51523809D01*
X99642857Y-51476190D01*
X99833333Y-51428571D01*
X100071428Y-51428571D01*
X100261904Y-51476190D01*
X100357142Y-51523809D01*
X100404761Y-51571428D01*
X100452380Y-51666666D01*
X100452380Y-51761904D01*
X100404761Y-51857142D01*
X100357142Y-51904761D01*
X100261904Y-51952380D01*
X100071428Y-52000000D01*
X99833333Y-52000000D01*
X99642857Y-51952380D01*
X99547619Y-51904761D01*
X99500000Y-51857142D01*
X99452380Y-51761904D01*
X97428571Y-55190476D02*
X97476190Y-55047619D01*
X97523809Y-55000000D01*
X97619047Y-54952380D01*
X97761904Y-54952380D01*
X97857142Y-55000000D01*
X97904761Y-55047619D01*
X97952380Y-55142857D01*
X97952380Y-55523809D01*
X96952380Y-55523809D01*
X96952380Y-55190476D01*
X97000000Y-55095238D01*
X97047619Y-55047619D01*
X97142857Y-55000000D01*
X97238095Y-55000000D01*
X97333333Y-55047619D01*
X97380952Y-55095238D01*
X97428571Y-55190476D01*
X97428571Y-55523809D01*
X96952380Y-54666666D02*
X96952380Y-54095238D01*
X97952380Y-54380952D02*
X96952380Y-54380952D01*
X97952380Y-53761904D02*
X96952380Y-53761904D01*
X97952380Y-53190476D01*
X96952380Y-53190476D01*
X98047619Y-52952380D02*
X98047619Y-52190476D01*
X97952380Y-51428571D02*
X97952380Y-52000000D01*
X97952380Y-51714285D02*
X96952380Y-51714285D01*
X97095238Y-51809523D01*
X97190476Y-51904761D01*
X97238095Y-52000000D01*
X94928571Y-55190476D02*
X94976190Y-55047619D01*
X95023809Y-55000000D01*
X95119047Y-54952380D01*
X95261904Y-54952380D01*
X95357142Y-55000000D01*
X95404761Y-55047619D01*
X95452380Y-55142857D01*
X95452380Y-55523809D01*
X94452380Y-55523809D01*
X94452380Y-55190476D01*
X94500000Y-55095238D01*
X94547619Y-55047619D01*
X94642857Y-55000000D01*
X94738095Y-55000000D01*
X94833333Y-55047619D01*
X94880952Y-55095238D01*
X94928571Y-55190476D01*
X94928571Y-55523809D01*
X94452380Y-54666666D02*
X94452380Y-54095238D01*
X95452380Y-54380952D02*
X94452380Y-54380952D01*
X95452380Y-53761904D02*
X94452380Y-53761904D01*
X95452380Y-53190476D01*
X94452380Y-53190476D01*
X95547619Y-52952380D02*
X95547619Y-52190476D01*
X94547619Y-52000000D02*
X94500000Y-51952380D01*
X94452380Y-51857142D01*
X94452380Y-51619047D01*
X94500000Y-51523809D01*
X94547619Y-51476190D01*
X94642857Y-51428571D01*
X94738095Y-51428571D01*
X94880952Y-51476190D01*
X95452380Y-52047619D01*
X95452380Y-51428571D01*
X92428571Y-55190476D02*
X92476190Y-55047619D01*
X92523809Y-55000000D01*
X92619047Y-54952380D01*
X92761904Y-54952380D01*
X92857142Y-55000000D01*
X92904761Y-55047619D01*
X92952380Y-55142857D01*
X92952380Y-55523809D01*
X91952380Y-55523809D01*
X91952380Y-55190476D01*
X92000000Y-55095238D01*
X92047619Y-55047619D01*
X92142857Y-55000000D01*
X92238095Y-55000000D01*
X92333333Y-55047619D01*
X92380952Y-55095238D01*
X92428571Y-55190476D01*
X92428571Y-55523809D01*
X91952380Y-54666666D02*
X91952380Y-54095238D01*
X92952380Y-54380952D02*
X91952380Y-54380952D01*
X92952380Y-53761904D02*
X91952380Y-53761904D01*
X92952380Y-53190476D01*
X91952380Y-53190476D01*
X93047619Y-52952380D02*
X93047619Y-52190476D01*
X91952380Y-52047619D02*
X91952380Y-51428571D01*
X92333333Y-51761904D01*
X92333333Y-51619047D01*
X92380952Y-51523809D01*
X92428571Y-51476190D01*
X92523809Y-51428571D01*
X92761904Y-51428571D01*
X92857142Y-51476190D01*
X92904761Y-51523809D01*
X92952380Y-51619047D01*
X92952380Y-51904761D01*
X92904761Y-52000000D01*
X92857142Y-52047619D01*
X90404761Y-55214285D02*
X90452380Y-55071428D01*
X90452380Y-54833333D01*
X90404761Y-54738095D01*
X90357142Y-54690476D01*
X90261904Y-54642857D01*
X90166666Y-54642857D01*
X90071428Y-54690476D01*
X90023809Y-54738095D01*
X89976190Y-54833333D01*
X89928571Y-55023809D01*
X89880952Y-55119047D01*
X89833333Y-55166666D01*
X89738095Y-55214285D01*
X89642857Y-55214285D01*
X89547619Y-55166666D01*
X89500000Y-55119047D01*
X89452380Y-55023809D01*
X89452380Y-54785714D01*
X89500000Y-54642857D01*
X89452380Y-54309523D02*
X90452380Y-54071428D01*
X89738095Y-53880952D01*
X90452380Y-53690476D01*
X89452380Y-53452380D01*
X90547619Y-53309523D02*
X90547619Y-52547619D01*
X89452380Y-52119047D02*
X89452380Y-52023809D01*
X89500000Y-51928571D01*
X89547619Y-51880952D01*
X89642857Y-51833333D01*
X89833333Y-51785714D01*
X90071428Y-51785714D01*
X90261904Y-51833333D01*
X90357142Y-51880952D01*
X90404761Y-51928571D01*
X90452380Y-52023809D01*
X90452380Y-52119047D01*
X90404761Y-52214285D01*
X90357142Y-52261904D01*
X90261904Y-52309523D01*
X90071428Y-52357142D01*
X89833333Y-52357142D01*
X89642857Y-52309523D01*
X89547619Y-52261904D01*
X89500000Y-52214285D01*
X89452380Y-52119047D01*
X87904761Y-55214285D02*
X87952380Y-55071428D01*
X87952380Y-54833333D01*
X87904761Y-54738095D01*
X87857142Y-54690476D01*
X87761904Y-54642857D01*
X87666666Y-54642857D01*
X87571428Y-54690476D01*
X87523809Y-54738095D01*
X87476190Y-54833333D01*
X87428571Y-55023809D01*
X87380952Y-55119047D01*
X87333333Y-55166666D01*
X87238095Y-55214285D01*
X87142857Y-55214285D01*
X87047619Y-55166666D01*
X87000000Y-55119047D01*
X86952380Y-55023809D01*
X86952380Y-54785714D01*
X87000000Y-54642857D01*
X86952380Y-54309523D02*
X87952380Y-54071428D01*
X87238095Y-53880952D01*
X87952380Y-53690476D01*
X86952380Y-53452380D01*
X88047619Y-53309523D02*
X88047619Y-52547619D01*
X87952380Y-51785714D02*
X87952380Y-52357142D01*
X87952380Y-52071428D02*
X86952380Y-52071428D01*
X87095238Y-52166666D01*
X87190476Y-52261904D01*
X87238095Y-52357142D01*
X85404761Y-55214285D02*
X85452380Y-55071428D01*
X85452380Y-54833333D01*
X85404761Y-54738095D01*
X85357142Y-54690476D01*
X85261904Y-54642857D01*
X85166666Y-54642857D01*
X85071428Y-54690476D01*
X85023809Y-54738095D01*
X84976190Y-54833333D01*
X84928571Y-55023809D01*
X84880952Y-55119047D01*
X84833333Y-55166666D01*
X84738095Y-55214285D01*
X84642857Y-55214285D01*
X84547619Y-55166666D01*
X84500000Y-55119047D01*
X84452380Y-55023809D01*
X84452380Y-54785714D01*
X84500000Y-54642857D01*
X84452380Y-54309523D02*
X85452380Y-54071428D01*
X84738095Y-53880952D01*
X85452380Y-53690476D01*
X84452380Y-53452380D01*
X85547619Y-53309523D02*
X85547619Y-52547619D01*
X84547619Y-52357142D02*
X84500000Y-52309523D01*
X84452380Y-52214285D01*
X84452380Y-51976190D01*
X84500000Y-51880952D01*
X84547619Y-51833333D01*
X84642857Y-51785714D01*
X84738095Y-51785714D01*
X84880952Y-51833333D01*
X85452380Y-52404761D01*
X85452380Y-51785714D01*
X82904761Y-55214285D02*
X82952380Y-55071428D01*
X82952380Y-54833333D01*
X82904761Y-54738095D01*
X82857142Y-54690476D01*
X82761904Y-54642857D01*
X82666666Y-54642857D01*
X82571428Y-54690476D01*
X82523809Y-54738095D01*
X82476190Y-54833333D01*
X82428571Y-55023809D01*
X82380952Y-55119047D01*
X82333333Y-55166666D01*
X82238095Y-55214285D01*
X82142857Y-55214285D01*
X82047619Y-55166666D01*
X82000000Y-55119047D01*
X81952380Y-55023809D01*
X81952380Y-54785714D01*
X82000000Y-54642857D01*
X81952380Y-54309523D02*
X82952380Y-54071428D01*
X82238095Y-53880952D01*
X82952380Y-53690476D01*
X81952380Y-53452380D01*
X83047619Y-53309523D02*
X83047619Y-52547619D01*
X81952380Y-52404761D02*
X81952380Y-51785714D01*
X82333333Y-52119047D01*
X82333333Y-51976190D01*
X82380952Y-51880952D01*
X82428571Y-51833333D01*
X82523809Y-51785714D01*
X82761904Y-51785714D01*
X82857142Y-51833333D01*
X82904761Y-51880952D01*
X82952380Y-51976190D01*
X82952380Y-52261904D01*
X82904761Y-52357142D01*
X82857142Y-52404761D01*
X80404761Y-54190476D02*
X80452380Y-54047619D01*
X80452380Y-53809523D01*
X80404761Y-53714285D01*
X80357142Y-53666666D01*
X80261904Y-53619047D01*
X80166666Y-53619047D01*
X80071428Y-53666666D01*
X80023809Y-53714285D01*
X79976190Y-53809523D01*
X79928571Y-54000000D01*
X79880952Y-54095238D01*
X79833333Y-54142857D01*
X79738095Y-54190476D01*
X79642857Y-54190476D01*
X79547619Y-54142857D01*
X79500000Y-54095238D01*
X79452380Y-54000000D01*
X79452380Y-53761904D01*
X79500000Y-53619047D01*
X80357142Y-52619047D02*
X80404761Y-52666666D01*
X80452380Y-52809523D01*
X80452380Y-52904761D01*
X80404761Y-53047619D01*
X80309523Y-53142857D01*
X80214285Y-53190476D01*
X80023809Y-53238095D01*
X79880952Y-53238095D01*
X79690476Y-53190476D01*
X79595238Y-53142857D01*
X79500000Y-53047619D01*
X79452380Y-52904761D01*
X79452380Y-52809523D01*
X79500000Y-52666666D01*
X79547619Y-52619047D01*
X80452380Y-51714285D02*
X80452380Y-52190476D01*
X79452380Y-52190476D01*
X77904761Y-54214285D02*
X77952380Y-54071428D01*
X77952380Y-53833333D01*
X77904761Y-53738095D01*
X77857142Y-53690476D01*
X77761904Y-53642857D01*
X77666666Y-53642857D01*
X77571428Y-53690476D01*
X77523809Y-53738095D01*
X77476190Y-53833333D01*
X77428571Y-54023809D01*
X77380952Y-54119047D01*
X77333333Y-54166666D01*
X77238095Y-54214285D01*
X77142857Y-54214285D01*
X77047619Y-54166666D01*
X77000000Y-54119047D01*
X76952380Y-54023809D01*
X76952380Y-53785714D01*
X77000000Y-53642857D01*
X77952380Y-53214285D02*
X76952380Y-53214285D01*
X76952380Y-52976190D01*
X77000000Y-52833333D01*
X77095238Y-52738095D01*
X77190476Y-52690476D01*
X77380952Y-52642857D01*
X77523809Y-52642857D01*
X77714285Y-52690476D01*
X77809523Y-52738095D01*
X77904761Y-52833333D01*
X77952380Y-52976190D01*
X77952380Y-53214285D01*
X77666666Y-52261904D02*
X77666666Y-51785714D01*
X77952380Y-52357142D02*
X76952380Y-52023809D01*
X77952380Y-51690476D01*
X74302380Y-54826190D02*
X74302380Y-54207142D01*
X74683333Y-54540476D01*
X74683333Y-54397619D01*
X74730952Y-54302380D01*
X74778571Y-54254761D01*
X74873809Y-54207142D01*
X75111904Y-54207142D01*
X75207142Y-54254761D01*
X75254761Y-54302380D01*
X75302380Y-54397619D01*
X75302380Y-54683333D01*
X75254761Y-54778571D01*
X75207142Y-54826190D01*
X75207142Y-53778571D02*
X75254761Y-53730952D01*
X75302380Y-53778571D01*
X75254761Y-53826190D01*
X75207142Y-53778571D01*
X75302380Y-53778571D01*
X74302380Y-53397619D02*
X74302380Y-52778571D01*
X74683333Y-53111904D01*
X74683333Y-52969047D01*
X74730952Y-52873809D01*
X74778571Y-52826190D01*
X74873809Y-52778571D01*
X75111904Y-52778571D01*
X75207142Y-52826190D01*
X75254761Y-52873809D01*
X75302380Y-52969047D01*
X75302380Y-53254761D01*
X75254761Y-53350000D01*
X75207142Y-53397619D01*
X74302380Y-52492857D02*
X75302380Y-52159523D01*
X74302380Y-51826190D01*
X71802380Y-52790476D02*
X71802380Y-53266666D01*
X72278571Y-53314285D01*
X72230952Y-53266666D01*
X72183333Y-53171428D01*
X72183333Y-52933333D01*
X72230952Y-52838095D01*
X72278571Y-52790476D01*
X72373809Y-52742857D01*
X72611904Y-52742857D01*
X72707142Y-52790476D01*
X72754761Y-52838095D01*
X72802380Y-52933333D01*
X72802380Y-53171428D01*
X72754761Y-53266666D01*
X72707142Y-53314285D01*
X71802380Y-52457142D02*
X72802380Y-52123809D01*
X71802380Y-51790476D01*
X69350000Y-53611904D02*
X69302380Y-53707142D01*
X69302380Y-53850000D01*
X69350000Y-53992857D01*
X69445238Y-54088095D01*
X69540476Y-54135714D01*
X69730952Y-54183333D01*
X69873809Y-54183333D01*
X70064285Y-54135714D01*
X70159523Y-54088095D01*
X70254761Y-53992857D01*
X70302380Y-53850000D01*
X70302380Y-53754761D01*
X70254761Y-53611904D01*
X70207142Y-53564285D01*
X69873809Y-53564285D01*
X69873809Y-53754761D01*
X70302380Y-53135714D02*
X69302380Y-53135714D01*
X70302380Y-52564285D01*
X69302380Y-52564285D01*
X70302380Y-52088095D02*
X69302380Y-52088095D01*
X69302380Y-51850000D01*
X69350000Y-51707142D01*
X69445238Y-51611904D01*
X69540476Y-51564285D01*
X69730952Y-51516666D01*
X69873809Y-51516666D01*
X70064285Y-51564285D01*
X70159523Y-51611904D01*
X70254761Y-51707142D01*
X70302380Y-51850000D01*
X70302380Y-52088095D01*
X74566666Y-61927380D02*
X74566666Y-60927380D01*
X74947619Y-60927380D01*
X75042857Y-60975000D01*
X75090476Y-61022619D01*
X75138095Y-61117857D01*
X75138095Y-61260714D01*
X75090476Y-61355952D01*
X75042857Y-61403571D01*
X74947619Y-61451190D01*
X74566666Y-61451190D01*
X75471428Y-60927380D02*
X75709523Y-61927380D01*
X75900000Y-61213095D01*
X76090476Y-61927380D01*
X76328571Y-60927380D01*
X77280952Y-61927380D02*
X76947619Y-61451190D01*
X76709523Y-61927380D02*
X76709523Y-60927380D01*
X77090476Y-60927380D01*
X77185714Y-60975000D01*
X77233333Y-61022619D01*
X77280952Y-61117857D01*
X77280952Y-61260714D01*
X77233333Y-61355952D01*
X77185714Y-61403571D01*
X77090476Y-61451190D01*
X76709523Y-61451190D01*
D12*
%TO.C,D2*%
X65000000Y-74650000D02*
X67000000Y-74650000D01*
X67000000Y-74650000D02*
X67000000Y-70750000D01*
X65000000Y-74650000D02*
X65000000Y-70750000D01*
%TO.C,U2*%
X81800000Y-68560000D02*
X83750000Y-68560000D01*
X81800000Y-68560000D02*
X79850000Y-68560000D01*
X81800000Y-63440000D02*
X83750000Y-63440000D01*
X81800000Y-63440000D02*
X78350000Y-63440000D01*
%TO.C,J1*%
X119330000Y-49000000D02*
X119330000Y-50330000D01*
X119330000Y-50330000D02*
X118000000Y-50330000D01*
X116730000Y-50330000D02*
X68410000Y-50330000D01*
X68410000Y-47670000D02*
X68410000Y-50330000D01*
X116730000Y-47670000D02*
X68410000Y-47670000D01*
X116730000Y-47670000D02*
X116730000Y-50330000D01*
%TO.C,MICRO*%
X65715000Y-64275000D02*
X66165000Y-63875000D01*
X66165000Y-63875000D02*
X66165000Y-64675000D01*
X66165000Y-64675000D02*
X65715000Y-64275000D01*
X60115000Y-69425000D02*
X62915000Y-69425000D01*
X62915000Y-69425000D02*
X62915000Y-69725000D01*
X62915000Y-69725000D02*
X64465000Y-69725000D01*
X60115000Y-61725000D02*
X62915000Y-61725000D01*
X62915000Y-61425000D02*
X62915000Y-61725000D01*
X62915000Y-61425000D02*
X64465000Y-61425000D01*
%TO.C,C1*%
X75660000Y-72978733D02*
X75660000Y-73321267D01*
X74640000Y-72978733D02*
X74640000Y-73321267D01*
%TO.C,C2*%
X70321267Y-71640000D02*
X69978733Y-71640000D01*
X70321267Y-72660000D02*
X69978733Y-72660000D01*
%TO.C,C3*%
X103360000Y-95678733D02*
X103360000Y-96021267D01*
X102340000Y-95678733D02*
X102340000Y-96021267D01*
%TO.C,C4*%
X92090000Y-95678733D02*
X92090000Y-96021267D01*
X93110000Y-95678733D02*
X93110000Y-96021267D01*
%TO.C,C5*%
X102240000Y-84428733D02*
X102240000Y-84771267D01*
X103260000Y-84428733D02*
X103260000Y-84771267D01*
%TO.C,C6*%
X92510000Y-84428733D02*
X92510000Y-84771267D01*
X91490000Y-84428733D02*
X91490000Y-84771267D01*
%TO.C,D1*%
X95585000Y-69260000D02*
X95585000Y-66800000D01*
X94115000Y-69260000D02*
X95585000Y-69260000D01*
X94115000Y-66800000D02*
X94115000Y-69260000D01*
%TO.C,D3*%
X97835000Y-69260000D02*
X97835000Y-66800000D01*
X96365000Y-69260000D02*
X97835000Y-69260000D01*
X96365000Y-66800000D02*
X96365000Y-69260000D01*
%TO.C,D4*%
X100335000Y-69260000D02*
X100335000Y-66800000D01*
X98865000Y-69260000D02*
X100335000Y-69260000D01*
X98865000Y-66800000D02*
X98865000Y-69260000D01*
%TO.C,D5*%
X101115000Y-66800000D02*
X101115000Y-69260000D01*
X101115000Y-69260000D02*
X102585000Y-69260000D01*
X102585000Y-69260000D02*
X102585000Y-66800000D01*
%TO.C,D6*%
X75415000Y-64100000D02*
X75415000Y-66560000D01*
X75415000Y-66560000D02*
X76885000Y-66560000D01*
X76885000Y-66560000D02*
X76885000Y-64100000D01*
%TO.C,F1*%
X70321267Y-73640000D02*
X69978733Y-73640000D01*
X70321267Y-74660000D02*
X69978733Y-74660000D01*
%TO.C,FB1*%
X72440000Y-72888748D02*
X72440000Y-73411252D01*
X73860000Y-72888748D02*
X73860000Y-73411252D01*
%TO.C,Q1*%
X94290000Y-60350000D02*
X94290000Y-63800000D01*
X94290000Y-60350000D02*
X94290000Y-58400000D01*
X99410000Y-60350000D02*
X99410000Y-62300000D01*
X99410000Y-60350000D02*
X99410000Y-58400000D01*
%TO.C,R1*%
X94340000Y-71178733D02*
X94340000Y-71521267D01*
X95360000Y-71178733D02*
X95360000Y-71521267D01*
%TO.C,R2*%
X96590000Y-71178733D02*
X96590000Y-71521267D01*
X97610000Y-71178733D02*
X97610000Y-71521267D01*
%TO.C,R3*%
X99090000Y-71178733D02*
X99090000Y-71521267D01*
X100110000Y-71178733D02*
X100110000Y-71521267D01*
%TO.C,R4*%
X102354999Y-71178733D02*
X102354999Y-71521267D01*
X101334999Y-71178733D02*
X101334999Y-71521267D01*
%TO.C,R5*%
X75528733Y-58910000D02*
X75871267Y-58910000D01*
X75528733Y-57890000D02*
X75871267Y-57890000D01*
%TO.C,R6*%
X75528733Y-55890000D02*
X75871267Y-55890000D01*
X75528733Y-56910000D02*
X75871267Y-56910000D01*
%TO.C,R7*%
X75640000Y-68478733D02*
X75640000Y-68821267D01*
X76660000Y-68478733D02*
X76660000Y-68821267D01*
%TO.C,R8*%
X101360000Y-95678733D02*
X101360000Y-96021267D01*
X100340000Y-95678733D02*
X100340000Y-96021267D01*
%TO.C,R9*%
X90090000Y-95678733D02*
X90090000Y-96021267D01*
X91110000Y-95678733D02*
X91110000Y-96021267D01*
%TO.C,R10*%
X101510000Y-84428733D02*
X101510000Y-84771267D01*
X100490000Y-84428733D02*
X100490000Y-84771267D01*
%TO.C,R11*%
X75640000Y-80571267D02*
X75640000Y-80228733D01*
X76660000Y-80571267D02*
X76660000Y-80228733D01*
%TO.C,R12*%
X73140000Y-80571267D02*
X73140000Y-80228733D01*
X74160000Y-80571267D02*
X74160000Y-80228733D01*
%TO.C,R13*%
X71660000Y-80571267D02*
X71660000Y-80228733D01*
X70640000Y-80571267D02*
X70640000Y-80228733D01*
%TO.C,R14*%
X89740000Y-84428733D02*
X89740000Y-84771267D01*
X90760000Y-84428733D02*
X90760000Y-84771267D01*
%TO.C,R15*%
X68140000Y-80571267D02*
X68140000Y-80228733D01*
X69160000Y-80571267D02*
X69160000Y-80228733D01*
%TO.C,RV1*%
X120570000Y-71510000D02*
X107630000Y-71510000D01*
X120570000Y-58770000D02*
X107630000Y-58770000D01*
X120570000Y-71510000D02*
X120570000Y-68835000D01*
X120570000Y-66525000D02*
X120570000Y-66295000D01*
X120570000Y-63984000D02*
X120570000Y-63755000D01*
X120570000Y-61445000D02*
X120570000Y-58770000D01*
X107630000Y-71510000D02*
X107630000Y-58770000D01*
%TO.C,RV2*%
X107630000Y-88110000D02*
X107630000Y-75370000D01*
X120570000Y-78045000D02*
X120570000Y-75370000D01*
X120570000Y-80584000D02*
X120570000Y-80355000D01*
X120570000Y-83125000D02*
X120570000Y-82895000D01*
X120570000Y-88110000D02*
X120570000Y-85435000D01*
X120570000Y-75370000D02*
X107630000Y-75370000D01*
X120570000Y-88110000D02*
X107630000Y-88110000D01*
%TO.C,BTN_0*%
X95295001Y-93720001D02*
X101755001Y-93720001D01*
X95295001Y-89190001D02*
X95295001Y-91790001D01*
X95295001Y-87260001D02*
X101755001Y-87260001D01*
X101755001Y-89190001D02*
X101755001Y-91790001D01*
X95295001Y-87290001D02*
X95295001Y-87260001D01*
X95295001Y-93720001D02*
X95295001Y-93690001D01*
X101755001Y-93720001D02*
X101755001Y-93690001D01*
X101755001Y-87260001D02*
X101755001Y-87290001D01*
%TO.C,BTN_1*%
X90705001Y-87260001D02*
X90705001Y-87290001D01*
X90705001Y-93720001D02*
X90705001Y-93690001D01*
X84245001Y-93720001D02*
X84245001Y-93690001D01*
X84245001Y-87290001D02*
X84245001Y-87260001D01*
X90705001Y-89190001D02*
X90705001Y-91790001D01*
X84245001Y-87260001D02*
X90705001Y-87260001D01*
X84245001Y-89190001D02*
X84245001Y-91790001D01*
X84245001Y-93720001D02*
X90705001Y-93720001D01*
%TO.C,BTN_2*%
X95270000Y-82330000D02*
X101730000Y-82330000D01*
X95270000Y-77800000D02*
X95270000Y-80400000D01*
X95270000Y-75870000D02*
X101730000Y-75870000D01*
X101730000Y-77800000D02*
X101730000Y-80400000D01*
X95270000Y-75900000D02*
X95270000Y-75870000D01*
X95270000Y-82330000D02*
X95270000Y-82300000D01*
X101730000Y-82330000D02*
X101730000Y-82300000D01*
X101730000Y-75870000D02*
X101730000Y-75900000D01*
%TO.C,BTN_3*%
X90980000Y-75870000D02*
X90980000Y-75900000D01*
X90980000Y-82330000D02*
X90980000Y-82300000D01*
X84520000Y-82330000D02*
X84520000Y-82300000D01*
X84520000Y-75900000D02*
X84520000Y-75870000D01*
X90980000Y-77800000D02*
X90980000Y-80400000D01*
X84520000Y-75870000D02*
X90980000Y-75870000D01*
X84520000Y-77800000D02*
X84520000Y-80400000D01*
X84520000Y-82330000D02*
X90980000Y-82330000D01*
%TO.C,SW5*%
X68530000Y-92810000D02*
X66790000Y-92810000D01*
X68530000Y-86490000D02*
X66790000Y-86490000D01*
X78010000Y-92810000D02*
X76271000Y-92810000D01*
X78010000Y-86490000D02*
X78010000Y-92810000D01*
X78010000Y-86490000D02*
X77061000Y-86490000D01*
X77061000Y-84450000D02*
X77061000Y-86490000D01*
X66790000Y-86490000D02*
X66790000Y-92810000D01*
%TO.C,U1*%
X81800000Y-56440000D02*
X79850000Y-56440000D01*
X81800000Y-56440000D02*
X83750000Y-56440000D01*
X81800000Y-61560000D02*
X79850000Y-61560000D01*
X81800000Y-61560000D02*
X85250000Y-61560000D01*
%TO.C,U3*%
X67740000Y-70750000D02*
X67740000Y-64740000D01*
X74560000Y-68500000D02*
X74560000Y-64740000D01*
X67740000Y-64740000D02*
X69000000Y-64740000D01*
X74560000Y-64740000D02*
X73300000Y-64740000D01*
%TO.C,U2*%
D11*
X79038095Y-70652380D02*
X79038095Y-71461904D01*
X79085714Y-71557142D01*
X79133333Y-71604761D01*
X79228571Y-71652380D01*
X79419047Y-71652380D01*
X79514285Y-71604761D01*
X79561904Y-71557142D01*
X79609523Y-71461904D01*
X79609523Y-70652380D01*
X80038095Y-70747619D02*
X80085714Y-70700000D01*
X80180952Y-70652380D01*
X80419047Y-70652380D01*
X80514285Y-70700000D01*
X80561904Y-70747619D01*
X80609523Y-70842857D01*
X80609523Y-70938095D01*
X80561904Y-71080952D01*
X79990476Y-71652380D01*
X80609523Y-71652380D01*
%TO.C,J1*%
X120222380Y-49333333D02*
X120936666Y-49333333D01*
X121079523Y-49380952D01*
X121174761Y-49476190D01*
X121222380Y-49619047D01*
X121222380Y-49714285D01*
X121222380Y-48333333D02*
X121222380Y-48904761D01*
X121222380Y-48619047D02*
X120222380Y-48619047D01*
X120365238Y-48714285D01*
X120460476Y-48809523D01*
X120508095Y-48904761D01*
%TO.C,MICRO*%
X61604761Y-60452380D02*
X61604761Y-59452380D01*
X61938095Y-60166666D01*
X62271428Y-59452380D01*
X62271428Y-60452380D01*
X62747619Y-60452380D02*
X62747619Y-59452380D01*
X63795238Y-60357142D02*
X63747619Y-60404761D01*
X63604761Y-60452380D01*
X63509523Y-60452380D01*
X63366666Y-60404761D01*
X63271428Y-60309523D01*
X63223809Y-60214285D01*
X63176190Y-60023809D01*
X63176190Y-59880952D01*
X63223809Y-59690476D01*
X63271428Y-59595238D01*
X63366666Y-59500000D01*
X63509523Y-59452380D01*
X63604761Y-59452380D01*
X63747619Y-59500000D01*
X63795238Y-59547619D01*
X64795238Y-60452380D02*
X64461904Y-59976190D01*
X64223809Y-60452380D02*
X64223809Y-59452380D01*
X64604761Y-59452380D01*
X64700000Y-59500000D01*
X64747619Y-59547619D01*
X64795238Y-59642857D01*
X64795238Y-59785714D01*
X64747619Y-59880952D01*
X64700000Y-59928571D01*
X64604761Y-59976190D01*
X64223809Y-59976190D01*
X65414285Y-59452380D02*
X65604761Y-59452380D01*
X65700000Y-59500000D01*
X65795238Y-59595238D01*
X65842857Y-59785714D01*
X65842857Y-60119047D01*
X65795238Y-60309523D01*
X65700000Y-60404761D01*
X65604761Y-60452380D01*
X65414285Y-60452380D01*
X65319047Y-60404761D01*
X65223809Y-60309523D01*
X65176190Y-60119047D01*
X65176190Y-59785714D01*
X65223809Y-59595238D01*
X65319047Y-59500000D01*
X65414285Y-59452380D01*
%TO.C,Q1*%
X100704761Y-60347619D02*
X100609523Y-60300000D01*
X100514285Y-60204761D01*
X100371428Y-60061904D01*
X100276190Y-60014285D01*
X100180952Y-60014285D01*
X100228571Y-60252380D02*
X100133333Y-60204761D01*
X100038095Y-60109523D01*
X99990476Y-59919047D01*
X99990476Y-59585714D01*
X100038095Y-59395238D01*
X100133333Y-59300000D01*
X100228571Y-59252380D01*
X100419047Y-59252380D01*
X100514285Y-59300000D01*
X100609523Y-59395238D01*
X100657142Y-59585714D01*
X100657142Y-59919047D01*
X100609523Y-60109523D01*
X100514285Y-60204761D01*
X100419047Y-60252380D01*
X100228571Y-60252380D01*
X101609523Y-60252380D02*
X101038095Y-60252380D01*
X101323809Y-60252380D02*
X101323809Y-59252380D01*
X101228571Y-59395238D01*
X101133333Y-59490476D01*
X101038095Y-59538095D01*
%TO.C,BTN_0*%
X95309523Y-95928571D02*
X95452380Y-95976190D01*
X95500000Y-96023809D01*
X95547619Y-96119047D01*
X95547619Y-96261904D01*
X95500000Y-96357142D01*
X95452380Y-96404761D01*
X95357142Y-96452380D01*
X94976190Y-96452380D01*
X94976190Y-95452380D01*
X95309523Y-95452380D01*
X95404761Y-95500000D01*
X95452380Y-95547619D01*
X95500000Y-95642857D01*
X95500000Y-95738095D01*
X95452380Y-95833333D01*
X95404761Y-95880952D01*
X95309523Y-95928571D01*
X94976190Y-95928571D01*
X95833333Y-95452380D02*
X96404761Y-95452380D01*
X96119047Y-96452380D02*
X96119047Y-95452380D01*
X96738095Y-96452380D02*
X96738095Y-95452380D01*
X97309523Y-96452380D01*
X97309523Y-95452380D01*
X97547619Y-96547619D02*
X98309523Y-96547619D01*
X98738095Y-95452380D02*
X98833333Y-95452380D01*
X98928571Y-95500000D01*
X98976190Y-95547619D01*
X99023809Y-95642857D01*
X99071428Y-95833333D01*
X99071428Y-96071428D01*
X99023809Y-96261904D01*
X98976190Y-96357142D01*
X98928571Y-96404761D01*
X98833333Y-96452380D01*
X98738095Y-96452380D01*
X98642857Y-96404761D01*
X98595238Y-96357142D01*
X98547619Y-96261904D01*
X98500000Y-96071428D01*
X98500000Y-95833333D01*
X98547619Y-95642857D01*
X98595238Y-95547619D01*
X98642857Y-95500000D01*
X98738095Y-95452380D01*
%TO.C,BTN_1*%
X84309523Y-95928571D02*
X84452380Y-95976190D01*
X84500000Y-96023809D01*
X84547619Y-96119047D01*
X84547619Y-96261904D01*
X84500000Y-96357142D01*
X84452380Y-96404761D01*
X84357142Y-96452380D01*
X83976190Y-96452380D01*
X83976190Y-95452380D01*
X84309523Y-95452380D01*
X84404761Y-95500000D01*
X84452380Y-95547619D01*
X84500000Y-95642857D01*
X84500000Y-95738095D01*
X84452380Y-95833333D01*
X84404761Y-95880952D01*
X84309523Y-95928571D01*
X83976190Y-95928571D01*
X84833333Y-95452380D02*
X85404761Y-95452380D01*
X85119047Y-96452380D02*
X85119047Y-95452380D01*
X85738095Y-96452380D02*
X85738095Y-95452380D01*
X86309523Y-96452380D01*
X86309523Y-95452380D01*
X86547619Y-96547619D02*
X87309523Y-96547619D01*
X88071428Y-96452380D02*
X87500000Y-96452380D01*
X87785714Y-96452380D02*
X87785714Y-95452380D01*
X87690476Y-95595238D01*
X87595238Y-95690476D01*
X87500000Y-95738095D01*
%TO.C,BTN_2*%
X95209523Y-84428571D02*
X95352380Y-84476190D01*
X95400000Y-84523809D01*
X95447619Y-84619047D01*
X95447619Y-84761904D01*
X95400000Y-84857142D01*
X95352380Y-84904761D01*
X95257142Y-84952380D01*
X94876190Y-84952380D01*
X94876190Y-83952380D01*
X95209523Y-83952380D01*
X95304761Y-84000000D01*
X95352380Y-84047619D01*
X95400000Y-84142857D01*
X95400000Y-84238095D01*
X95352380Y-84333333D01*
X95304761Y-84380952D01*
X95209523Y-84428571D01*
X94876190Y-84428571D01*
X95733333Y-83952380D02*
X96304761Y-83952380D01*
X96019047Y-84952380D02*
X96019047Y-83952380D01*
X96638095Y-84952380D02*
X96638095Y-83952380D01*
X97209523Y-84952380D01*
X97209523Y-83952380D01*
X97447619Y-85047619D02*
X98209523Y-85047619D01*
X98400000Y-84047619D02*
X98447619Y-84000000D01*
X98542857Y-83952380D01*
X98780952Y-83952380D01*
X98876190Y-84000000D01*
X98923809Y-84047619D01*
X98971428Y-84142857D01*
X98971428Y-84238095D01*
X98923809Y-84380952D01*
X98352380Y-84952380D01*
X98971428Y-84952380D01*
%TO.C,BTN_3*%
X84209523Y-84428571D02*
X84352380Y-84476190D01*
X84400000Y-84523809D01*
X84447619Y-84619047D01*
X84447619Y-84761904D01*
X84400000Y-84857142D01*
X84352380Y-84904761D01*
X84257142Y-84952380D01*
X83876190Y-84952380D01*
X83876190Y-83952380D01*
X84209523Y-83952380D01*
X84304761Y-84000000D01*
X84352380Y-84047619D01*
X84400000Y-84142857D01*
X84400000Y-84238095D01*
X84352380Y-84333333D01*
X84304761Y-84380952D01*
X84209523Y-84428571D01*
X83876190Y-84428571D01*
X84733333Y-83952380D02*
X85304761Y-83952380D01*
X85019047Y-84952380D02*
X85019047Y-83952380D01*
X85638095Y-84952380D02*
X85638095Y-83952380D01*
X86209523Y-84952380D01*
X86209523Y-83952380D01*
X86447619Y-85047619D02*
X87209523Y-85047619D01*
X87352380Y-83952380D02*
X87971428Y-83952380D01*
X87638095Y-84333333D01*
X87780952Y-84333333D01*
X87876190Y-84380952D01*
X87923809Y-84428571D01*
X87971428Y-84523809D01*
X87971428Y-84761904D01*
X87923809Y-84857142D01*
X87876190Y-84904761D01*
X87780952Y-84952380D01*
X87495238Y-84952380D01*
X87400000Y-84904761D01*
X87352380Y-84857142D01*
%TO.C,SW5*%
X79414761Y-90983333D02*
X79462380Y-90840476D01*
X79462380Y-90602380D01*
X79414761Y-90507142D01*
X79367142Y-90459523D01*
X79271904Y-90411904D01*
X79176666Y-90411904D01*
X79081428Y-90459523D01*
X79033809Y-90507142D01*
X78986190Y-90602380D01*
X78938571Y-90792857D01*
X78890952Y-90888095D01*
X78843333Y-90935714D01*
X78748095Y-90983333D01*
X78652857Y-90983333D01*
X78557619Y-90935714D01*
X78510000Y-90888095D01*
X78462380Y-90792857D01*
X78462380Y-90554761D01*
X78510000Y-90411904D01*
X78462380Y-90078571D02*
X79462380Y-89840476D01*
X78748095Y-89650000D01*
X79462380Y-89459523D01*
X78462380Y-89221428D01*
X78462380Y-88364285D02*
X78462380Y-88840476D01*
X78938571Y-88888095D01*
X78890952Y-88840476D01*
X78843333Y-88745238D01*
X78843333Y-88507142D01*
X78890952Y-88411904D01*
X78938571Y-88364285D01*
X79033809Y-88316666D01*
X79271904Y-88316666D01*
X79367142Y-88364285D01*
X79414761Y-88411904D01*
X79462380Y-88507142D01*
X79462380Y-88745238D01*
X79414761Y-88840476D01*
X79367142Y-88888095D01*
%TO.C,U1*%
X83538095Y-61952380D02*
X83538095Y-62761904D01*
X83585714Y-62857142D01*
X83633333Y-62904761D01*
X83728571Y-62952380D01*
X83919047Y-62952380D01*
X84014285Y-62904761D01*
X84061904Y-62857142D01*
X84109523Y-62761904D01*
X84109523Y-61952380D01*
X85109523Y-62952380D02*
X84538095Y-62952380D01*
X84823809Y-62952380D02*
X84823809Y-61952380D01*
X84728571Y-62095238D01*
X84633333Y-62190476D01*
X84538095Y-62238095D01*
%TO.C,U3*%
X67638095Y-60852380D02*
X67638095Y-61661904D01*
X67685714Y-61757142D01*
X67733333Y-61804761D01*
X67828571Y-61852380D01*
X68019047Y-61852380D01*
X68114285Y-61804761D01*
X68161904Y-61757142D01*
X68209523Y-61661904D01*
X68209523Y-60852380D01*
X68590476Y-60852380D02*
X69209523Y-60852380D01*
X68876190Y-61233333D01*
X69019047Y-61233333D01*
X69114285Y-61280952D01*
X69161904Y-61328571D01*
X69209523Y-61423809D01*
X69209523Y-61661904D01*
X69161904Y-61757142D01*
X69114285Y-61804761D01*
X69019047Y-61852380D01*
X68733333Y-61852380D01*
X68638095Y-61804761D01*
X68590476Y-61757142D01*
%TD*%
M02*
