M48
; DRILL file {KiCad 5.1.6-c6e7f7d~86~ubuntu18.04.1} date Wed Jun 24 09:12:38 2020
; FORMAT={-:-/ absolute / inch / decimal}
; #@! TF.CreationDate,2020-06-24T09:12:38-04:00
; #@! TF.GenerationSoftware,Kicad,Pcbnew,5.1.6-c6e7f7d~86~ubuntu18.04.1
; #@! TF.FileFunction,Plated,1,2,PTH
FMAT,2
INCH
T1C0.0157
T2C0.0256
T3C0.0276
T4C0.0394
T5C0.0866
%
G90
G05
T1
X2.6693Y-2.815
X2.6693Y-2.8504
X2.7087Y-3.0709
X2.8071Y-3.0709
X2.9055Y-3.0709
X3.0079Y-3.0669
X3.0236Y-2.8898
X3.0472Y-2.3622
X3.0551Y-2.6969
X3.0591Y-2.7598
X3.2402Y-2.4567
X3.2913Y-2.7756
X3.3543Y-2.7756
X3.3937Y-2.2992
X3.3976Y-2.252
X3.3976Y-2.3425
X3.4921Y-3.3898
X3.5591Y-3.8583
X3.6378Y-3.8583
X3.6575Y-2.2953
X3.6575Y-2.3425
X3.6772Y-3.3937
X3.7441Y-2.8976
X3.8268Y-2.8937
X3.9252Y-2.8937
X3.9803Y-3.8622
X3.9843Y-3.4134
X4.0157Y-2.8937
X4.0472Y-3.4134
X4.0512Y-3.8622
T4
X2.7457Y-1.9291
X2.8457Y-1.9291
X2.9457Y-1.9291
X3.0457Y-1.9291
X3.1457Y-1.9291
X3.2457Y-1.9291
X3.3457Y-1.9291
X3.4457Y-1.9291
X3.5457Y-1.9291
X3.6457Y-1.9291
X3.7457Y-1.9291
X3.8457Y-1.9291
X3.9457Y-1.9291
X4.0457Y-1.9291
X4.1457Y-1.9291
X4.2457Y-1.9291
X4.3457Y-1.9291
X4.4457Y-1.9291
X4.5457Y-1.9291
X4.6457Y-1.9291
X4.7717Y-2.4646
X4.7717Y-2.5646
X4.7717Y-2.6646
X4.7717Y-3.1181
X4.7717Y-3.2181
X4.7717Y-3.3181
T5
X5.0Y-1.9291
X2.4803Y-1.9291
X5.0Y-3.8583
X2.4803Y-3.8583
T2
G00X2.5407Y-2.4864
M15
G01X2.5565Y-2.4864
M16
G05
G00X2.5407Y-2.677
M15
G01X2.5565Y-2.677
M16
G05
T3
G00X2.4207Y-2.4742
M15
G01X2.4404Y-2.4742
M16
G05
G00X2.4207Y-2.6892
M15
G01X2.4404Y-2.6892
M16
G05
T0
M30
