%TF.GenerationSoftware,KiCad,Pcbnew,5.1.6-c6e7f7d~86~ubuntu18.04.1*%
%TF.CreationDate,2020-06-24T09:12:56-04:00*%
%TF.ProjectId,Toastboard,546f6173-7462-46f6-9172-642e6b696361,rev?*%
%TF.SameCoordinates,Original*%
%TF.FileFunction,Soldermask,Top*%
%TF.FilePolarity,Negative*%
%FSLAX46Y46*%
G04 Gerber Fmt 4.6, Leading zero omitted, Abs format (unit mm)*
G04 Created by KiCad (PCBNEW 5.1.6-c6e7f7d~86~ubuntu18.04.1) date 2020-06-24 09:12:56*
%MOMM*%
%LPD*%
G01*
G04 APERTURE LIST*
%ADD10R,1.800000X1.800000*%
%ADD11O,1.800000X1.800000*%
%ADD12R,2.600000X1.530000*%
%ADD13O,1.800000X1.450000*%
%ADD14O,1.600000X1.200000*%
%ADD15R,1.750000X0.500000*%
%ADD16R,1.600000X2.100000*%
%ADD17R,0.800000X1.925000*%
%ADD18R,2.100000X1.450000*%
%ADD19C,3.900000*%
%ADD20C,1.900000*%
%ADD21R,1.650000X1.400000*%
%ADD22R,1.200000X1.600000*%
%ADD23R,3.900000X2.100000*%
G04 APERTURE END LIST*
D10*
%TO.C,J1*%
X118000000Y-49000000D03*
D11*
X115460000Y-49000000D03*
X112920000Y-49000000D03*
X110380000Y-49000000D03*
X107840000Y-49000000D03*
X105300000Y-49000000D03*
X102760000Y-49000000D03*
X100220000Y-49000000D03*
X97680000Y-49000000D03*
X95140000Y-49000000D03*
X92600000Y-49000000D03*
X90060000Y-49000000D03*
X87520000Y-49000000D03*
X84980000Y-49000000D03*
X82440000Y-49000000D03*
X79900000Y-49000000D03*
X77360000Y-49000000D03*
X74820000Y-49000000D03*
X72280000Y-49000000D03*
X69740000Y-49000000D03*
%TD*%
D12*
%TO.C,J2*%
X61465000Y-66535000D03*
X61465000Y-64615000D03*
D13*
X61735000Y-68305000D03*
X61735000Y-62845000D03*
D14*
X64735000Y-67995000D03*
X64735000Y-63155000D03*
D15*
X64615000Y-66875000D03*
X64615000Y-66225000D03*
X64615000Y-65575000D03*
X64615000Y-64925000D03*
X64615000Y-64275000D03*
D16*
X64735000Y-68475000D03*
X64715000Y-62725000D03*
D17*
X63415000Y-68575000D03*
X63415000Y-62625000D03*
D18*
X62665000Y-62845000D03*
X62665000Y-68325000D03*
%TD*%
%TO.C,C1*%
G36*
G01*
X74887500Y-73450000D02*
X75412500Y-73450000D01*
G75*
G02*
X75675000Y-73712500I0J-262500D01*
G01*
X75675000Y-74337500D01*
G75*
G02*
X75412500Y-74600000I-262500J0D01*
G01*
X74887500Y-74600000D01*
G75*
G02*
X74625000Y-74337500I0J262500D01*
G01*
X74625000Y-73712500D01*
G75*
G02*
X74887500Y-73450000I262500J0D01*
G01*
G37*
G36*
G01*
X74887500Y-71700000D02*
X75412500Y-71700000D01*
G75*
G02*
X75675000Y-71962500I0J-262500D01*
G01*
X75675000Y-72587500D01*
G75*
G02*
X75412500Y-72850000I-262500J0D01*
G01*
X74887500Y-72850000D01*
G75*
G02*
X74625000Y-72587500I0J262500D01*
G01*
X74625000Y-71962500D01*
G75*
G02*
X74887500Y-71700000I262500J0D01*
G01*
G37*
%TD*%
%TO.C,C2*%
G36*
G01*
X71600000Y-71887500D02*
X71600000Y-72412500D01*
G75*
G02*
X71337500Y-72675000I-262500J0D01*
G01*
X70712500Y-72675000D01*
G75*
G02*
X70450000Y-72412500I0J262500D01*
G01*
X70450000Y-71887500D01*
G75*
G02*
X70712500Y-71625000I262500J0D01*
G01*
X71337500Y-71625000D01*
G75*
G02*
X71600000Y-71887500I0J-262500D01*
G01*
G37*
G36*
G01*
X69850000Y-71887500D02*
X69850000Y-72412500D01*
G75*
G02*
X69587500Y-72675000I-262500J0D01*
G01*
X68962500Y-72675000D01*
G75*
G02*
X68700000Y-72412500I0J262500D01*
G01*
X68700000Y-71887500D01*
G75*
G02*
X68962500Y-71625000I262500J0D01*
G01*
X69587500Y-71625000D01*
G75*
G02*
X69850000Y-71887500I0J-262500D01*
G01*
G37*
%TD*%
%TO.C,C3*%
G36*
G01*
X102587500Y-96150000D02*
X103112500Y-96150000D01*
G75*
G02*
X103375000Y-96412500I0J-262500D01*
G01*
X103375000Y-97037500D01*
G75*
G02*
X103112500Y-97300000I-262500J0D01*
G01*
X102587500Y-97300000D01*
G75*
G02*
X102325000Y-97037500I0J262500D01*
G01*
X102325000Y-96412500D01*
G75*
G02*
X102587500Y-96150000I262500J0D01*
G01*
G37*
G36*
G01*
X102587500Y-94400000D02*
X103112500Y-94400000D01*
G75*
G02*
X103375000Y-94662500I0J-262500D01*
G01*
X103375000Y-95287500D01*
G75*
G02*
X103112500Y-95550000I-262500J0D01*
G01*
X102587500Y-95550000D01*
G75*
G02*
X102325000Y-95287500I0J262500D01*
G01*
X102325000Y-94662500D01*
G75*
G02*
X102587500Y-94400000I262500J0D01*
G01*
G37*
%TD*%
%TO.C,C4*%
G36*
G01*
X92337500Y-94400000D02*
X92862500Y-94400000D01*
G75*
G02*
X93125000Y-94662500I0J-262500D01*
G01*
X93125000Y-95287500D01*
G75*
G02*
X92862500Y-95550000I-262500J0D01*
G01*
X92337500Y-95550000D01*
G75*
G02*
X92075000Y-95287500I0J262500D01*
G01*
X92075000Y-94662500D01*
G75*
G02*
X92337500Y-94400000I262500J0D01*
G01*
G37*
G36*
G01*
X92337500Y-96150000D02*
X92862500Y-96150000D01*
G75*
G02*
X93125000Y-96412500I0J-262500D01*
G01*
X93125000Y-97037500D01*
G75*
G02*
X92862500Y-97300000I-262500J0D01*
G01*
X92337500Y-97300000D01*
G75*
G02*
X92075000Y-97037500I0J262500D01*
G01*
X92075000Y-96412500D01*
G75*
G02*
X92337500Y-96150000I262500J0D01*
G01*
G37*
%TD*%
%TO.C,C5*%
G36*
G01*
X102487500Y-83150000D02*
X103012500Y-83150000D01*
G75*
G02*
X103275000Y-83412500I0J-262500D01*
G01*
X103275000Y-84037500D01*
G75*
G02*
X103012500Y-84300000I-262500J0D01*
G01*
X102487500Y-84300000D01*
G75*
G02*
X102225000Y-84037500I0J262500D01*
G01*
X102225000Y-83412500D01*
G75*
G02*
X102487500Y-83150000I262500J0D01*
G01*
G37*
G36*
G01*
X102487500Y-84900000D02*
X103012500Y-84900000D01*
G75*
G02*
X103275000Y-85162500I0J-262500D01*
G01*
X103275000Y-85787500D01*
G75*
G02*
X103012500Y-86050000I-262500J0D01*
G01*
X102487500Y-86050000D01*
G75*
G02*
X102225000Y-85787500I0J262500D01*
G01*
X102225000Y-85162500D01*
G75*
G02*
X102487500Y-84900000I262500J0D01*
G01*
G37*
%TD*%
%TO.C,C6*%
G36*
G01*
X91737500Y-84900000D02*
X92262500Y-84900000D01*
G75*
G02*
X92525000Y-85162500I0J-262500D01*
G01*
X92525000Y-85787500D01*
G75*
G02*
X92262500Y-86050000I-262500J0D01*
G01*
X91737500Y-86050000D01*
G75*
G02*
X91475000Y-85787500I0J262500D01*
G01*
X91475000Y-85162500D01*
G75*
G02*
X91737500Y-84900000I262500J0D01*
G01*
G37*
G36*
G01*
X91737500Y-83150000D02*
X92262500Y-83150000D01*
G75*
G02*
X92525000Y-83412500I0J-262500D01*
G01*
X92525000Y-84037500D01*
G75*
G02*
X92262500Y-84300000I-262500J0D01*
G01*
X91737500Y-84300000D01*
G75*
G02*
X91475000Y-84037500I0J262500D01*
G01*
X91475000Y-83412500D01*
G75*
G02*
X91737500Y-83150000I262500J0D01*
G01*
G37*
%TD*%
%TO.C,D1*%
G36*
G01*
X95112500Y-69050000D02*
X94587500Y-69050000D01*
G75*
G02*
X94325000Y-68787500I0J262500D01*
G01*
X94325000Y-68162500D01*
G75*
G02*
X94587500Y-67900000I262500J0D01*
G01*
X95112500Y-67900000D01*
G75*
G02*
X95375000Y-68162500I0J-262500D01*
G01*
X95375000Y-68787500D01*
G75*
G02*
X95112500Y-69050000I-262500J0D01*
G01*
G37*
G36*
G01*
X95112500Y-67300000D02*
X94587500Y-67300000D01*
G75*
G02*
X94325000Y-67037500I0J262500D01*
G01*
X94325000Y-66412500D01*
G75*
G02*
X94587500Y-66150000I262500J0D01*
G01*
X95112500Y-66150000D01*
G75*
G02*
X95375000Y-66412500I0J-262500D01*
G01*
X95375000Y-67037500D01*
G75*
G02*
X95112500Y-67300000I-262500J0D01*
G01*
G37*
%TD*%
%TO.C,D2*%
G36*
G01*
X68100000Y-73887500D02*
X68100000Y-74412500D01*
G75*
G02*
X67837500Y-74675000I-262500J0D01*
G01*
X67212500Y-74675000D01*
G75*
G02*
X66950000Y-74412500I0J262500D01*
G01*
X66950000Y-73887500D01*
G75*
G02*
X67212500Y-73625000I262500J0D01*
G01*
X67837500Y-73625000D01*
G75*
G02*
X68100000Y-73887500I0J-262500D01*
G01*
G37*
G36*
G01*
X66350000Y-73887500D02*
X66350000Y-74412500D01*
G75*
G02*
X66087500Y-74675000I-262500J0D01*
G01*
X65462500Y-74675000D01*
G75*
G02*
X65200000Y-74412500I0J262500D01*
G01*
X65200000Y-73887500D01*
G75*
G02*
X65462500Y-73625000I262500J0D01*
G01*
X66087500Y-73625000D01*
G75*
G02*
X66350000Y-73887500I0J-262500D01*
G01*
G37*
%TD*%
%TO.C,D3*%
G36*
G01*
X97362500Y-69050000D02*
X96837500Y-69050000D01*
G75*
G02*
X96575000Y-68787500I0J262500D01*
G01*
X96575000Y-68162500D01*
G75*
G02*
X96837500Y-67900000I262500J0D01*
G01*
X97362500Y-67900000D01*
G75*
G02*
X97625000Y-68162500I0J-262500D01*
G01*
X97625000Y-68787500D01*
G75*
G02*
X97362500Y-69050000I-262500J0D01*
G01*
G37*
G36*
G01*
X97362500Y-67300000D02*
X96837500Y-67300000D01*
G75*
G02*
X96575000Y-67037500I0J262500D01*
G01*
X96575000Y-66412500D01*
G75*
G02*
X96837500Y-66150000I262500J0D01*
G01*
X97362500Y-66150000D01*
G75*
G02*
X97625000Y-66412500I0J-262500D01*
G01*
X97625000Y-67037500D01*
G75*
G02*
X97362500Y-67300000I-262500J0D01*
G01*
G37*
%TD*%
%TO.C,D4*%
G36*
G01*
X99862500Y-69050000D02*
X99337500Y-69050000D01*
G75*
G02*
X99075000Y-68787500I0J262500D01*
G01*
X99075000Y-68162500D01*
G75*
G02*
X99337500Y-67900000I262500J0D01*
G01*
X99862500Y-67900000D01*
G75*
G02*
X100125000Y-68162500I0J-262500D01*
G01*
X100125000Y-68787500D01*
G75*
G02*
X99862500Y-69050000I-262500J0D01*
G01*
G37*
G36*
G01*
X99862500Y-67300000D02*
X99337500Y-67300000D01*
G75*
G02*
X99075000Y-67037500I0J262500D01*
G01*
X99075000Y-66412500D01*
G75*
G02*
X99337500Y-66150000I262500J0D01*
G01*
X99862500Y-66150000D01*
G75*
G02*
X100125000Y-66412500I0J-262500D01*
G01*
X100125000Y-67037500D01*
G75*
G02*
X99862500Y-67300000I-262500J0D01*
G01*
G37*
%TD*%
%TO.C,D5*%
G36*
G01*
X102112500Y-67300000D02*
X101587500Y-67300000D01*
G75*
G02*
X101325000Y-67037500I0J262500D01*
G01*
X101325000Y-66412500D01*
G75*
G02*
X101587500Y-66150000I262500J0D01*
G01*
X102112500Y-66150000D01*
G75*
G02*
X102375000Y-66412500I0J-262500D01*
G01*
X102375000Y-67037500D01*
G75*
G02*
X102112500Y-67300000I-262500J0D01*
G01*
G37*
G36*
G01*
X102112500Y-69050000D02*
X101587500Y-69050000D01*
G75*
G02*
X101325000Y-68787500I0J262500D01*
G01*
X101325000Y-68162500D01*
G75*
G02*
X101587500Y-67900000I262500J0D01*
G01*
X102112500Y-67900000D01*
G75*
G02*
X102375000Y-68162500I0J-262500D01*
G01*
X102375000Y-68787500D01*
G75*
G02*
X102112500Y-69050000I-262500J0D01*
G01*
G37*
%TD*%
%TO.C,D6*%
G36*
G01*
X76412500Y-64600000D02*
X75887500Y-64600000D01*
G75*
G02*
X75625000Y-64337500I0J262500D01*
G01*
X75625000Y-63712500D01*
G75*
G02*
X75887500Y-63450000I262500J0D01*
G01*
X76412500Y-63450000D01*
G75*
G02*
X76675000Y-63712500I0J-262500D01*
G01*
X76675000Y-64337500D01*
G75*
G02*
X76412500Y-64600000I-262500J0D01*
G01*
G37*
G36*
G01*
X76412500Y-66350000D02*
X75887500Y-66350000D01*
G75*
G02*
X75625000Y-66087500I0J262500D01*
G01*
X75625000Y-65462500D01*
G75*
G02*
X75887500Y-65200000I262500J0D01*
G01*
X76412500Y-65200000D01*
G75*
G02*
X76675000Y-65462500I0J-262500D01*
G01*
X76675000Y-66087500D01*
G75*
G02*
X76412500Y-66350000I-262500J0D01*
G01*
G37*
%TD*%
%TO.C,F1*%
G36*
G01*
X71600000Y-73887500D02*
X71600000Y-74412500D01*
G75*
G02*
X71337500Y-74675000I-262500J0D01*
G01*
X70712500Y-74675000D01*
G75*
G02*
X70450000Y-74412500I0J262500D01*
G01*
X70450000Y-73887500D01*
G75*
G02*
X70712500Y-73625000I262500J0D01*
G01*
X71337500Y-73625000D01*
G75*
G02*
X71600000Y-73887500I0J-262500D01*
G01*
G37*
G36*
G01*
X69850000Y-73887500D02*
X69850000Y-74412500D01*
G75*
G02*
X69587500Y-74675000I-262500J0D01*
G01*
X68962500Y-74675000D01*
G75*
G02*
X68700000Y-74412500I0J262500D01*
G01*
X68700000Y-73887500D01*
G75*
G02*
X68962500Y-73625000I262500J0D01*
G01*
X69587500Y-73625000D01*
G75*
G02*
X69850000Y-73887500I0J-262500D01*
G01*
G37*
%TD*%
%TO.C,FB1*%
G36*
G01*
X72671738Y-71500000D02*
X73628262Y-71500000D01*
G75*
G02*
X73900000Y-71771738I0J-271738D01*
G01*
X73900000Y-72478262D01*
G75*
G02*
X73628262Y-72750000I-271738J0D01*
G01*
X72671738Y-72750000D01*
G75*
G02*
X72400000Y-72478262I0J271738D01*
G01*
X72400000Y-71771738D01*
G75*
G02*
X72671738Y-71500000I271738J0D01*
G01*
G37*
G36*
G01*
X72671738Y-73550000D02*
X73628262Y-73550000D01*
G75*
G02*
X73900000Y-73821738I0J-271738D01*
G01*
X73900000Y-74528262D01*
G75*
G02*
X73628262Y-74800000I-271738J0D01*
G01*
X72671738Y-74800000D01*
G75*
G02*
X72400000Y-74528262I0J271738D01*
G01*
X72400000Y-73821738D01*
G75*
G02*
X72671738Y-73550000I271738J0D01*
G01*
G37*
%TD*%
D19*
%TO.C,H1*%
X63000000Y-49000000D03*
%TD*%
%TO.C,H2*%
X127000000Y-98000000D03*
%TD*%
%TO.C,H3*%
X127000000Y-49000000D03*
%TD*%
%TO.C,H4*%
X63000000Y-98000000D03*
%TD*%
%TO.C,Q1*%
G36*
G01*
X95120000Y-63850000D02*
X94770000Y-63850000D01*
G75*
G02*
X94595000Y-63675000I0J175000D01*
G01*
X94595000Y-61975000D01*
G75*
G02*
X94770000Y-61800000I175000J0D01*
G01*
X95120000Y-61800000D01*
G75*
G02*
X95295000Y-61975000I0J-175000D01*
G01*
X95295000Y-63675000D01*
G75*
G02*
X95120000Y-63850000I-175000J0D01*
G01*
G37*
G36*
G01*
X96390000Y-63850000D02*
X96040000Y-63850000D01*
G75*
G02*
X95865000Y-63675000I0J175000D01*
G01*
X95865000Y-61975000D01*
G75*
G02*
X96040000Y-61800000I175000J0D01*
G01*
X96390000Y-61800000D01*
G75*
G02*
X96565000Y-61975000I0J-175000D01*
G01*
X96565000Y-63675000D01*
G75*
G02*
X96390000Y-63850000I-175000J0D01*
G01*
G37*
G36*
G01*
X97660000Y-63850000D02*
X97310000Y-63850000D01*
G75*
G02*
X97135000Y-63675000I0J175000D01*
G01*
X97135000Y-61975000D01*
G75*
G02*
X97310000Y-61800000I175000J0D01*
G01*
X97660000Y-61800000D01*
G75*
G02*
X97835000Y-61975000I0J-175000D01*
G01*
X97835000Y-63675000D01*
G75*
G02*
X97660000Y-63850000I-175000J0D01*
G01*
G37*
G36*
G01*
X98930000Y-63850000D02*
X98580000Y-63850000D01*
G75*
G02*
X98405000Y-63675000I0J175000D01*
G01*
X98405000Y-61975000D01*
G75*
G02*
X98580000Y-61800000I175000J0D01*
G01*
X98930000Y-61800000D01*
G75*
G02*
X99105000Y-61975000I0J-175000D01*
G01*
X99105000Y-63675000D01*
G75*
G02*
X98930000Y-63850000I-175000J0D01*
G01*
G37*
G36*
G01*
X98930000Y-58900000D02*
X98580000Y-58900000D01*
G75*
G02*
X98405000Y-58725000I0J175000D01*
G01*
X98405000Y-57025000D01*
G75*
G02*
X98580000Y-56850000I175000J0D01*
G01*
X98930000Y-56850000D01*
G75*
G02*
X99105000Y-57025000I0J-175000D01*
G01*
X99105000Y-58725000D01*
G75*
G02*
X98930000Y-58900000I-175000J0D01*
G01*
G37*
G36*
G01*
X97660000Y-58900000D02*
X97310000Y-58900000D01*
G75*
G02*
X97135000Y-58725000I0J175000D01*
G01*
X97135000Y-57025000D01*
G75*
G02*
X97310000Y-56850000I175000J0D01*
G01*
X97660000Y-56850000D01*
G75*
G02*
X97835000Y-57025000I0J-175000D01*
G01*
X97835000Y-58725000D01*
G75*
G02*
X97660000Y-58900000I-175000J0D01*
G01*
G37*
G36*
G01*
X96390000Y-58900000D02*
X96040000Y-58900000D01*
G75*
G02*
X95865000Y-58725000I0J175000D01*
G01*
X95865000Y-57025000D01*
G75*
G02*
X96040000Y-56850000I175000J0D01*
G01*
X96390000Y-56850000D01*
G75*
G02*
X96565000Y-57025000I0J-175000D01*
G01*
X96565000Y-58725000D01*
G75*
G02*
X96390000Y-58900000I-175000J0D01*
G01*
G37*
G36*
G01*
X95120000Y-58900000D02*
X94770000Y-58900000D01*
G75*
G02*
X94595000Y-58725000I0J175000D01*
G01*
X94595000Y-57025000D01*
G75*
G02*
X94770000Y-56850000I175000J0D01*
G01*
X95120000Y-56850000D01*
G75*
G02*
X95295000Y-57025000I0J-175000D01*
G01*
X95295000Y-58725000D01*
G75*
G02*
X95120000Y-58900000I-175000J0D01*
G01*
G37*
%TD*%
%TO.C,R1*%
G36*
G01*
X94587500Y-69900000D02*
X95112500Y-69900000D01*
G75*
G02*
X95375000Y-70162500I0J-262500D01*
G01*
X95375000Y-70787500D01*
G75*
G02*
X95112500Y-71050000I-262500J0D01*
G01*
X94587500Y-71050000D01*
G75*
G02*
X94325000Y-70787500I0J262500D01*
G01*
X94325000Y-70162500D01*
G75*
G02*
X94587500Y-69900000I262500J0D01*
G01*
G37*
G36*
G01*
X94587500Y-71650000D02*
X95112500Y-71650000D01*
G75*
G02*
X95375000Y-71912500I0J-262500D01*
G01*
X95375000Y-72537500D01*
G75*
G02*
X95112500Y-72800000I-262500J0D01*
G01*
X94587500Y-72800000D01*
G75*
G02*
X94325000Y-72537500I0J262500D01*
G01*
X94325000Y-71912500D01*
G75*
G02*
X94587500Y-71650000I262500J0D01*
G01*
G37*
%TD*%
%TO.C,R2*%
G36*
G01*
X96837500Y-69900000D02*
X97362500Y-69900000D01*
G75*
G02*
X97625000Y-70162500I0J-262500D01*
G01*
X97625000Y-70787500D01*
G75*
G02*
X97362500Y-71050000I-262500J0D01*
G01*
X96837500Y-71050000D01*
G75*
G02*
X96575000Y-70787500I0J262500D01*
G01*
X96575000Y-70162500D01*
G75*
G02*
X96837500Y-69900000I262500J0D01*
G01*
G37*
G36*
G01*
X96837500Y-71650000D02*
X97362500Y-71650000D01*
G75*
G02*
X97625000Y-71912500I0J-262500D01*
G01*
X97625000Y-72537500D01*
G75*
G02*
X97362500Y-72800000I-262500J0D01*
G01*
X96837500Y-72800000D01*
G75*
G02*
X96575000Y-72537500I0J262500D01*
G01*
X96575000Y-71912500D01*
G75*
G02*
X96837500Y-71650000I262500J0D01*
G01*
G37*
%TD*%
%TO.C,R3*%
G36*
G01*
X99337500Y-69900000D02*
X99862500Y-69900000D01*
G75*
G02*
X100125000Y-70162500I0J-262500D01*
G01*
X100125000Y-70787500D01*
G75*
G02*
X99862500Y-71050000I-262500J0D01*
G01*
X99337500Y-71050000D01*
G75*
G02*
X99075000Y-70787500I0J262500D01*
G01*
X99075000Y-70162500D01*
G75*
G02*
X99337500Y-69900000I262500J0D01*
G01*
G37*
G36*
G01*
X99337500Y-71650000D02*
X99862500Y-71650000D01*
G75*
G02*
X100125000Y-71912500I0J-262500D01*
G01*
X100125000Y-72537500D01*
G75*
G02*
X99862500Y-72800000I-262500J0D01*
G01*
X99337500Y-72800000D01*
G75*
G02*
X99075000Y-72537500I0J262500D01*
G01*
X99075000Y-71912500D01*
G75*
G02*
X99337500Y-71650000I262500J0D01*
G01*
G37*
%TD*%
%TO.C,R4*%
G36*
G01*
X101582499Y-71650000D02*
X102107499Y-71650000D01*
G75*
G02*
X102369999Y-71912500I0J-262500D01*
G01*
X102369999Y-72537500D01*
G75*
G02*
X102107499Y-72800000I-262500J0D01*
G01*
X101582499Y-72800000D01*
G75*
G02*
X101319999Y-72537500I0J262500D01*
G01*
X101319999Y-71912500D01*
G75*
G02*
X101582499Y-71650000I262500J0D01*
G01*
G37*
G36*
G01*
X101582499Y-69900000D02*
X102107499Y-69900000D01*
G75*
G02*
X102369999Y-70162500I0J-262500D01*
G01*
X102369999Y-70787500D01*
G75*
G02*
X102107499Y-71050000I-262500J0D01*
G01*
X101582499Y-71050000D01*
G75*
G02*
X101319999Y-70787500I0J262500D01*
G01*
X101319999Y-70162500D01*
G75*
G02*
X101582499Y-69900000I262500J0D01*
G01*
G37*
%TD*%
%TO.C,R5*%
G36*
G01*
X74250000Y-58662500D02*
X74250000Y-58137500D01*
G75*
G02*
X74512500Y-57875000I262500J0D01*
G01*
X75137500Y-57875000D01*
G75*
G02*
X75400000Y-58137500I0J-262500D01*
G01*
X75400000Y-58662500D01*
G75*
G02*
X75137500Y-58925000I-262500J0D01*
G01*
X74512500Y-58925000D01*
G75*
G02*
X74250000Y-58662500I0J262500D01*
G01*
G37*
G36*
G01*
X76000000Y-58662500D02*
X76000000Y-58137500D01*
G75*
G02*
X76262500Y-57875000I262500J0D01*
G01*
X76887500Y-57875000D01*
G75*
G02*
X77150000Y-58137500I0J-262500D01*
G01*
X77150000Y-58662500D01*
G75*
G02*
X76887500Y-58925000I-262500J0D01*
G01*
X76262500Y-58925000D01*
G75*
G02*
X76000000Y-58662500I0J262500D01*
G01*
G37*
%TD*%
%TO.C,R6*%
G36*
G01*
X76000000Y-56662500D02*
X76000000Y-56137500D01*
G75*
G02*
X76262500Y-55875000I262500J0D01*
G01*
X76887500Y-55875000D01*
G75*
G02*
X77150000Y-56137500I0J-262500D01*
G01*
X77150000Y-56662500D01*
G75*
G02*
X76887500Y-56925000I-262500J0D01*
G01*
X76262500Y-56925000D01*
G75*
G02*
X76000000Y-56662500I0J262500D01*
G01*
G37*
G36*
G01*
X74250000Y-56662500D02*
X74250000Y-56137500D01*
G75*
G02*
X74512500Y-55875000I262500J0D01*
G01*
X75137500Y-55875000D01*
G75*
G02*
X75400000Y-56137500I0J-262500D01*
G01*
X75400000Y-56662500D01*
G75*
G02*
X75137500Y-56925000I-262500J0D01*
G01*
X74512500Y-56925000D01*
G75*
G02*
X74250000Y-56662500I0J262500D01*
G01*
G37*
%TD*%
%TO.C,R7*%
G36*
G01*
X75887500Y-67200000D02*
X76412500Y-67200000D01*
G75*
G02*
X76675000Y-67462500I0J-262500D01*
G01*
X76675000Y-68087500D01*
G75*
G02*
X76412500Y-68350000I-262500J0D01*
G01*
X75887500Y-68350000D01*
G75*
G02*
X75625000Y-68087500I0J262500D01*
G01*
X75625000Y-67462500D01*
G75*
G02*
X75887500Y-67200000I262500J0D01*
G01*
G37*
G36*
G01*
X75887500Y-68950000D02*
X76412500Y-68950000D01*
G75*
G02*
X76675000Y-69212500I0J-262500D01*
G01*
X76675000Y-69837500D01*
G75*
G02*
X76412500Y-70100000I-262500J0D01*
G01*
X75887500Y-70100000D01*
G75*
G02*
X75625000Y-69837500I0J262500D01*
G01*
X75625000Y-69212500D01*
G75*
G02*
X75887500Y-68950000I262500J0D01*
G01*
G37*
%TD*%
%TO.C,R8*%
G36*
G01*
X100587500Y-96150000D02*
X101112500Y-96150000D01*
G75*
G02*
X101375000Y-96412500I0J-262500D01*
G01*
X101375000Y-97037500D01*
G75*
G02*
X101112500Y-97300000I-262500J0D01*
G01*
X100587500Y-97300000D01*
G75*
G02*
X100325000Y-97037500I0J262500D01*
G01*
X100325000Y-96412500D01*
G75*
G02*
X100587500Y-96150000I262500J0D01*
G01*
G37*
G36*
G01*
X100587500Y-94400000D02*
X101112500Y-94400000D01*
G75*
G02*
X101375000Y-94662500I0J-262500D01*
G01*
X101375000Y-95287500D01*
G75*
G02*
X101112500Y-95550000I-262500J0D01*
G01*
X100587500Y-95550000D01*
G75*
G02*
X100325000Y-95287500I0J262500D01*
G01*
X100325000Y-94662500D01*
G75*
G02*
X100587500Y-94400000I262500J0D01*
G01*
G37*
%TD*%
%TO.C,R9*%
G36*
G01*
X90337500Y-94400000D02*
X90862500Y-94400000D01*
G75*
G02*
X91125000Y-94662500I0J-262500D01*
G01*
X91125000Y-95287500D01*
G75*
G02*
X90862500Y-95550000I-262500J0D01*
G01*
X90337500Y-95550000D01*
G75*
G02*
X90075000Y-95287500I0J262500D01*
G01*
X90075000Y-94662500D01*
G75*
G02*
X90337500Y-94400000I262500J0D01*
G01*
G37*
G36*
G01*
X90337500Y-96150000D02*
X90862500Y-96150000D01*
G75*
G02*
X91125000Y-96412500I0J-262500D01*
G01*
X91125000Y-97037500D01*
G75*
G02*
X90862500Y-97300000I-262500J0D01*
G01*
X90337500Y-97300000D01*
G75*
G02*
X90075000Y-97037500I0J262500D01*
G01*
X90075000Y-96412500D01*
G75*
G02*
X90337500Y-96150000I262500J0D01*
G01*
G37*
%TD*%
%TO.C,R10*%
G36*
G01*
X100737500Y-84900000D02*
X101262500Y-84900000D01*
G75*
G02*
X101525000Y-85162500I0J-262500D01*
G01*
X101525000Y-85787500D01*
G75*
G02*
X101262500Y-86050000I-262500J0D01*
G01*
X100737500Y-86050000D01*
G75*
G02*
X100475000Y-85787500I0J262500D01*
G01*
X100475000Y-85162500D01*
G75*
G02*
X100737500Y-84900000I262500J0D01*
G01*
G37*
G36*
G01*
X100737500Y-83150000D02*
X101262500Y-83150000D01*
G75*
G02*
X101525000Y-83412500I0J-262500D01*
G01*
X101525000Y-84037500D01*
G75*
G02*
X101262500Y-84300000I-262500J0D01*
G01*
X100737500Y-84300000D01*
G75*
G02*
X100475000Y-84037500I0J262500D01*
G01*
X100475000Y-83412500D01*
G75*
G02*
X100737500Y-83150000I262500J0D01*
G01*
G37*
%TD*%
%TO.C,R11*%
G36*
G01*
X76412500Y-80100000D02*
X75887500Y-80100000D01*
G75*
G02*
X75625000Y-79837500I0J262500D01*
G01*
X75625000Y-79212500D01*
G75*
G02*
X75887500Y-78950000I262500J0D01*
G01*
X76412500Y-78950000D01*
G75*
G02*
X76675000Y-79212500I0J-262500D01*
G01*
X76675000Y-79837500D01*
G75*
G02*
X76412500Y-80100000I-262500J0D01*
G01*
G37*
G36*
G01*
X76412500Y-81850000D02*
X75887500Y-81850000D01*
G75*
G02*
X75625000Y-81587500I0J262500D01*
G01*
X75625000Y-80962500D01*
G75*
G02*
X75887500Y-80700000I262500J0D01*
G01*
X76412500Y-80700000D01*
G75*
G02*
X76675000Y-80962500I0J-262500D01*
G01*
X76675000Y-81587500D01*
G75*
G02*
X76412500Y-81850000I-262500J0D01*
G01*
G37*
%TD*%
%TO.C,R12*%
G36*
G01*
X73912500Y-80100000D02*
X73387500Y-80100000D01*
G75*
G02*
X73125000Y-79837500I0J262500D01*
G01*
X73125000Y-79212500D01*
G75*
G02*
X73387500Y-78950000I262500J0D01*
G01*
X73912500Y-78950000D01*
G75*
G02*
X74175000Y-79212500I0J-262500D01*
G01*
X74175000Y-79837500D01*
G75*
G02*
X73912500Y-80100000I-262500J0D01*
G01*
G37*
G36*
G01*
X73912500Y-81850000D02*
X73387500Y-81850000D01*
G75*
G02*
X73125000Y-81587500I0J262500D01*
G01*
X73125000Y-80962500D01*
G75*
G02*
X73387500Y-80700000I262500J0D01*
G01*
X73912500Y-80700000D01*
G75*
G02*
X74175000Y-80962500I0J-262500D01*
G01*
X74175000Y-81587500D01*
G75*
G02*
X73912500Y-81850000I-262500J0D01*
G01*
G37*
%TD*%
%TO.C,R13*%
G36*
G01*
X71412500Y-81850000D02*
X70887500Y-81850000D01*
G75*
G02*
X70625000Y-81587500I0J262500D01*
G01*
X70625000Y-80962500D01*
G75*
G02*
X70887500Y-80700000I262500J0D01*
G01*
X71412500Y-80700000D01*
G75*
G02*
X71675000Y-80962500I0J-262500D01*
G01*
X71675000Y-81587500D01*
G75*
G02*
X71412500Y-81850000I-262500J0D01*
G01*
G37*
G36*
G01*
X71412500Y-80100000D02*
X70887500Y-80100000D01*
G75*
G02*
X70625000Y-79837500I0J262500D01*
G01*
X70625000Y-79212500D01*
G75*
G02*
X70887500Y-78950000I262500J0D01*
G01*
X71412500Y-78950000D01*
G75*
G02*
X71675000Y-79212500I0J-262500D01*
G01*
X71675000Y-79837500D01*
G75*
G02*
X71412500Y-80100000I-262500J0D01*
G01*
G37*
%TD*%
%TO.C,R14*%
G36*
G01*
X89987500Y-83150000D02*
X90512500Y-83150000D01*
G75*
G02*
X90775000Y-83412500I0J-262500D01*
G01*
X90775000Y-84037500D01*
G75*
G02*
X90512500Y-84300000I-262500J0D01*
G01*
X89987500Y-84300000D01*
G75*
G02*
X89725000Y-84037500I0J262500D01*
G01*
X89725000Y-83412500D01*
G75*
G02*
X89987500Y-83150000I262500J0D01*
G01*
G37*
G36*
G01*
X89987500Y-84900000D02*
X90512500Y-84900000D01*
G75*
G02*
X90775000Y-85162500I0J-262500D01*
G01*
X90775000Y-85787500D01*
G75*
G02*
X90512500Y-86050000I-262500J0D01*
G01*
X89987500Y-86050000D01*
G75*
G02*
X89725000Y-85787500I0J262500D01*
G01*
X89725000Y-85162500D01*
G75*
G02*
X89987500Y-84900000I262500J0D01*
G01*
G37*
%TD*%
%TO.C,R15*%
G36*
G01*
X68912500Y-80100000D02*
X68387500Y-80100000D01*
G75*
G02*
X68125000Y-79837500I0J262500D01*
G01*
X68125000Y-79212500D01*
G75*
G02*
X68387500Y-78950000I262500J0D01*
G01*
X68912500Y-78950000D01*
G75*
G02*
X69175000Y-79212500I0J-262500D01*
G01*
X69175000Y-79837500D01*
G75*
G02*
X68912500Y-80100000I-262500J0D01*
G01*
G37*
G36*
G01*
X68912500Y-81850000D02*
X68387500Y-81850000D01*
G75*
G02*
X68125000Y-81587500I0J262500D01*
G01*
X68125000Y-80962500D01*
G75*
G02*
X68387500Y-80700000I262500J0D01*
G01*
X68912500Y-80700000D01*
G75*
G02*
X69175000Y-80962500I0J-262500D01*
G01*
X69175000Y-81587500D01*
G75*
G02*
X68912500Y-81850000I-262500J0D01*
G01*
G37*
%TD*%
D20*
%TO.C,RV1*%
X121200000Y-62600000D03*
X121200000Y-65140000D03*
X121200000Y-67680000D03*
%TD*%
%TO.C,RV2*%
X121200000Y-84280000D03*
X121200000Y-81740000D03*
X121200000Y-79200000D03*
%TD*%
D21*
%TO.C,BTN_0*%
X94550001Y-92740001D03*
X94550001Y-88240001D03*
X102500001Y-88240001D03*
X102500001Y-92740001D03*
%TD*%
%TO.C,BTN_1*%
X91450001Y-92740001D03*
X91450001Y-88240001D03*
X83500001Y-88240001D03*
X83500001Y-92740001D03*
%TD*%
%TO.C,BTN_2*%
X94525000Y-81350000D03*
X94525000Y-76850000D03*
X102475000Y-76850000D03*
X102475000Y-81350000D03*
%TD*%
%TO.C,BTN_3*%
X91725000Y-81350000D03*
X91725000Y-76850000D03*
X83775000Y-76850000D03*
X83775000Y-81350000D03*
%TD*%
D22*
%TO.C,SW5*%
X76210000Y-85200000D03*
X68590000Y-94100000D03*
X73670000Y-85200000D03*
X71130000Y-94100000D03*
X71130000Y-85200000D03*
X73670000Y-94100000D03*
X68590000Y-85200000D03*
X76210000Y-94100000D03*
%TD*%
%TO.C,U1*%
G36*
G01*
X80150000Y-60730000D02*
X80150000Y-61080000D01*
G75*
G02*
X79975000Y-61255000I-175000J0D01*
G01*
X78475000Y-61255000D01*
G75*
G02*
X78300000Y-61080000I0J175000D01*
G01*
X78300000Y-60730000D01*
G75*
G02*
X78475000Y-60555000I175000J0D01*
G01*
X79975000Y-60555000D01*
G75*
G02*
X80150000Y-60730000I0J-175000D01*
G01*
G37*
G36*
G01*
X80150000Y-59460000D02*
X80150000Y-59810000D01*
G75*
G02*
X79975000Y-59985000I-175000J0D01*
G01*
X78475000Y-59985000D01*
G75*
G02*
X78300000Y-59810000I0J175000D01*
G01*
X78300000Y-59460000D01*
G75*
G02*
X78475000Y-59285000I175000J0D01*
G01*
X79975000Y-59285000D01*
G75*
G02*
X80150000Y-59460000I0J-175000D01*
G01*
G37*
G36*
G01*
X80150000Y-58190000D02*
X80150000Y-58540000D01*
G75*
G02*
X79975000Y-58715000I-175000J0D01*
G01*
X78475000Y-58715000D01*
G75*
G02*
X78300000Y-58540000I0J175000D01*
G01*
X78300000Y-58190000D01*
G75*
G02*
X78475000Y-58015000I175000J0D01*
G01*
X79975000Y-58015000D01*
G75*
G02*
X80150000Y-58190000I0J-175000D01*
G01*
G37*
G36*
G01*
X80150000Y-56920000D02*
X80150000Y-57270000D01*
G75*
G02*
X79975000Y-57445000I-175000J0D01*
G01*
X78475000Y-57445000D01*
G75*
G02*
X78300000Y-57270000I0J175000D01*
G01*
X78300000Y-56920000D01*
G75*
G02*
X78475000Y-56745000I175000J0D01*
G01*
X79975000Y-56745000D01*
G75*
G02*
X80150000Y-56920000I0J-175000D01*
G01*
G37*
G36*
G01*
X85300000Y-56920000D02*
X85300000Y-57270000D01*
G75*
G02*
X85125000Y-57445000I-175000J0D01*
G01*
X83625000Y-57445000D01*
G75*
G02*
X83450000Y-57270000I0J175000D01*
G01*
X83450000Y-56920000D01*
G75*
G02*
X83625000Y-56745000I175000J0D01*
G01*
X85125000Y-56745000D01*
G75*
G02*
X85300000Y-56920000I0J-175000D01*
G01*
G37*
G36*
G01*
X85300000Y-58190000D02*
X85300000Y-58540000D01*
G75*
G02*
X85125000Y-58715000I-175000J0D01*
G01*
X83625000Y-58715000D01*
G75*
G02*
X83450000Y-58540000I0J175000D01*
G01*
X83450000Y-58190000D01*
G75*
G02*
X83625000Y-58015000I175000J0D01*
G01*
X85125000Y-58015000D01*
G75*
G02*
X85300000Y-58190000I0J-175000D01*
G01*
G37*
G36*
G01*
X85300000Y-59460000D02*
X85300000Y-59810000D01*
G75*
G02*
X85125000Y-59985000I-175000J0D01*
G01*
X83625000Y-59985000D01*
G75*
G02*
X83450000Y-59810000I0J175000D01*
G01*
X83450000Y-59460000D01*
G75*
G02*
X83625000Y-59285000I175000J0D01*
G01*
X85125000Y-59285000D01*
G75*
G02*
X85300000Y-59460000I0J-175000D01*
G01*
G37*
G36*
G01*
X85300000Y-60730000D02*
X85300000Y-61080000D01*
G75*
G02*
X85125000Y-61255000I-175000J0D01*
G01*
X83625000Y-61255000D01*
G75*
G02*
X83450000Y-61080000I0J175000D01*
G01*
X83450000Y-60730000D01*
G75*
G02*
X83625000Y-60555000I175000J0D01*
G01*
X85125000Y-60555000D01*
G75*
G02*
X85300000Y-60730000I0J-175000D01*
G01*
G37*
%TD*%
%TO.C,U2*%
G36*
G01*
X78375000Y-64425000D02*
X78375000Y-64075000D01*
G75*
G02*
X78550000Y-63900000I175000J0D01*
G01*
X80050000Y-63900000D01*
G75*
G02*
X80225000Y-64075000I0J-175000D01*
G01*
X80225000Y-64425000D01*
G75*
G02*
X80050000Y-64600000I-175000J0D01*
G01*
X78550000Y-64600000D01*
G75*
G02*
X78375000Y-64425000I0J175000D01*
G01*
G37*
G36*
G01*
X78375000Y-65695000D02*
X78375000Y-65345000D01*
G75*
G02*
X78550000Y-65170000I175000J0D01*
G01*
X80050000Y-65170000D01*
G75*
G02*
X80225000Y-65345000I0J-175000D01*
G01*
X80225000Y-65695000D01*
G75*
G02*
X80050000Y-65870000I-175000J0D01*
G01*
X78550000Y-65870000D01*
G75*
G02*
X78375000Y-65695000I0J175000D01*
G01*
G37*
G36*
G01*
X78375000Y-66965000D02*
X78375000Y-66615000D01*
G75*
G02*
X78550000Y-66440000I175000J0D01*
G01*
X80050000Y-66440000D01*
G75*
G02*
X80225000Y-66615000I0J-175000D01*
G01*
X80225000Y-66965000D01*
G75*
G02*
X80050000Y-67140000I-175000J0D01*
G01*
X78550000Y-67140000D01*
G75*
G02*
X78375000Y-66965000I0J175000D01*
G01*
G37*
G36*
G01*
X78375000Y-68235000D02*
X78375000Y-67885000D01*
G75*
G02*
X78550000Y-67710000I175000J0D01*
G01*
X80050000Y-67710000D01*
G75*
G02*
X80225000Y-67885000I0J-175000D01*
G01*
X80225000Y-68235000D01*
G75*
G02*
X80050000Y-68410000I-175000J0D01*
G01*
X78550000Y-68410000D01*
G75*
G02*
X78375000Y-68235000I0J175000D01*
G01*
G37*
G36*
G01*
X83525000Y-68235000D02*
X83525000Y-67885000D01*
G75*
G02*
X83700000Y-67710000I175000J0D01*
G01*
X85200000Y-67710000D01*
G75*
G02*
X85375000Y-67885000I0J-175000D01*
G01*
X85375000Y-68235000D01*
G75*
G02*
X85200000Y-68410000I-175000J0D01*
G01*
X83700000Y-68410000D01*
G75*
G02*
X83525000Y-68235000I0J175000D01*
G01*
G37*
G36*
G01*
X83525000Y-66965000D02*
X83525000Y-66615000D01*
G75*
G02*
X83700000Y-66440000I175000J0D01*
G01*
X85200000Y-66440000D01*
G75*
G02*
X85375000Y-66615000I0J-175000D01*
G01*
X85375000Y-66965000D01*
G75*
G02*
X85200000Y-67140000I-175000J0D01*
G01*
X83700000Y-67140000D01*
G75*
G02*
X83525000Y-66965000I0J175000D01*
G01*
G37*
G36*
G01*
X83525000Y-65695000D02*
X83525000Y-65345000D01*
G75*
G02*
X83700000Y-65170000I175000J0D01*
G01*
X85200000Y-65170000D01*
G75*
G02*
X85375000Y-65345000I0J-175000D01*
G01*
X85375000Y-65695000D01*
G75*
G02*
X85200000Y-65870000I-175000J0D01*
G01*
X83700000Y-65870000D01*
G75*
G02*
X83525000Y-65695000I0J175000D01*
G01*
G37*
G36*
G01*
X83525000Y-64425000D02*
X83525000Y-64075000D01*
G75*
G02*
X83700000Y-63900000I175000J0D01*
G01*
X85200000Y-63900000D01*
G75*
G02*
X85375000Y-64075000I0J-175000D01*
G01*
X85375000Y-64425000D01*
G75*
G02*
X85200000Y-64600000I-175000J0D01*
G01*
X83700000Y-64600000D01*
G75*
G02*
X83525000Y-64425000I0J175000D01*
G01*
G37*
%TD*%
D23*
%TO.C,U3*%
X71150000Y-63500000D03*
D16*
X71150000Y-69800000D03*
X73450000Y-69800000D03*
X68850000Y-69800000D03*
%TD*%
M02*
