%TF.GenerationSoftware,KiCad,Pcbnew,5.1.6-c6e7f7d~86~ubuntu18.04.1*%
%TF.CreationDate,2020-06-24T13:55:19-04:00*%
%TF.ProjectId,Toastboard,546f6173-7462-46f6-9172-642e6b696361,rev?*%
%TF.SameCoordinates,Original*%
%TF.FileFunction,Copper,L2,Bot*%
%TF.FilePolarity,Positive*%
%FSLAX46Y46*%
G04 Gerber Fmt 4.6, Leading zero omitted, Abs format (unit mm)*
G04 Created by KiCad (PCBNEW 5.1.6-c6e7f7d~86~ubuntu18.04.1) date 2020-06-24 13:55:19*
%MOMM*%
%LPD*%
G01*
G04 APERTURE LIST*
%TA.AperFunction,ComponentPad*%
%ADD10R,1.700000X1.700000*%
%TD*%
%TA.AperFunction,ComponentPad*%
%ADD11O,1.700000X1.700000*%
%TD*%
%TA.AperFunction,ComponentPad*%
%ADD12O,1.700000X1.350000*%
%TD*%
%TA.AperFunction,ComponentPad*%
%ADD13O,1.500000X1.100000*%
%TD*%
%TA.AperFunction,ComponentPad*%
%ADD14C,3.800000*%
%TD*%
%TA.AperFunction,ComponentPad*%
%ADD15C,1.800000*%
%TD*%
%TA.AperFunction,ViaPad*%
%ADD16C,0.800000*%
%TD*%
%TA.AperFunction,ViaPad*%
%ADD17C,1.000000*%
%TD*%
%TA.AperFunction,Conductor*%
%ADD18C,1.000000*%
%TD*%
%TA.AperFunction,Conductor*%
%ADD19C,0.254000*%
%TD*%
G04 APERTURE END LIST*
D10*
%TO.P,J1,1*%
%TO.N,GND*%
X118000000Y-49000000D03*
D11*
%TO.P,J1,2*%
%TO.N,/POT_1*%
X115460000Y-49000000D03*
%TO.P,J1,3*%
%TO.N,/POT_2*%
X112920000Y-49000000D03*
%TO.P,J1,4*%
%TO.N,/LED_0*%
X110380000Y-49000000D03*
%TO.P,J1,5*%
%TO.N,/LED_1*%
X107840000Y-49000000D03*
%TO.P,J1,6*%
%TO.N,/LED_2*%
X105300000Y-49000000D03*
%TO.P,J1,7*%
%TO.N,/LED_3*%
X102760000Y-49000000D03*
%TO.P,J1,8*%
%TO.N,/BTN_0*%
X100220000Y-49000000D03*
%TO.P,J1,9*%
%TO.N,/BTN_1*%
X97680000Y-49000000D03*
%TO.P,J1,10*%
%TO.N,/BTN_2*%
X95140000Y-49000000D03*
%TO.P,J1,11*%
%TO.N,/BTN_3*%
X92600000Y-49000000D03*
%TO.P,J1,12*%
%TO.N,/SW_0*%
X90060000Y-49000000D03*
%TO.P,J1,13*%
%TO.N,/SW_1*%
X87520000Y-49000000D03*
%TO.P,J1,14*%
%TO.N,/SW_2*%
X84980000Y-49000000D03*
%TO.P,J1,15*%
%TO.N,/SW_3*%
X82440000Y-49000000D03*
%TO.P,J1,16*%
%TO.N,/SCL*%
X79900000Y-49000000D03*
%TO.P,J1,17*%
%TO.N,/SDA*%
X77360000Y-49000000D03*
%TO.P,J1,18*%
%TO.N,+3V3*%
X74820000Y-49000000D03*
%TO.P,J1,19*%
%TO.N,+5V*%
X72280000Y-49000000D03*
%TO.P,J1,20*%
%TO.N,GND*%
X69740000Y-49000000D03*
%TD*%
D12*
%TO.P,MICRO,6*%
%TO.N,GND*%
X61735000Y-68305000D03*
X61735000Y-62845000D03*
D13*
X64735000Y-67995000D03*
X64735000Y-63155000D03*
%TD*%
D14*
%TO.P,H1,1*%
%TO.N,GND*%
X63000000Y-49000000D03*
%TD*%
%TO.P,H2,1*%
%TO.N,GND*%
X127000000Y-98000000D03*
%TD*%
%TO.P,H3,1*%
%TO.N,GND*%
X127000000Y-49000000D03*
%TD*%
%TO.P,H4,1*%
%TO.N,GND*%
X63000000Y-98000000D03*
%TD*%
D15*
%TO.P,RV1,1*%
%TO.N,+3V3*%
X121200000Y-62600000D03*
%TO.P,RV1,2*%
%TO.N,/POT_1*%
X121200000Y-65140000D03*
%TO.P,RV1,3*%
%TO.N,GND*%
X121200000Y-67680000D03*
%TD*%
%TO.P,RV2,3*%
%TO.N,GND*%
X121200000Y-84280000D03*
%TO.P,RV2,2*%
%TO.N,/POT_2*%
X121200000Y-81740000D03*
%TO.P,RV2,1*%
%TO.N,+3V3*%
X121200000Y-79200000D03*
%TD*%
D16*
%TO.N,GND*%
X77400000Y-60000000D03*
X76400000Y-77900000D03*
X73800000Y-78000000D03*
X71300000Y-78000000D03*
X68800000Y-78000000D03*
X76800000Y-73400000D03*
X77700000Y-70100000D03*
X67800000Y-72400000D03*
X86300000Y-57200000D03*
X95100000Y-73600000D03*
X97200000Y-73500000D03*
X99700000Y-73500000D03*
X102000000Y-73500000D03*
X101200000Y-86700000D03*
X102800000Y-86700000D03*
X101100000Y-98100000D03*
X102900000Y-98100000D03*
X92400000Y-98000000D03*
X90400000Y-98000000D03*
X88700000Y-86100000D03*
X93400000Y-86200000D03*
X82300000Y-62400000D03*
X86300000Y-59500000D03*
X86200000Y-58400000D03*
D17*
X67800000Y-71400000D03*
X68300000Y-67800000D03*
X69800000Y-67800000D03*
D16*
X77500000Y-68300000D03*
D17*
%TO.N,+3V3*%
X83600000Y-70500000D03*
X85100000Y-70500000D03*
X92900000Y-58300000D03*
X92900000Y-59900000D03*
%TD*%
D18*
%TO.N,+3V3*%
X92900000Y-62800001D02*
X85200001Y-70500000D01*
X92900000Y-58300000D02*
X92900000Y-59500000D01*
X85200001Y-70500000D02*
X85100000Y-70500000D01*
X92900000Y-59500000D02*
X92900000Y-59900000D01*
X83600000Y-70500000D02*
X83600000Y-70500000D01*
X85100000Y-70500000D02*
X83600000Y-70500000D01*
X92900000Y-59900000D02*
X92900000Y-62800001D01*
%TD*%
D19*
%TO.N,GND*%
G36*
X125607362Y-46867133D02*
G01*
X125403256Y-47223651D01*
X127000000Y-48820395D01*
X127014143Y-48806253D01*
X127193748Y-48985858D01*
X127179605Y-49000000D01*
X128776349Y-50596744D01*
X129132867Y-50392638D01*
X129340000Y-49995031D01*
X129340001Y-96994881D01*
X129132867Y-96607362D01*
X128776349Y-96403256D01*
X127179605Y-98000000D01*
X127193748Y-98014143D01*
X127014143Y-98193748D01*
X127000000Y-98179605D01*
X125403256Y-99776349D01*
X125607362Y-100132867D01*
X126004969Y-100340000D01*
X64005121Y-100340000D01*
X64392638Y-100132867D01*
X64596744Y-99776349D01*
X63000000Y-98179605D01*
X62985858Y-98193748D01*
X62806253Y-98014143D01*
X62820395Y-98000000D01*
X63179605Y-98000000D01*
X64776349Y-99596744D01*
X65132867Y-99392638D01*
X65363575Y-98949777D01*
X65503452Y-98470417D01*
X65542378Y-98027021D01*
X124452877Y-98027021D01*
X124507091Y-98523422D01*
X124657106Y-98999707D01*
X124867133Y-99392638D01*
X125223651Y-99596744D01*
X126820395Y-98000000D01*
X125223651Y-96403256D01*
X124867133Y-96607362D01*
X124636425Y-97050223D01*
X124496548Y-97529583D01*
X124452877Y-98027021D01*
X65542378Y-98027021D01*
X65547123Y-97972979D01*
X65492909Y-97476578D01*
X65342894Y-97000293D01*
X65132867Y-96607362D01*
X64776349Y-96403256D01*
X63179605Y-98000000D01*
X62820395Y-98000000D01*
X61223651Y-96403256D01*
X60867133Y-96607362D01*
X60660000Y-97004969D01*
X60660000Y-96223651D01*
X61403256Y-96223651D01*
X63000000Y-97820395D01*
X64596744Y-96223651D01*
X125403256Y-96223651D01*
X127000000Y-97820395D01*
X128596744Y-96223651D01*
X128392638Y-95867133D01*
X127949777Y-95636425D01*
X127470417Y-95496548D01*
X126972979Y-95452877D01*
X126476578Y-95507091D01*
X126000293Y-95657106D01*
X125607362Y-95867133D01*
X125403256Y-96223651D01*
X64596744Y-96223651D01*
X64392638Y-95867133D01*
X63949777Y-95636425D01*
X63470417Y-95496548D01*
X62972979Y-95452877D01*
X62476578Y-95507091D01*
X62000293Y-95657106D01*
X61607362Y-95867133D01*
X61403256Y-96223651D01*
X60660000Y-96223651D01*
X60660000Y-85344080D01*
X120315525Y-85344080D01*
X120399208Y-85598261D01*
X120671775Y-85729158D01*
X120964642Y-85804365D01*
X121266553Y-85820991D01*
X121565907Y-85778397D01*
X121851199Y-85678222D01*
X122000792Y-85598261D01*
X122084475Y-85344080D01*
X121200000Y-84459605D01*
X120315525Y-85344080D01*
X60660000Y-85344080D01*
X60660000Y-84346553D01*
X119659009Y-84346553D01*
X119701603Y-84645907D01*
X119801778Y-84931199D01*
X119881739Y-85080792D01*
X120135920Y-85164475D01*
X121020395Y-84280000D01*
X121379605Y-84280000D01*
X122264080Y-85164475D01*
X122518261Y-85080792D01*
X122649158Y-84808225D01*
X122724365Y-84515358D01*
X122740991Y-84213447D01*
X122698397Y-83914093D01*
X122598222Y-83628801D01*
X122518261Y-83479208D01*
X122264080Y-83395525D01*
X121379605Y-84280000D01*
X121020395Y-84280000D01*
X120135920Y-83395525D01*
X119881739Y-83479208D01*
X119750842Y-83751775D01*
X119675635Y-84044642D01*
X119659009Y-84346553D01*
X60660000Y-84346553D01*
X60660000Y-79048816D01*
X119665000Y-79048816D01*
X119665000Y-79351184D01*
X119723989Y-79647743D01*
X119839701Y-79927095D01*
X120007688Y-80178505D01*
X120221495Y-80392312D01*
X120337763Y-80470000D01*
X120221495Y-80547688D01*
X120007688Y-80761495D01*
X119839701Y-81012905D01*
X119723989Y-81292257D01*
X119665000Y-81588816D01*
X119665000Y-81891184D01*
X119723989Y-82187743D01*
X119839701Y-82467095D01*
X120007688Y-82718505D01*
X120221495Y-82932312D01*
X120375105Y-83034951D01*
X120315525Y-83215920D01*
X121200000Y-84100395D01*
X122084475Y-83215920D01*
X122024895Y-83034951D01*
X122178505Y-82932312D01*
X122392312Y-82718505D01*
X122560299Y-82467095D01*
X122676011Y-82187743D01*
X122735000Y-81891184D01*
X122735000Y-81588816D01*
X122676011Y-81292257D01*
X122560299Y-81012905D01*
X122392312Y-80761495D01*
X122178505Y-80547688D01*
X122062237Y-80470000D01*
X122178505Y-80392312D01*
X122392312Y-80178505D01*
X122560299Y-79927095D01*
X122676011Y-79647743D01*
X122735000Y-79351184D01*
X122735000Y-79048816D01*
X122676011Y-78752257D01*
X122560299Y-78472905D01*
X122392312Y-78221495D01*
X122178505Y-78007688D01*
X121927095Y-77839701D01*
X121647743Y-77723989D01*
X121351184Y-77665000D01*
X121048816Y-77665000D01*
X120752257Y-77723989D01*
X120472905Y-77839701D01*
X120221495Y-78007688D01*
X120007688Y-78221495D01*
X119839701Y-78472905D01*
X119723989Y-78752257D01*
X119665000Y-79048816D01*
X60660000Y-79048816D01*
X60660000Y-70500000D01*
X82459509Y-70500000D01*
X82465000Y-70555752D01*
X82465000Y-70611788D01*
X82475932Y-70666747D01*
X82481423Y-70722499D01*
X82497685Y-70776106D01*
X82508617Y-70831067D01*
X82530063Y-70882842D01*
X82546324Y-70936447D01*
X82572731Y-70985851D01*
X82594176Y-71037624D01*
X82625307Y-71084214D01*
X82651716Y-71133623D01*
X82687259Y-71176932D01*
X82718388Y-71223520D01*
X82758009Y-71263141D01*
X82793551Y-71306449D01*
X82836859Y-71341991D01*
X82876480Y-71381612D01*
X82923068Y-71412741D01*
X82966377Y-71448284D01*
X83015786Y-71474693D01*
X83062376Y-71505824D01*
X83114149Y-71527269D01*
X83163553Y-71553676D01*
X83217158Y-71569937D01*
X83268933Y-71591383D01*
X83323894Y-71602315D01*
X83377501Y-71618577D01*
X83433253Y-71624068D01*
X83488212Y-71635000D01*
X85144250Y-71635000D01*
X85200001Y-71640491D01*
X85255752Y-71635000D01*
X85255753Y-71635000D01*
X85422500Y-71618577D01*
X85636448Y-71553676D01*
X85833624Y-71448284D01*
X86006450Y-71306449D01*
X86041997Y-71263135D01*
X88561052Y-68744080D01*
X120315525Y-68744080D01*
X120399208Y-68998261D01*
X120671775Y-69129158D01*
X120964642Y-69204365D01*
X121266553Y-69220991D01*
X121565907Y-69178397D01*
X121851199Y-69078222D01*
X122000792Y-68998261D01*
X122084475Y-68744080D01*
X121200000Y-67859605D01*
X120315525Y-68744080D01*
X88561052Y-68744080D01*
X89558579Y-67746553D01*
X119659009Y-67746553D01*
X119701603Y-68045907D01*
X119801778Y-68331199D01*
X119881739Y-68480792D01*
X120135920Y-68564475D01*
X121020395Y-67680000D01*
X121379605Y-67680000D01*
X122264080Y-68564475D01*
X122518261Y-68480792D01*
X122649158Y-68208225D01*
X122724365Y-67915358D01*
X122740991Y-67613447D01*
X122698397Y-67314093D01*
X122598222Y-67028801D01*
X122518261Y-66879208D01*
X122264080Y-66795525D01*
X121379605Y-67680000D01*
X121020395Y-67680000D01*
X120135920Y-66795525D01*
X119881739Y-66879208D01*
X119750842Y-67151775D01*
X119675635Y-67444642D01*
X119659009Y-67746553D01*
X89558579Y-67746553D01*
X93663141Y-63641992D01*
X93706449Y-63606450D01*
X93848284Y-63433624D01*
X93953676Y-63236448D01*
X94018577Y-63022500D01*
X94035000Y-62855753D01*
X94040491Y-62800002D01*
X94035000Y-62744250D01*
X94035000Y-62448816D01*
X119665000Y-62448816D01*
X119665000Y-62751184D01*
X119723989Y-63047743D01*
X119839701Y-63327095D01*
X120007688Y-63578505D01*
X120221495Y-63792312D01*
X120337763Y-63870000D01*
X120221495Y-63947688D01*
X120007688Y-64161495D01*
X119839701Y-64412905D01*
X119723989Y-64692257D01*
X119665000Y-64988816D01*
X119665000Y-65291184D01*
X119723989Y-65587743D01*
X119839701Y-65867095D01*
X120007688Y-66118505D01*
X120221495Y-66332312D01*
X120375105Y-66434951D01*
X120315525Y-66615920D01*
X121200000Y-67500395D01*
X122084475Y-66615920D01*
X122024895Y-66434951D01*
X122178505Y-66332312D01*
X122392312Y-66118505D01*
X122560299Y-65867095D01*
X122676011Y-65587743D01*
X122735000Y-65291184D01*
X122735000Y-64988816D01*
X122676011Y-64692257D01*
X122560299Y-64412905D01*
X122392312Y-64161495D01*
X122178505Y-63947688D01*
X122062237Y-63870000D01*
X122178505Y-63792312D01*
X122392312Y-63578505D01*
X122560299Y-63327095D01*
X122676011Y-63047743D01*
X122735000Y-62751184D01*
X122735000Y-62448816D01*
X122676011Y-62152257D01*
X122560299Y-61872905D01*
X122392312Y-61621495D01*
X122178505Y-61407688D01*
X121927095Y-61239701D01*
X121647743Y-61123989D01*
X121351184Y-61065000D01*
X121048816Y-61065000D01*
X120752257Y-61123989D01*
X120472905Y-61239701D01*
X120221495Y-61407688D01*
X120007688Y-61621495D01*
X119839701Y-61872905D01*
X119723989Y-62152257D01*
X119665000Y-62448816D01*
X94035000Y-62448816D01*
X94035000Y-58188212D01*
X94024068Y-58133253D01*
X94018577Y-58077501D01*
X94002315Y-58023894D01*
X93991383Y-57968933D01*
X93969937Y-57917158D01*
X93953676Y-57863553D01*
X93927269Y-57814149D01*
X93905824Y-57762376D01*
X93874693Y-57715786D01*
X93848284Y-57666377D01*
X93812741Y-57623068D01*
X93781612Y-57576480D01*
X93741991Y-57536859D01*
X93706449Y-57493551D01*
X93663141Y-57458009D01*
X93623520Y-57418388D01*
X93576932Y-57387259D01*
X93533623Y-57351716D01*
X93484215Y-57325307D01*
X93437624Y-57294176D01*
X93385848Y-57272730D01*
X93336446Y-57246324D01*
X93282845Y-57230064D01*
X93231067Y-57208617D01*
X93176103Y-57197684D01*
X93122498Y-57181423D01*
X93066748Y-57175932D01*
X93011788Y-57165000D01*
X92955751Y-57165000D01*
X92900000Y-57159509D01*
X92844248Y-57165000D01*
X92788212Y-57165000D01*
X92733253Y-57175932D01*
X92677501Y-57181423D01*
X92623894Y-57197685D01*
X92568933Y-57208617D01*
X92517158Y-57230063D01*
X92463553Y-57246324D01*
X92414149Y-57272731D01*
X92362376Y-57294176D01*
X92315786Y-57325307D01*
X92266377Y-57351716D01*
X92223068Y-57387259D01*
X92176480Y-57418388D01*
X92136859Y-57458009D01*
X92093551Y-57493551D01*
X92058009Y-57536859D01*
X92018388Y-57576480D01*
X91987259Y-57623068D01*
X91951716Y-57666377D01*
X91925307Y-57715785D01*
X91894176Y-57762376D01*
X91872730Y-57814152D01*
X91846324Y-57863554D01*
X91830064Y-57917155D01*
X91808617Y-57968933D01*
X91797684Y-58023897D01*
X91781423Y-58077502D01*
X91775932Y-58133252D01*
X91765000Y-58188212D01*
X91765000Y-59844249D01*
X91765001Y-62329868D01*
X84729870Y-69365000D01*
X83488212Y-69365000D01*
X83433253Y-69375932D01*
X83377501Y-69381423D01*
X83323894Y-69397685D01*
X83268933Y-69408617D01*
X83217158Y-69430063D01*
X83163553Y-69446324D01*
X83114149Y-69472731D01*
X83062376Y-69494176D01*
X83015786Y-69525307D01*
X82966377Y-69551716D01*
X82923068Y-69587259D01*
X82876480Y-69618388D01*
X82836859Y-69658009D01*
X82793551Y-69693551D01*
X82758011Y-69736857D01*
X82718388Y-69776480D01*
X82687259Y-69823068D01*
X82651716Y-69866377D01*
X82625307Y-69915786D01*
X82594176Y-69962376D01*
X82572731Y-70014149D01*
X82546324Y-70063553D01*
X82530063Y-70117158D01*
X82508617Y-70168933D01*
X82497685Y-70223894D01*
X82481423Y-70277501D01*
X82475932Y-70333253D01*
X82465000Y-70388212D01*
X82465000Y-70444248D01*
X82459509Y-70500000D01*
X60660000Y-70500000D01*
X60660000Y-69254777D01*
X60704441Y-69301250D01*
X60915239Y-69449019D01*
X61150815Y-69552824D01*
X61402116Y-69608675D01*
X61608000Y-69458573D01*
X61608000Y-68432000D01*
X61862000Y-68432000D01*
X61862000Y-69458573D01*
X62067884Y-69608675D01*
X62319185Y-69552824D01*
X62554761Y-69449019D01*
X62765559Y-69301250D01*
X62943478Y-69115196D01*
X63081681Y-68898007D01*
X63174857Y-68658029D01*
X63177910Y-68634400D01*
X63054224Y-68432000D01*
X61862000Y-68432000D01*
X61608000Y-68432000D01*
X61588000Y-68432000D01*
X61588000Y-68304744D01*
X63391197Y-68304744D01*
X63395989Y-68343526D01*
X63485869Y-68559039D01*
X63616066Y-68752877D01*
X63781578Y-68917590D01*
X63976043Y-69046848D01*
X64191989Y-69135684D01*
X64421116Y-69180684D01*
X64608000Y-69025152D01*
X64608000Y-68122000D01*
X64862000Y-68122000D01*
X64862000Y-69025152D01*
X65048884Y-69180684D01*
X65278011Y-69135684D01*
X65493957Y-69046848D01*
X65688422Y-68917590D01*
X65853934Y-68752877D01*
X65984131Y-68559039D01*
X66074011Y-68343526D01*
X66078803Y-68304744D01*
X65953361Y-68122000D01*
X64862000Y-68122000D01*
X64608000Y-68122000D01*
X63516639Y-68122000D01*
X63391197Y-68304744D01*
X61588000Y-68304744D01*
X61588000Y-68178000D01*
X61608000Y-68178000D01*
X61608000Y-67151427D01*
X61862000Y-67151427D01*
X61862000Y-68178000D01*
X63054224Y-68178000D01*
X63177910Y-67975600D01*
X63174857Y-67951971D01*
X63081681Y-67711993D01*
X63064668Y-67685256D01*
X63391197Y-67685256D01*
X63516639Y-67868000D01*
X64608000Y-67868000D01*
X64608000Y-66964848D01*
X64862000Y-66964848D01*
X64862000Y-67868000D01*
X65953361Y-67868000D01*
X66078803Y-67685256D01*
X66074011Y-67646474D01*
X65984131Y-67430961D01*
X65853934Y-67237123D01*
X65688422Y-67072410D01*
X65493957Y-66943152D01*
X65278011Y-66854316D01*
X65048884Y-66809316D01*
X64862000Y-66964848D01*
X64608000Y-66964848D01*
X64421116Y-66809316D01*
X64191989Y-66854316D01*
X63976043Y-66943152D01*
X63781578Y-67072410D01*
X63616066Y-67237123D01*
X63485869Y-67430961D01*
X63395989Y-67646474D01*
X63391197Y-67685256D01*
X63064668Y-67685256D01*
X62943478Y-67494804D01*
X62765559Y-67308750D01*
X62554761Y-67160981D01*
X62319185Y-67057176D01*
X62067884Y-67001325D01*
X61862000Y-67151427D01*
X61608000Y-67151427D01*
X61402116Y-67001325D01*
X61150815Y-67057176D01*
X60915239Y-67160981D01*
X60704441Y-67308750D01*
X60660000Y-67355223D01*
X60660000Y-63794777D01*
X60704441Y-63841250D01*
X60915239Y-63989019D01*
X61150815Y-64092824D01*
X61402116Y-64148675D01*
X61608000Y-63998573D01*
X61608000Y-62972000D01*
X61862000Y-62972000D01*
X61862000Y-63998573D01*
X62067884Y-64148675D01*
X62319185Y-64092824D01*
X62554761Y-63989019D01*
X62765559Y-63841250D01*
X62943478Y-63655196D01*
X63064667Y-63464744D01*
X63391197Y-63464744D01*
X63395989Y-63503526D01*
X63485869Y-63719039D01*
X63616066Y-63912877D01*
X63781578Y-64077590D01*
X63976043Y-64206848D01*
X64191989Y-64295684D01*
X64421116Y-64340684D01*
X64608000Y-64185152D01*
X64608000Y-63282000D01*
X64862000Y-63282000D01*
X64862000Y-64185152D01*
X65048884Y-64340684D01*
X65278011Y-64295684D01*
X65493957Y-64206848D01*
X65688422Y-64077590D01*
X65853934Y-63912877D01*
X65984131Y-63719039D01*
X66074011Y-63503526D01*
X66078803Y-63464744D01*
X65953361Y-63282000D01*
X64862000Y-63282000D01*
X64608000Y-63282000D01*
X63516639Y-63282000D01*
X63391197Y-63464744D01*
X63064667Y-63464744D01*
X63081681Y-63438007D01*
X63174857Y-63198029D01*
X63177910Y-63174400D01*
X63054224Y-62972000D01*
X61862000Y-62972000D01*
X61608000Y-62972000D01*
X61588000Y-62972000D01*
X61588000Y-62845256D01*
X63391197Y-62845256D01*
X63516639Y-63028000D01*
X64608000Y-63028000D01*
X64608000Y-62124848D01*
X64862000Y-62124848D01*
X64862000Y-63028000D01*
X65953361Y-63028000D01*
X66078803Y-62845256D01*
X66074011Y-62806474D01*
X65984131Y-62590961D01*
X65853934Y-62397123D01*
X65688422Y-62232410D01*
X65493957Y-62103152D01*
X65278011Y-62014316D01*
X65048884Y-61969316D01*
X64862000Y-62124848D01*
X64608000Y-62124848D01*
X64421116Y-61969316D01*
X64191989Y-62014316D01*
X63976043Y-62103152D01*
X63781578Y-62232410D01*
X63616066Y-62397123D01*
X63485869Y-62590961D01*
X63395989Y-62806474D01*
X63391197Y-62845256D01*
X61588000Y-62845256D01*
X61588000Y-62718000D01*
X61608000Y-62718000D01*
X61608000Y-61691427D01*
X61862000Y-61691427D01*
X61862000Y-62718000D01*
X63054224Y-62718000D01*
X63177910Y-62515600D01*
X63174857Y-62491971D01*
X63081681Y-62251993D01*
X62943478Y-62034804D01*
X62765559Y-61848750D01*
X62554761Y-61700981D01*
X62319185Y-61597176D01*
X62067884Y-61541325D01*
X61862000Y-61691427D01*
X61608000Y-61691427D01*
X61402116Y-61541325D01*
X61150815Y-61597176D01*
X60915239Y-61700981D01*
X60704441Y-61848750D01*
X60660000Y-61895223D01*
X60660000Y-50776349D01*
X61403256Y-50776349D01*
X61607362Y-51132867D01*
X62050223Y-51363575D01*
X62529583Y-51503452D01*
X63027021Y-51547123D01*
X63523422Y-51492909D01*
X63999707Y-51342894D01*
X64392638Y-51132867D01*
X64596744Y-50776349D01*
X125403256Y-50776349D01*
X125607362Y-51132867D01*
X126050223Y-51363575D01*
X126529583Y-51503452D01*
X127027021Y-51547123D01*
X127523422Y-51492909D01*
X127999707Y-51342894D01*
X128392638Y-51132867D01*
X128596744Y-50776349D01*
X127000000Y-49179605D01*
X125403256Y-50776349D01*
X64596744Y-50776349D01*
X63000000Y-49179605D01*
X61403256Y-50776349D01*
X60660000Y-50776349D01*
X60660000Y-50005121D01*
X60867133Y-50392638D01*
X61223651Y-50596744D01*
X62820395Y-49000000D01*
X63179605Y-49000000D01*
X64776349Y-50596744D01*
X65132867Y-50392638D01*
X65363575Y-49949777D01*
X65503452Y-49470417D01*
X65513418Y-49356891D01*
X68298519Y-49356891D01*
X68395843Y-49631252D01*
X68544822Y-49881355D01*
X68739731Y-50097588D01*
X68973080Y-50271641D01*
X69235901Y-50396825D01*
X69383110Y-50441476D01*
X69613000Y-50320155D01*
X69613000Y-49127000D01*
X68419186Y-49127000D01*
X68298519Y-49356891D01*
X65513418Y-49356891D01*
X65547123Y-48972979D01*
X65511097Y-48643109D01*
X68298519Y-48643109D01*
X68419186Y-48873000D01*
X69613000Y-48873000D01*
X69613000Y-47679845D01*
X69867000Y-47679845D01*
X69867000Y-48873000D01*
X69887000Y-48873000D01*
X69887000Y-49127000D01*
X69867000Y-49127000D01*
X69867000Y-50320155D01*
X70096890Y-50441476D01*
X70244099Y-50396825D01*
X70506920Y-50271641D01*
X70740269Y-50097588D01*
X70935178Y-49881355D01*
X71004805Y-49764466D01*
X71126525Y-49946632D01*
X71333368Y-50153475D01*
X71576589Y-50315990D01*
X71846842Y-50427932D01*
X72133740Y-50485000D01*
X72426260Y-50485000D01*
X72713158Y-50427932D01*
X72983411Y-50315990D01*
X73226632Y-50153475D01*
X73433475Y-49946632D01*
X73550000Y-49772240D01*
X73666525Y-49946632D01*
X73873368Y-50153475D01*
X74116589Y-50315990D01*
X74386842Y-50427932D01*
X74673740Y-50485000D01*
X74966260Y-50485000D01*
X75253158Y-50427932D01*
X75523411Y-50315990D01*
X75766632Y-50153475D01*
X75973475Y-49946632D01*
X76090000Y-49772240D01*
X76206525Y-49946632D01*
X76413368Y-50153475D01*
X76656589Y-50315990D01*
X76926842Y-50427932D01*
X77213740Y-50485000D01*
X77506260Y-50485000D01*
X77793158Y-50427932D01*
X78063411Y-50315990D01*
X78306632Y-50153475D01*
X78513475Y-49946632D01*
X78630000Y-49772240D01*
X78746525Y-49946632D01*
X78953368Y-50153475D01*
X79196589Y-50315990D01*
X79466842Y-50427932D01*
X79753740Y-50485000D01*
X80046260Y-50485000D01*
X80333158Y-50427932D01*
X80603411Y-50315990D01*
X80846632Y-50153475D01*
X81053475Y-49946632D01*
X81170000Y-49772240D01*
X81286525Y-49946632D01*
X81493368Y-50153475D01*
X81736589Y-50315990D01*
X82006842Y-50427932D01*
X82293740Y-50485000D01*
X82586260Y-50485000D01*
X82873158Y-50427932D01*
X83143411Y-50315990D01*
X83386632Y-50153475D01*
X83593475Y-49946632D01*
X83710000Y-49772240D01*
X83826525Y-49946632D01*
X84033368Y-50153475D01*
X84276589Y-50315990D01*
X84546842Y-50427932D01*
X84833740Y-50485000D01*
X85126260Y-50485000D01*
X85413158Y-50427932D01*
X85683411Y-50315990D01*
X85926632Y-50153475D01*
X86133475Y-49946632D01*
X86250000Y-49772240D01*
X86366525Y-49946632D01*
X86573368Y-50153475D01*
X86816589Y-50315990D01*
X87086842Y-50427932D01*
X87373740Y-50485000D01*
X87666260Y-50485000D01*
X87953158Y-50427932D01*
X88223411Y-50315990D01*
X88466632Y-50153475D01*
X88673475Y-49946632D01*
X88790000Y-49772240D01*
X88906525Y-49946632D01*
X89113368Y-50153475D01*
X89356589Y-50315990D01*
X89626842Y-50427932D01*
X89913740Y-50485000D01*
X90206260Y-50485000D01*
X90493158Y-50427932D01*
X90763411Y-50315990D01*
X91006632Y-50153475D01*
X91213475Y-49946632D01*
X91330000Y-49772240D01*
X91446525Y-49946632D01*
X91653368Y-50153475D01*
X91896589Y-50315990D01*
X92166842Y-50427932D01*
X92453740Y-50485000D01*
X92746260Y-50485000D01*
X93033158Y-50427932D01*
X93303411Y-50315990D01*
X93546632Y-50153475D01*
X93753475Y-49946632D01*
X93870000Y-49772240D01*
X93986525Y-49946632D01*
X94193368Y-50153475D01*
X94436589Y-50315990D01*
X94706842Y-50427932D01*
X94993740Y-50485000D01*
X95286260Y-50485000D01*
X95573158Y-50427932D01*
X95843411Y-50315990D01*
X96086632Y-50153475D01*
X96293475Y-49946632D01*
X96410000Y-49772240D01*
X96526525Y-49946632D01*
X96733368Y-50153475D01*
X96976589Y-50315990D01*
X97246842Y-50427932D01*
X97533740Y-50485000D01*
X97826260Y-50485000D01*
X98113158Y-50427932D01*
X98383411Y-50315990D01*
X98626632Y-50153475D01*
X98833475Y-49946632D01*
X98950000Y-49772240D01*
X99066525Y-49946632D01*
X99273368Y-50153475D01*
X99516589Y-50315990D01*
X99786842Y-50427932D01*
X100073740Y-50485000D01*
X100366260Y-50485000D01*
X100653158Y-50427932D01*
X100923411Y-50315990D01*
X101166632Y-50153475D01*
X101373475Y-49946632D01*
X101490000Y-49772240D01*
X101606525Y-49946632D01*
X101813368Y-50153475D01*
X102056589Y-50315990D01*
X102326842Y-50427932D01*
X102613740Y-50485000D01*
X102906260Y-50485000D01*
X103193158Y-50427932D01*
X103463411Y-50315990D01*
X103706632Y-50153475D01*
X103913475Y-49946632D01*
X104030000Y-49772240D01*
X104146525Y-49946632D01*
X104353368Y-50153475D01*
X104596589Y-50315990D01*
X104866842Y-50427932D01*
X105153740Y-50485000D01*
X105446260Y-50485000D01*
X105733158Y-50427932D01*
X106003411Y-50315990D01*
X106246632Y-50153475D01*
X106453475Y-49946632D01*
X106570000Y-49772240D01*
X106686525Y-49946632D01*
X106893368Y-50153475D01*
X107136589Y-50315990D01*
X107406842Y-50427932D01*
X107693740Y-50485000D01*
X107986260Y-50485000D01*
X108273158Y-50427932D01*
X108543411Y-50315990D01*
X108786632Y-50153475D01*
X108993475Y-49946632D01*
X109110000Y-49772240D01*
X109226525Y-49946632D01*
X109433368Y-50153475D01*
X109676589Y-50315990D01*
X109946842Y-50427932D01*
X110233740Y-50485000D01*
X110526260Y-50485000D01*
X110813158Y-50427932D01*
X111083411Y-50315990D01*
X111326632Y-50153475D01*
X111533475Y-49946632D01*
X111650000Y-49772240D01*
X111766525Y-49946632D01*
X111973368Y-50153475D01*
X112216589Y-50315990D01*
X112486842Y-50427932D01*
X112773740Y-50485000D01*
X113066260Y-50485000D01*
X113353158Y-50427932D01*
X113623411Y-50315990D01*
X113866632Y-50153475D01*
X114073475Y-49946632D01*
X114190000Y-49772240D01*
X114306525Y-49946632D01*
X114513368Y-50153475D01*
X114756589Y-50315990D01*
X115026842Y-50427932D01*
X115313740Y-50485000D01*
X115606260Y-50485000D01*
X115893158Y-50427932D01*
X116163411Y-50315990D01*
X116406632Y-50153475D01*
X116538487Y-50021620D01*
X116560498Y-50094180D01*
X116619463Y-50204494D01*
X116698815Y-50301185D01*
X116795506Y-50380537D01*
X116905820Y-50439502D01*
X117025518Y-50475812D01*
X117150000Y-50488072D01*
X117714250Y-50485000D01*
X117873000Y-50326250D01*
X117873000Y-49127000D01*
X118127000Y-49127000D01*
X118127000Y-50326250D01*
X118285750Y-50485000D01*
X118850000Y-50488072D01*
X118974482Y-50475812D01*
X119094180Y-50439502D01*
X119204494Y-50380537D01*
X119301185Y-50301185D01*
X119380537Y-50204494D01*
X119439502Y-50094180D01*
X119475812Y-49974482D01*
X119488072Y-49850000D01*
X119485000Y-49285750D01*
X119326250Y-49127000D01*
X118127000Y-49127000D01*
X117873000Y-49127000D01*
X117853000Y-49127000D01*
X117853000Y-49027021D01*
X124452877Y-49027021D01*
X124507091Y-49523422D01*
X124657106Y-49999707D01*
X124867133Y-50392638D01*
X125223651Y-50596744D01*
X126820395Y-49000000D01*
X125223651Y-47403256D01*
X124867133Y-47607362D01*
X124636425Y-48050223D01*
X124496548Y-48529583D01*
X124452877Y-49027021D01*
X117853000Y-49027021D01*
X117853000Y-48873000D01*
X117873000Y-48873000D01*
X117873000Y-47673750D01*
X118127000Y-47673750D01*
X118127000Y-48873000D01*
X119326250Y-48873000D01*
X119485000Y-48714250D01*
X119488072Y-48150000D01*
X119475812Y-48025518D01*
X119439502Y-47905820D01*
X119380537Y-47795506D01*
X119301185Y-47698815D01*
X119204494Y-47619463D01*
X119094180Y-47560498D01*
X118974482Y-47524188D01*
X118850000Y-47511928D01*
X118285750Y-47515000D01*
X118127000Y-47673750D01*
X117873000Y-47673750D01*
X117714250Y-47515000D01*
X117150000Y-47511928D01*
X117025518Y-47524188D01*
X116905820Y-47560498D01*
X116795506Y-47619463D01*
X116698815Y-47698815D01*
X116619463Y-47795506D01*
X116560498Y-47905820D01*
X116538487Y-47978380D01*
X116406632Y-47846525D01*
X116163411Y-47684010D01*
X115893158Y-47572068D01*
X115606260Y-47515000D01*
X115313740Y-47515000D01*
X115026842Y-47572068D01*
X114756589Y-47684010D01*
X114513368Y-47846525D01*
X114306525Y-48053368D01*
X114190000Y-48227760D01*
X114073475Y-48053368D01*
X113866632Y-47846525D01*
X113623411Y-47684010D01*
X113353158Y-47572068D01*
X113066260Y-47515000D01*
X112773740Y-47515000D01*
X112486842Y-47572068D01*
X112216589Y-47684010D01*
X111973368Y-47846525D01*
X111766525Y-48053368D01*
X111650000Y-48227760D01*
X111533475Y-48053368D01*
X111326632Y-47846525D01*
X111083411Y-47684010D01*
X110813158Y-47572068D01*
X110526260Y-47515000D01*
X110233740Y-47515000D01*
X109946842Y-47572068D01*
X109676589Y-47684010D01*
X109433368Y-47846525D01*
X109226525Y-48053368D01*
X109110000Y-48227760D01*
X108993475Y-48053368D01*
X108786632Y-47846525D01*
X108543411Y-47684010D01*
X108273158Y-47572068D01*
X107986260Y-47515000D01*
X107693740Y-47515000D01*
X107406842Y-47572068D01*
X107136589Y-47684010D01*
X106893368Y-47846525D01*
X106686525Y-48053368D01*
X106570000Y-48227760D01*
X106453475Y-48053368D01*
X106246632Y-47846525D01*
X106003411Y-47684010D01*
X105733158Y-47572068D01*
X105446260Y-47515000D01*
X105153740Y-47515000D01*
X104866842Y-47572068D01*
X104596589Y-47684010D01*
X104353368Y-47846525D01*
X104146525Y-48053368D01*
X104030000Y-48227760D01*
X103913475Y-48053368D01*
X103706632Y-47846525D01*
X103463411Y-47684010D01*
X103193158Y-47572068D01*
X102906260Y-47515000D01*
X102613740Y-47515000D01*
X102326842Y-47572068D01*
X102056589Y-47684010D01*
X101813368Y-47846525D01*
X101606525Y-48053368D01*
X101490000Y-48227760D01*
X101373475Y-48053368D01*
X101166632Y-47846525D01*
X100923411Y-47684010D01*
X100653158Y-47572068D01*
X100366260Y-47515000D01*
X100073740Y-47515000D01*
X99786842Y-47572068D01*
X99516589Y-47684010D01*
X99273368Y-47846525D01*
X99066525Y-48053368D01*
X98950000Y-48227760D01*
X98833475Y-48053368D01*
X98626632Y-47846525D01*
X98383411Y-47684010D01*
X98113158Y-47572068D01*
X97826260Y-47515000D01*
X97533740Y-47515000D01*
X97246842Y-47572068D01*
X96976589Y-47684010D01*
X96733368Y-47846525D01*
X96526525Y-48053368D01*
X96410000Y-48227760D01*
X96293475Y-48053368D01*
X96086632Y-47846525D01*
X95843411Y-47684010D01*
X95573158Y-47572068D01*
X95286260Y-47515000D01*
X94993740Y-47515000D01*
X94706842Y-47572068D01*
X94436589Y-47684010D01*
X94193368Y-47846525D01*
X93986525Y-48053368D01*
X93870000Y-48227760D01*
X93753475Y-48053368D01*
X93546632Y-47846525D01*
X93303411Y-47684010D01*
X93033158Y-47572068D01*
X92746260Y-47515000D01*
X92453740Y-47515000D01*
X92166842Y-47572068D01*
X91896589Y-47684010D01*
X91653368Y-47846525D01*
X91446525Y-48053368D01*
X91330000Y-48227760D01*
X91213475Y-48053368D01*
X91006632Y-47846525D01*
X90763411Y-47684010D01*
X90493158Y-47572068D01*
X90206260Y-47515000D01*
X89913740Y-47515000D01*
X89626842Y-47572068D01*
X89356589Y-47684010D01*
X89113368Y-47846525D01*
X88906525Y-48053368D01*
X88790000Y-48227760D01*
X88673475Y-48053368D01*
X88466632Y-47846525D01*
X88223411Y-47684010D01*
X87953158Y-47572068D01*
X87666260Y-47515000D01*
X87373740Y-47515000D01*
X87086842Y-47572068D01*
X86816589Y-47684010D01*
X86573368Y-47846525D01*
X86366525Y-48053368D01*
X86250000Y-48227760D01*
X86133475Y-48053368D01*
X85926632Y-47846525D01*
X85683411Y-47684010D01*
X85413158Y-47572068D01*
X85126260Y-47515000D01*
X84833740Y-47515000D01*
X84546842Y-47572068D01*
X84276589Y-47684010D01*
X84033368Y-47846525D01*
X83826525Y-48053368D01*
X83710000Y-48227760D01*
X83593475Y-48053368D01*
X83386632Y-47846525D01*
X83143411Y-47684010D01*
X82873158Y-47572068D01*
X82586260Y-47515000D01*
X82293740Y-47515000D01*
X82006842Y-47572068D01*
X81736589Y-47684010D01*
X81493368Y-47846525D01*
X81286525Y-48053368D01*
X81170000Y-48227760D01*
X81053475Y-48053368D01*
X80846632Y-47846525D01*
X80603411Y-47684010D01*
X80333158Y-47572068D01*
X80046260Y-47515000D01*
X79753740Y-47515000D01*
X79466842Y-47572068D01*
X79196589Y-47684010D01*
X78953368Y-47846525D01*
X78746525Y-48053368D01*
X78630000Y-48227760D01*
X78513475Y-48053368D01*
X78306632Y-47846525D01*
X78063411Y-47684010D01*
X77793158Y-47572068D01*
X77506260Y-47515000D01*
X77213740Y-47515000D01*
X76926842Y-47572068D01*
X76656589Y-47684010D01*
X76413368Y-47846525D01*
X76206525Y-48053368D01*
X76090000Y-48227760D01*
X75973475Y-48053368D01*
X75766632Y-47846525D01*
X75523411Y-47684010D01*
X75253158Y-47572068D01*
X74966260Y-47515000D01*
X74673740Y-47515000D01*
X74386842Y-47572068D01*
X74116589Y-47684010D01*
X73873368Y-47846525D01*
X73666525Y-48053368D01*
X73550000Y-48227760D01*
X73433475Y-48053368D01*
X73226632Y-47846525D01*
X72983411Y-47684010D01*
X72713158Y-47572068D01*
X72426260Y-47515000D01*
X72133740Y-47515000D01*
X71846842Y-47572068D01*
X71576589Y-47684010D01*
X71333368Y-47846525D01*
X71126525Y-48053368D01*
X71004805Y-48235534D01*
X70935178Y-48118645D01*
X70740269Y-47902412D01*
X70506920Y-47728359D01*
X70244099Y-47603175D01*
X70096890Y-47558524D01*
X69867000Y-47679845D01*
X69613000Y-47679845D01*
X69383110Y-47558524D01*
X69235901Y-47603175D01*
X68973080Y-47728359D01*
X68739731Y-47902412D01*
X68544822Y-48118645D01*
X68395843Y-48368748D01*
X68298519Y-48643109D01*
X65511097Y-48643109D01*
X65492909Y-48476578D01*
X65342894Y-48000293D01*
X65132867Y-47607362D01*
X64776349Y-47403256D01*
X63179605Y-49000000D01*
X62820395Y-49000000D01*
X62806253Y-48985858D01*
X62985858Y-48806253D01*
X63000000Y-48820395D01*
X64596744Y-47223651D01*
X64392638Y-46867133D01*
X63995031Y-46660000D01*
X125994879Y-46660000D01*
X125607362Y-46867133D01*
G37*
X125607362Y-46867133D02*
X125403256Y-47223651D01*
X127000000Y-48820395D01*
X127014143Y-48806253D01*
X127193748Y-48985858D01*
X127179605Y-49000000D01*
X128776349Y-50596744D01*
X129132867Y-50392638D01*
X129340000Y-49995031D01*
X129340001Y-96994881D01*
X129132867Y-96607362D01*
X128776349Y-96403256D01*
X127179605Y-98000000D01*
X127193748Y-98014143D01*
X127014143Y-98193748D01*
X127000000Y-98179605D01*
X125403256Y-99776349D01*
X125607362Y-100132867D01*
X126004969Y-100340000D01*
X64005121Y-100340000D01*
X64392638Y-100132867D01*
X64596744Y-99776349D01*
X63000000Y-98179605D01*
X62985858Y-98193748D01*
X62806253Y-98014143D01*
X62820395Y-98000000D01*
X63179605Y-98000000D01*
X64776349Y-99596744D01*
X65132867Y-99392638D01*
X65363575Y-98949777D01*
X65503452Y-98470417D01*
X65542378Y-98027021D01*
X124452877Y-98027021D01*
X124507091Y-98523422D01*
X124657106Y-98999707D01*
X124867133Y-99392638D01*
X125223651Y-99596744D01*
X126820395Y-98000000D01*
X125223651Y-96403256D01*
X124867133Y-96607362D01*
X124636425Y-97050223D01*
X124496548Y-97529583D01*
X124452877Y-98027021D01*
X65542378Y-98027021D01*
X65547123Y-97972979D01*
X65492909Y-97476578D01*
X65342894Y-97000293D01*
X65132867Y-96607362D01*
X64776349Y-96403256D01*
X63179605Y-98000000D01*
X62820395Y-98000000D01*
X61223651Y-96403256D01*
X60867133Y-96607362D01*
X60660000Y-97004969D01*
X60660000Y-96223651D01*
X61403256Y-96223651D01*
X63000000Y-97820395D01*
X64596744Y-96223651D01*
X125403256Y-96223651D01*
X127000000Y-97820395D01*
X128596744Y-96223651D01*
X128392638Y-95867133D01*
X127949777Y-95636425D01*
X127470417Y-95496548D01*
X126972979Y-95452877D01*
X126476578Y-95507091D01*
X126000293Y-95657106D01*
X125607362Y-95867133D01*
X125403256Y-96223651D01*
X64596744Y-96223651D01*
X64392638Y-95867133D01*
X63949777Y-95636425D01*
X63470417Y-95496548D01*
X62972979Y-95452877D01*
X62476578Y-95507091D01*
X62000293Y-95657106D01*
X61607362Y-95867133D01*
X61403256Y-96223651D01*
X60660000Y-96223651D01*
X60660000Y-85344080D01*
X120315525Y-85344080D01*
X120399208Y-85598261D01*
X120671775Y-85729158D01*
X120964642Y-85804365D01*
X121266553Y-85820991D01*
X121565907Y-85778397D01*
X121851199Y-85678222D01*
X122000792Y-85598261D01*
X122084475Y-85344080D01*
X121200000Y-84459605D01*
X120315525Y-85344080D01*
X60660000Y-85344080D01*
X60660000Y-84346553D01*
X119659009Y-84346553D01*
X119701603Y-84645907D01*
X119801778Y-84931199D01*
X119881739Y-85080792D01*
X120135920Y-85164475D01*
X121020395Y-84280000D01*
X121379605Y-84280000D01*
X122264080Y-85164475D01*
X122518261Y-85080792D01*
X122649158Y-84808225D01*
X122724365Y-84515358D01*
X122740991Y-84213447D01*
X122698397Y-83914093D01*
X122598222Y-83628801D01*
X122518261Y-83479208D01*
X122264080Y-83395525D01*
X121379605Y-84280000D01*
X121020395Y-84280000D01*
X120135920Y-83395525D01*
X119881739Y-83479208D01*
X119750842Y-83751775D01*
X119675635Y-84044642D01*
X119659009Y-84346553D01*
X60660000Y-84346553D01*
X60660000Y-79048816D01*
X119665000Y-79048816D01*
X119665000Y-79351184D01*
X119723989Y-79647743D01*
X119839701Y-79927095D01*
X120007688Y-80178505D01*
X120221495Y-80392312D01*
X120337763Y-80470000D01*
X120221495Y-80547688D01*
X120007688Y-80761495D01*
X119839701Y-81012905D01*
X119723989Y-81292257D01*
X119665000Y-81588816D01*
X119665000Y-81891184D01*
X119723989Y-82187743D01*
X119839701Y-82467095D01*
X120007688Y-82718505D01*
X120221495Y-82932312D01*
X120375105Y-83034951D01*
X120315525Y-83215920D01*
X121200000Y-84100395D01*
X122084475Y-83215920D01*
X122024895Y-83034951D01*
X122178505Y-82932312D01*
X122392312Y-82718505D01*
X122560299Y-82467095D01*
X122676011Y-82187743D01*
X122735000Y-81891184D01*
X122735000Y-81588816D01*
X122676011Y-81292257D01*
X122560299Y-81012905D01*
X122392312Y-80761495D01*
X122178505Y-80547688D01*
X122062237Y-80470000D01*
X122178505Y-80392312D01*
X122392312Y-80178505D01*
X122560299Y-79927095D01*
X122676011Y-79647743D01*
X122735000Y-79351184D01*
X122735000Y-79048816D01*
X122676011Y-78752257D01*
X122560299Y-78472905D01*
X122392312Y-78221495D01*
X122178505Y-78007688D01*
X121927095Y-77839701D01*
X121647743Y-77723989D01*
X121351184Y-77665000D01*
X121048816Y-77665000D01*
X120752257Y-77723989D01*
X120472905Y-77839701D01*
X120221495Y-78007688D01*
X120007688Y-78221495D01*
X119839701Y-78472905D01*
X119723989Y-78752257D01*
X119665000Y-79048816D01*
X60660000Y-79048816D01*
X60660000Y-70500000D01*
X82459509Y-70500000D01*
X82465000Y-70555752D01*
X82465000Y-70611788D01*
X82475932Y-70666747D01*
X82481423Y-70722499D01*
X82497685Y-70776106D01*
X82508617Y-70831067D01*
X82530063Y-70882842D01*
X82546324Y-70936447D01*
X82572731Y-70985851D01*
X82594176Y-71037624D01*
X82625307Y-71084214D01*
X82651716Y-71133623D01*
X82687259Y-71176932D01*
X82718388Y-71223520D01*
X82758009Y-71263141D01*
X82793551Y-71306449D01*
X82836859Y-71341991D01*
X82876480Y-71381612D01*
X82923068Y-71412741D01*
X82966377Y-71448284D01*
X83015786Y-71474693D01*
X83062376Y-71505824D01*
X83114149Y-71527269D01*
X83163553Y-71553676D01*
X83217158Y-71569937D01*
X83268933Y-71591383D01*
X83323894Y-71602315D01*
X83377501Y-71618577D01*
X83433253Y-71624068D01*
X83488212Y-71635000D01*
X85144250Y-71635000D01*
X85200001Y-71640491D01*
X85255752Y-71635000D01*
X85255753Y-71635000D01*
X85422500Y-71618577D01*
X85636448Y-71553676D01*
X85833624Y-71448284D01*
X86006450Y-71306449D01*
X86041997Y-71263135D01*
X88561052Y-68744080D01*
X120315525Y-68744080D01*
X120399208Y-68998261D01*
X120671775Y-69129158D01*
X120964642Y-69204365D01*
X121266553Y-69220991D01*
X121565907Y-69178397D01*
X121851199Y-69078222D01*
X122000792Y-68998261D01*
X122084475Y-68744080D01*
X121200000Y-67859605D01*
X120315525Y-68744080D01*
X88561052Y-68744080D01*
X89558579Y-67746553D01*
X119659009Y-67746553D01*
X119701603Y-68045907D01*
X119801778Y-68331199D01*
X119881739Y-68480792D01*
X120135920Y-68564475D01*
X121020395Y-67680000D01*
X121379605Y-67680000D01*
X122264080Y-68564475D01*
X122518261Y-68480792D01*
X122649158Y-68208225D01*
X122724365Y-67915358D01*
X122740991Y-67613447D01*
X122698397Y-67314093D01*
X122598222Y-67028801D01*
X122518261Y-66879208D01*
X122264080Y-66795525D01*
X121379605Y-67680000D01*
X121020395Y-67680000D01*
X120135920Y-66795525D01*
X119881739Y-66879208D01*
X119750842Y-67151775D01*
X119675635Y-67444642D01*
X119659009Y-67746553D01*
X89558579Y-67746553D01*
X93663141Y-63641992D01*
X93706449Y-63606450D01*
X93848284Y-63433624D01*
X93953676Y-63236448D01*
X94018577Y-63022500D01*
X94035000Y-62855753D01*
X94040491Y-62800002D01*
X94035000Y-62744250D01*
X94035000Y-62448816D01*
X119665000Y-62448816D01*
X119665000Y-62751184D01*
X119723989Y-63047743D01*
X119839701Y-63327095D01*
X120007688Y-63578505D01*
X120221495Y-63792312D01*
X120337763Y-63870000D01*
X120221495Y-63947688D01*
X120007688Y-64161495D01*
X119839701Y-64412905D01*
X119723989Y-64692257D01*
X119665000Y-64988816D01*
X119665000Y-65291184D01*
X119723989Y-65587743D01*
X119839701Y-65867095D01*
X120007688Y-66118505D01*
X120221495Y-66332312D01*
X120375105Y-66434951D01*
X120315525Y-66615920D01*
X121200000Y-67500395D01*
X122084475Y-66615920D01*
X122024895Y-66434951D01*
X122178505Y-66332312D01*
X122392312Y-66118505D01*
X122560299Y-65867095D01*
X122676011Y-65587743D01*
X122735000Y-65291184D01*
X122735000Y-64988816D01*
X122676011Y-64692257D01*
X122560299Y-64412905D01*
X122392312Y-64161495D01*
X122178505Y-63947688D01*
X122062237Y-63870000D01*
X122178505Y-63792312D01*
X122392312Y-63578505D01*
X122560299Y-63327095D01*
X122676011Y-63047743D01*
X122735000Y-62751184D01*
X122735000Y-62448816D01*
X122676011Y-62152257D01*
X122560299Y-61872905D01*
X122392312Y-61621495D01*
X122178505Y-61407688D01*
X121927095Y-61239701D01*
X121647743Y-61123989D01*
X121351184Y-61065000D01*
X121048816Y-61065000D01*
X120752257Y-61123989D01*
X120472905Y-61239701D01*
X120221495Y-61407688D01*
X120007688Y-61621495D01*
X119839701Y-61872905D01*
X119723989Y-62152257D01*
X119665000Y-62448816D01*
X94035000Y-62448816D01*
X94035000Y-58188212D01*
X94024068Y-58133253D01*
X94018577Y-58077501D01*
X94002315Y-58023894D01*
X93991383Y-57968933D01*
X93969937Y-57917158D01*
X93953676Y-57863553D01*
X93927269Y-57814149D01*
X93905824Y-57762376D01*
X93874693Y-57715786D01*
X93848284Y-57666377D01*
X93812741Y-57623068D01*
X93781612Y-57576480D01*
X93741991Y-57536859D01*
X93706449Y-57493551D01*
X93663141Y-57458009D01*
X93623520Y-57418388D01*
X93576932Y-57387259D01*
X93533623Y-57351716D01*
X93484215Y-57325307D01*
X93437624Y-57294176D01*
X93385848Y-57272730D01*
X93336446Y-57246324D01*
X93282845Y-57230064D01*
X93231067Y-57208617D01*
X93176103Y-57197684D01*
X93122498Y-57181423D01*
X93066748Y-57175932D01*
X93011788Y-57165000D01*
X92955751Y-57165000D01*
X92900000Y-57159509D01*
X92844248Y-57165000D01*
X92788212Y-57165000D01*
X92733253Y-57175932D01*
X92677501Y-57181423D01*
X92623894Y-57197685D01*
X92568933Y-57208617D01*
X92517158Y-57230063D01*
X92463553Y-57246324D01*
X92414149Y-57272731D01*
X92362376Y-57294176D01*
X92315786Y-57325307D01*
X92266377Y-57351716D01*
X92223068Y-57387259D01*
X92176480Y-57418388D01*
X92136859Y-57458009D01*
X92093551Y-57493551D01*
X92058009Y-57536859D01*
X92018388Y-57576480D01*
X91987259Y-57623068D01*
X91951716Y-57666377D01*
X91925307Y-57715785D01*
X91894176Y-57762376D01*
X91872730Y-57814152D01*
X91846324Y-57863554D01*
X91830064Y-57917155D01*
X91808617Y-57968933D01*
X91797684Y-58023897D01*
X91781423Y-58077502D01*
X91775932Y-58133252D01*
X91765000Y-58188212D01*
X91765000Y-59844249D01*
X91765001Y-62329868D01*
X84729870Y-69365000D01*
X83488212Y-69365000D01*
X83433253Y-69375932D01*
X83377501Y-69381423D01*
X83323894Y-69397685D01*
X83268933Y-69408617D01*
X83217158Y-69430063D01*
X83163553Y-69446324D01*
X83114149Y-69472731D01*
X83062376Y-69494176D01*
X83015786Y-69525307D01*
X82966377Y-69551716D01*
X82923068Y-69587259D01*
X82876480Y-69618388D01*
X82836859Y-69658009D01*
X82793551Y-69693551D01*
X82758011Y-69736857D01*
X82718388Y-69776480D01*
X82687259Y-69823068D01*
X82651716Y-69866377D01*
X82625307Y-69915786D01*
X82594176Y-69962376D01*
X82572731Y-70014149D01*
X82546324Y-70063553D01*
X82530063Y-70117158D01*
X82508617Y-70168933D01*
X82497685Y-70223894D01*
X82481423Y-70277501D01*
X82475932Y-70333253D01*
X82465000Y-70388212D01*
X82465000Y-70444248D01*
X82459509Y-70500000D01*
X60660000Y-70500000D01*
X60660000Y-69254777D01*
X60704441Y-69301250D01*
X60915239Y-69449019D01*
X61150815Y-69552824D01*
X61402116Y-69608675D01*
X61608000Y-69458573D01*
X61608000Y-68432000D01*
X61862000Y-68432000D01*
X61862000Y-69458573D01*
X62067884Y-69608675D01*
X62319185Y-69552824D01*
X62554761Y-69449019D01*
X62765559Y-69301250D01*
X62943478Y-69115196D01*
X63081681Y-68898007D01*
X63174857Y-68658029D01*
X63177910Y-68634400D01*
X63054224Y-68432000D01*
X61862000Y-68432000D01*
X61608000Y-68432000D01*
X61588000Y-68432000D01*
X61588000Y-68304744D01*
X63391197Y-68304744D01*
X63395989Y-68343526D01*
X63485869Y-68559039D01*
X63616066Y-68752877D01*
X63781578Y-68917590D01*
X63976043Y-69046848D01*
X64191989Y-69135684D01*
X64421116Y-69180684D01*
X64608000Y-69025152D01*
X64608000Y-68122000D01*
X64862000Y-68122000D01*
X64862000Y-69025152D01*
X65048884Y-69180684D01*
X65278011Y-69135684D01*
X65493957Y-69046848D01*
X65688422Y-68917590D01*
X65853934Y-68752877D01*
X65984131Y-68559039D01*
X66074011Y-68343526D01*
X66078803Y-68304744D01*
X65953361Y-68122000D01*
X64862000Y-68122000D01*
X64608000Y-68122000D01*
X63516639Y-68122000D01*
X63391197Y-68304744D01*
X61588000Y-68304744D01*
X61588000Y-68178000D01*
X61608000Y-68178000D01*
X61608000Y-67151427D01*
X61862000Y-67151427D01*
X61862000Y-68178000D01*
X63054224Y-68178000D01*
X63177910Y-67975600D01*
X63174857Y-67951971D01*
X63081681Y-67711993D01*
X63064668Y-67685256D01*
X63391197Y-67685256D01*
X63516639Y-67868000D01*
X64608000Y-67868000D01*
X64608000Y-66964848D01*
X64862000Y-66964848D01*
X64862000Y-67868000D01*
X65953361Y-67868000D01*
X66078803Y-67685256D01*
X66074011Y-67646474D01*
X65984131Y-67430961D01*
X65853934Y-67237123D01*
X65688422Y-67072410D01*
X65493957Y-66943152D01*
X65278011Y-66854316D01*
X65048884Y-66809316D01*
X64862000Y-66964848D01*
X64608000Y-66964848D01*
X64421116Y-66809316D01*
X64191989Y-66854316D01*
X63976043Y-66943152D01*
X63781578Y-67072410D01*
X63616066Y-67237123D01*
X63485869Y-67430961D01*
X63395989Y-67646474D01*
X63391197Y-67685256D01*
X63064668Y-67685256D01*
X62943478Y-67494804D01*
X62765559Y-67308750D01*
X62554761Y-67160981D01*
X62319185Y-67057176D01*
X62067884Y-67001325D01*
X61862000Y-67151427D01*
X61608000Y-67151427D01*
X61402116Y-67001325D01*
X61150815Y-67057176D01*
X60915239Y-67160981D01*
X60704441Y-67308750D01*
X60660000Y-67355223D01*
X60660000Y-63794777D01*
X60704441Y-63841250D01*
X60915239Y-63989019D01*
X61150815Y-64092824D01*
X61402116Y-64148675D01*
X61608000Y-63998573D01*
X61608000Y-62972000D01*
X61862000Y-62972000D01*
X61862000Y-63998573D01*
X62067884Y-64148675D01*
X62319185Y-64092824D01*
X62554761Y-63989019D01*
X62765559Y-63841250D01*
X62943478Y-63655196D01*
X63064667Y-63464744D01*
X63391197Y-63464744D01*
X63395989Y-63503526D01*
X63485869Y-63719039D01*
X63616066Y-63912877D01*
X63781578Y-64077590D01*
X63976043Y-64206848D01*
X64191989Y-64295684D01*
X64421116Y-64340684D01*
X64608000Y-64185152D01*
X64608000Y-63282000D01*
X64862000Y-63282000D01*
X64862000Y-64185152D01*
X65048884Y-64340684D01*
X65278011Y-64295684D01*
X65493957Y-64206848D01*
X65688422Y-64077590D01*
X65853934Y-63912877D01*
X65984131Y-63719039D01*
X66074011Y-63503526D01*
X66078803Y-63464744D01*
X65953361Y-63282000D01*
X64862000Y-63282000D01*
X64608000Y-63282000D01*
X63516639Y-63282000D01*
X63391197Y-63464744D01*
X63064667Y-63464744D01*
X63081681Y-63438007D01*
X63174857Y-63198029D01*
X63177910Y-63174400D01*
X63054224Y-62972000D01*
X61862000Y-62972000D01*
X61608000Y-62972000D01*
X61588000Y-62972000D01*
X61588000Y-62845256D01*
X63391197Y-62845256D01*
X63516639Y-63028000D01*
X64608000Y-63028000D01*
X64608000Y-62124848D01*
X64862000Y-62124848D01*
X64862000Y-63028000D01*
X65953361Y-63028000D01*
X66078803Y-62845256D01*
X66074011Y-62806474D01*
X65984131Y-62590961D01*
X65853934Y-62397123D01*
X65688422Y-62232410D01*
X65493957Y-62103152D01*
X65278011Y-62014316D01*
X65048884Y-61969316D01*
X64862000Y-62124848D01*
X64608000Y-62124848D01*
X64421116Y-61969316D01*
X64191989Y-62014316D01*
X63976043Y-62103152D01*
X63781578Y-62232410D01*
X63616066Y-62397123D01*
X63485869Y-62590961D01*
X63395989Y-62806474D01*
X63391197Y-62845256D01*
X61588000Y-62845256D01*
X61588000Y-62718000D01*
X61608000Y-62718000D01*
X61608000Y-61691427D01*
X61862000Y-61691427D01*
X61862000Y-62718000D01*
X63054224Y-62718000D01*
X63177910Y-62515600D01*
X63174857Y-62491971D01*
X63081681Y-62251993D01*
X62943478Y-62034804D01*
X62765559Y-61848750D01*
X62554761Y-61700981D01*
X62319185Y-61597176D01*
X62067884Y-61541325D01*
X61862000Y-61691427D01*
X61608000Y-61691427D01*
X61402116Y-61541325D01*
X61150815Y-61597176D01*
X60915239Y-61700981D01*
X60704441Y-61848750D01*
X60660000Y-61895223D01*
X60660000Y-50776349D01*
X61403256Y-50776349D01*
X61607362Y-51132867D01*
X62050223Y-51363575D01*
X62529583Y-51503452D01*
X63027021Y-51547123D01*
X63523422Y-51492909D01*
X63999707Y-51342894D01*
X64392638Y-51132867D01*
X64596744Y-50776349D01*
X125403256Y-50776349D01*
X125607362Y-51132867D01*
X126050223Y-51363575D01*
X126529583Y-51503452D01*
X127027021Y-51547123D01*
X127523422Y-51492909D01*
X127999707Y-51342894D01*
X128392638Y-51132867D01*
X128596744Y-50776349D01*
X127000000Y-49179605D01*
X125403256Y-50776349D01*
X64596744Y-50776349D01*
X63000000Y-49179605D01*
X61403256Y-50776349D01*
X60660000Y-50776349D01*
X60660000Y-50005121D01*
X60867133Y-50392638D01*
X61223651Y-50596744D01*
X62820395Y-49000000D01*
X63179605Y-49000000D01*
X64776349Y-50596744D01*
X65132867Y-50392638D01*
X65363575Y-49949777D01*
X65503452Y-49470417D01*
X65513418Y-49356891D01*
X68298519Y-49356891D01*
X68395843Y-49631252D01*
X68544822Y-49881355D01*
X68739731Y-50097588D01*
X68973080Y-50271641D01*
X69235901Y-50396825D01*
X69383110Y-50441476D01*
X69613000Y-50320155D01*
X69613000Y-49127000D01*
X68419186Y-49127000D01*
X68298519Y-49356891D01*
X65513418Y-49356891D01*
X65547123Y-48972979D01*
X65511097Y-48643109D01*
X68298519Y-48643109D01*
X68419186Y-48873000D01*
X69613000Y-48873000D01*
X69613000Y-47679845D01*
X69867000Y-47679845D01*
X69867000Y-48873000D01*
X69887000Y-48873000D01*
X69887000Y-49127000D01*
X69867000Y-49127000D01*
X69867000Y-50320155D01*
X70096890Y-50441476D01*
X70244099Y-50396825D01*
X70506920Y-50271641D01*
X70740269Y-50097588D01*
X70935178Y-49881355D01*
X71004805Y-49764466D01*
X71126525Y-49946632D01*
X71333368Y-50153475D01*
X71576589Y-50315990D01*
X71846842Y-50427932D01*
X72133740Y-50485000D01*
X72426260Y-50485000D01*
X72713158Y-50427932D01*
X72983411Y-50315990D01*
X73226632Y-50153475D01*
X73433475Y-49946632D01*
X73550000Y-49772240D01*
X73666525Y-49946632D01*
X73873368Y-50153475D01*
X74116589Y-50315990D01*
X74386842Y-50427932D01*
X74673740Y-50485000D01*
X74966260Y-50485000D01*
X75253158Y-50427932D01*
X75523411Y-50315990D01*
X75766632Y-50153475D01*
X75973475Y-49946632D01*
X76090000Y-49772240D01*
X76206525Y-49946632D01*
X76413368Y-50153475D01*
X76656589Y-50315990D01*
X76926842Y-50427932D01*
X77213740Y-50485000D01*
X77506260Y-50485000D01*
X77793158Y-50427932D01*
X78063411Y-50315990D01*
X78306632Y-50153475D01*
X78513475Y-49946632D01*
X78630000Y-49772240D01*
X78746525Y-49946632D01*
X78953368Y-50153475D01*
X79196589Y-50315990D01*
X79466842Y-50427932D01*
X79753740Y-50485000D01*
X80046260Y-50485000D01*
X80333158Y-50427932D01*
X80603411Y-50315990D01*
X80846632Y-50153475D01*
X81053475Y-49946632D01*
X81170000Y-49772240D01*
X81286525Y-49946632D01*
X81493368Y-50153475D01*
X81736589Y-50315990D01*
X82006842Y-50427932D01*
X82293740Y-50485000D01*
X82586260Y-50485000D01*
X82873158Y-50427932D01*
X83143411Y-50315990D01*
X83386632Y-50153475D01*
X83593475Y-49946632D01*
X83710000Y-49772240D01*
X83826525Y-49946632D01*
X84033368Y-50153475D01*
X84276589Y-50315990D01*
X84546842Y-50427932D01*
X84833740Y-50485000D01*
X85126260Y-50485000D01*
X85413158Y-50427932D01*
X85683411Y-50315990D01*
X85926632Y-50153475D01*
X86133475Y-49946632D01*
X86250000Y-49772240D01*
X86366525Y-49946632D01*
X86573368Y-50153475D01*
X86816589Y-50315990D01*
X87086842Y-50427932D01*
X87373740Y-50485000D01*
X87666260Y-50485000D01*
X87953158Y-50427932D01*
X88223411Y-50315990D01*
X88466632Y-50153475D01*
X88673475Y-49946632D01*
X88790000Y-49772240D01*
X88906525Y-49946632D01*
X89113368Y-50153475D01*
X89356589Y-50315990D01*
X89626842Y-50427932D01*
X89913740Y-50485000D01*
X90206260Y-50485000D01*
X90493158Y-50427932D01*
X90763411Y-50315990D01*
X91006632Y-50153475D01*
X91213475Y-49946632D01*
X91330000Y-49772240D01*
X91446525Y-49946632D01*
X91653368Y-50153475D01*
X91896589Y-50315990D01*
X92166842Y-50427932D01*
X92453740Y-50485000D01*
X92746260Y-50485000D01*
X93033158Y-50427932D01*
X93303411Y-50315990D01*
X93546632Y-50153475D01*
X93753475Y-49946632D01*
X93870000Y-49772240D01*
X93986525Y-49946632D01*
X94193368Y-50153475D01*
X94436589Y-50315990D01*
X94706842Y-50427932D01*
X94993740Y-50485000D01*
X95286260Y-50485000D01*
X95573158Y-50427932D01*
X95843411Y-50315990D01*
X96086632Y-50153475D01*
X96293475Y-49946632D01*
X96410000Y-49772240D01*
X96526525Y-49946632D01*
X96733368Y-50153475D01*
X96976589Y-50315990D01*
X97246842Y-50427932D01*
X97533740Y-50485000D01*
X97826260Y-50485000D01*
X98113158Y-50427932D01*
X98383411Y-50315990D01*
X98626632Y-50153475D01*
X98833475Y-49946632D01*
X98950000Y-49772240D01*
X99066525Y-49946632D01*
X99273368Y-50153475D01*
X99516589Y-50315990D01*
X99786842Y-50427932D01*
X100073740Y-50485000D01*
X100366260Y-50485000D01*
X100653158Y-50427932D01*
X100923411Y-50315990D01*
X101166632Y-50153475D01*
X101373475Y-49946632D01*
X101490000Y-49772240D01*
X101606525Y-49946632D01*
X101813368Y-50153475D01*
X102056589Y-50315990D01*
X102326842Y-50427932D01*
X102613740Y-50485000D01*
X102906260Y-50485000D01*
X103193158Y-50427932D01*
X103463411Y-50315990D01*
X103706632Y-50153475D01*
X103913475Y-49946632D01*
X104030000Y-49772240D01*
X104146525Y-49946632D01*
X104353368Y-50153475D01*
X104596589Y-50315990D01*
X104866842Y-50427932D01*
X105153740Y-50485000D01*
X105446260Y-50485000D01*
X105733158Y-50427932D01*
X106003411Y-50315990D01*
X106246632Y-50153475D01*
X106453475Y-49946632D01*
X106570000Y-49772240D01*
X106686525Y-49946632D01*
X106893368Y-50153475D01*
X107136589Y-50315990D01*
X107406842Y-50427932D01*
X107693740Y-50485000D01*
X107986260Y-50485000D01*
X108273158Y-50427932D01*
X108543411Y-50315990D01*
X108786632Y-50153475D01*
X108993475Y-49946632D01*
X109110000Y-49772240D01*
X109226525Y-49946632D01*
X109433368Y-50153475D01*
X109676589Y-50315990D01*
X109946842Y-50427932D01*
X110233740Y-50485000D01*
X110526260Y-50485000D01*
X110813158Y-50427932D01*
X111083411Y-50315990D01*
X111326632Y-50153475D01*
X111533475Y-49946632D01*
X111650000Y-49772240D01*
X111766525Y-49946632D01*
X111973368Y-50153475D01*
X112216589Y-50315990D01*
X112486842Y-50427932D01*
X112773740Y-50485000D01*
X113066260Y-50485000D01*
X113353158Y-50427932D01*
X113623411Y-50315990D01*
X113866632Y-50153475D01*
X114073475Y-49946632D01*
X114190000Y-49772240D01*
X114306525Y-49946632D01*
X114513368Y-50153475D01*
X114756589Y-50315990D01*
X115026842Y-50427932D01*
X115313740Y-50485000D01*
X115606260Y-50485000D01*
X115893158Y-50427932D01*
X116163411Y-50315990D01*
X116406632Y-50153475D01*
X116538487Y-50021620D01*
X116560498Y-50094180D01*
X116619463Y-50204494D01*
X116698815Y-50301185D01*
X116795506Y-50380537D01*
X116905820Y-50439502D01*
X117025518Y-50475812D01*
X117150000Y-50488072D01*
X117714250Y-50485000D01*
X117873000Y-50326250D01*
X117873000Y-49127000D01*
X118127000Y-49127000D01*
X118127000Y-50326250D01*
X118285750Y-50485000D01*
X118850000Y-50488072D01*
X118974482Y-50475812D01*
X119094180Y-50439502D01*
X119204494Y-50380537D01*
X119301185Y-50301185D01*
X119380537Y-50204494D01*
X119439502Y-50094180D01*
X119475812Y-49974482D01*
X119488072Y-49850000D01*
X119485000Y-49285750D01*
X119326250Y-49127000D01*
X118127000Y-49127000D01*
X117873000Y-49127000D01*
X117853000Y-49127000D01*
X117853000Y-49027021D01*
X124452877Y-49027021D01*
X124507091Y-49523422D01*
X124657106Y-49999707D01*
X124867133Y-50392638D01*
X125223651Y-50596744D01*
X126820395Y-49000000D01*
X125223651Y-47403256D01*
X124867133Y-47607362D01*
X124636425Y-48050223D01*
X124496548Y-48529583D01*
X124452877Y-49027021D01*
X117853000Y-49027021D01*
X117853000Y-48873000D01*
X117873000Y-48873000D01*
X117873000Y-47673750D01*
X118127000Y-47673750D01*
X118127000Y-48873000D01*
X119326250Y-48873000D01*
X119485000Y-48714250D01*
X119488072Y-48150000D01*
X119475812Y-48025518D01*
X119439502Y-47905820D01*
X119380537Y-47795506D01*
X119301185Y-47698815D01*
X119204494Y-47619463D01*
X119094180Y-47560498D01*
X118974482Y-47524188D01*
X118850000Y-47511928D01*
X118285750Y-47515000D01*
X118127000Y-47673750D01*
X117873000Y-47673750D01*
X117714250Y-47515000D01*
X117150000Y-47511928D01*
X117025518Y-47524188D01*
X116905820Y-47560498D01*
X116795506Y-47619463D01*
X116698815Y-47698815D01*
X116619463Y-47795506D01*
X116560498Y-47905820D01*
X116538487Y-47978380D01*
X116406632Y-47846525D01*
X116163411Y-47684010D01*
X115893158Y-47572068D01*
X115606260Y-47515000D01*
X115313740Y-47515000D01*
X115026842Y-47572068D01*
X114756589Y-47684010D01*
X114513368Y-47846525D01*
X114306525Y-48053368D01*
X114190000Y-48227760D01*
X114073475Y-48053368D01*
X113866632Y-47846525D01*
X113623411Y-47684010D01*
X113353158Y-47572068D01*
X113066260Y-47515000D01*
X112773740Y-47515000D01*
X112486842Y-47572068D01*
X112216589Y-47684010D01*
X111973368Y-47846525D01*
X111766525Y-48053368D01*
X111650000Y-48227760D01*
X111533475Y-48053368D01*
X111326632Y-47846525D01*
X111083411Y-47684010D01*
X110813158Y-47572068D01*
X110526260Y-47515000D01*
X110233740Y-47515000D01*
X109946842Y-47572068D01*
X109676589Y-47684010D01*
X109433368Y-47846525D01*
X109226525Y-48053368D01*
X109110000Y-48227760D01*
X108993475Y-48053368D01*
X108786632Y-47846525D01*
X108543411Y-47684010D01*
X108273158Y-47572068D01*
X107986260Y-47515000D01*
X107693740Y-47515000D01*
X107406842Y-47572068D01*
X107136589Y-47684010D01*
X106893368Y-47846525D01*
X106686525Y-48053368D01*
X106570000Y-48227760D01*
X106453475Y-48053368D01*
X106246632Y-47846525D01*
X106003411Y-47684010D01*
X105733158Y-47572068D01*
X105446260Y-47515000D01*
X105153740Y-47515000D01*
X104866842Y-47572068D01*
X104596589Y-47684010D01*
X104353368Y-47846525D01*
X104146525Y-48053368D01*
X104030000Y-48227760D01*
X103913475Y-48053368D01*
X103706632Y-47846525D01*
X103463411Y-47684010D01*
X103193158Y-47572068D01*
X102906260Y-47515000D01*
X102613740Y-47515000D01*
X102326842Y-47572068D01*
X102056589Y-47684010D01*
X101813368Y-47846525D01*
X101606525Y-48053368D01*
X101490000Y-48227760D01*
X101373475Y-48053368D01*
X101166632Y-47846525D01*
X100923411Y-47684010D01*
X100653158Y-47572068D01*
X100366260Y-47515000D01*
X100073740Y-47515000D01*
X99786842Y-47572068D01*
X99516589Y-47684010D01*
X99273368Y-47846525D01*
X99066525Y-48053368D01*
X98950000Y-48227760D01*
X98833475Y-48053368D01*
X98626632Y-47846525D01*
X98383411Y-47684010D01*
X98113158Y-47572068D01*
X97826260Y-47515000D01*
X97533740Y-47515000D01*
X97246842Y-47572068D01*
X96976589Y-47684010D01*
X96733368Y-47846525D01*
X96526525Y-48053368D01*
X96410000Y-48227760D01*
X96293475Y-48053368D01*
X96086632Y-47846525D01*
X95843411Y-47684010D01*
X95573158Y-47572068D01*
X95286260Y-47515000D01*
X94993740Y-47515000D01*
X94706842Y-47572068D01*
X94436589Y-47684010D01*
X94193368Y-47846525D01*
X93986525Y-48053368D01*
X93870000Y-48227760D01*
X93753475Y-48053368D01*
X93546632Y-47846525D01*
X93303411Y-47684010D01*
X93033158Y-47572068D01*
X92746260Y-47515000D01*
X92453740Y-47515000D01*
X92166842Y-47572068D01*
X91896589Y-47684010D01*
X91653368Y-47846525D01*
X91446525Y-48053368D01*
X91330000Y-48227760D01*
X91213475Y-48053368D01*
X91006632Y-47846525D01*
X90763411Y-47684010D01*
X90493158Y-47572068D01*
X90206260Y-47515000D01*
X89913740Y-47515000D01*
X89626842Y-47572068D01*
X89356589Y-47684010D01*
X89113368Y-47846525D01*
X88906525Y-48053368D01*
X88790000Y-48227760D01*
X88673475Y-48053368D01*
X88466632Y-47846525D01*
X88223411Y-47684010D01*
X87953158Y-47572068D01*
X87666260Y-47515000D01*
X87373740Y-47515000D01*
X87086842Y-47572068D01*
X86816589Y-47684010D01*
X86573368Y-47846525D01*
X86366525Y-48053368D01*
X86250000Y-48227760D01*
X86133475Y-48053368D01*
X85926632Y-47846525D01*
X85683411Y-47684010D01*
X85413158Y-47572068D01*
X85126260Y-47515000D01*
X84833740Y-47515000D01*
X84546842Y-47572068D01*
X84276589Y-47684010D01*
X84033368Y-47846525D01*
X83826525Y-48053368D01*
X83710000Y-48227760D01*
X83593475Y-48053368D01*
X83386632Y-47846525D01*
X83143411Y-47684010D01*
X82873158Y-47572068D01*
X82586260Y-47515000D01*
X82293740Y-47515000D01*
X82006842Y-47572068D01*
X81736589Y-47684010D01*
X81493368Y-47846525D01*
X81286525Y-48053368D01*
X81170000Y-48227760D01*
X81053475Y-48053368D01*
X80846632Y-47846525D01*
X80603411Y-47684010D01*
X80333158Y-47572068D01*
X80046260Y-47515000D01*
X79753740Y-47515000D01*
X79466842Y-47572068D01*
X79196589Y-47684010D01*
X78953368Y-47846525D01*
X78746525Y-48053368D01*
X78630000Y-48227760D01*
X78513475Y-48053368D01*
X78306632Y-47846525D01*
X78063411Y-47684010D01*
X77793158Y-47572068D01*
X77506260Y-47515000D01*
X77213740Y-47515000D01*
X76926842Y-47572068D01*
X76656589Y-47684010D01*
X76413368Y-47846525D01*
X76206525Y-48053368D01*
X76090000Y-48227760D01*
X75973475Y-48053368D01*
X75766632Y-47846525D01*
X75523411Y-47684010D01*
X75253158Y-47572068D01*
X74966260Y-47515000D01*
X74673740Y-47515000D01*
X74386842Y-47572068D01*
X74116589Y-47684010D01*
X73873368Y-47846525D01*
X73666525Y-48053368D01*
X73550000Y-48227760D01*
X73433475Y-48053368D01*
X73226632Y-47846525D01*
X72983411Y-47684010D01*
X72713158Y-47572068D01*
X72426260Y-47515000D01*
X72133740Y-47515000D01*
X71846842Y-47572068D01*
X71576589Y-47684010D01*
X71333368Y-47846525D01*
X71126525Y-48053368D01*
X71004805Y-48235534D01*
X70935178Y-48118645D01*
X70740269Y-47902412D01*
X70506920Y-47728359D01*
X70244099Y-47603175D01*
X70096890Y-47558524D01*
X69867000Y-47679845D01*
X69613000Y-47679845D01*
X69383110Y-47558524D01*
X69235901Y-47603175D01*
X68973080Y-47728359D01*
X68739731Y-47902412D01*
X68544822Y-48118645D01*
X68395843Y-48368748D01*
X68298519Y-48643109D01*
X65511097Y-48643109D01*
X65492909Y-48476578D01*
X65342894Y-48000293D01*
X65132867Y-47607362D01*
X64776349Y-47403256D01*
X63179605Y-49000000D01*
X62820395Y-49000000D01*
X62806253Y-48985858D01*
X62985858Y-48806253D01*
X63000000Y-48820395D01*
X64596744Y-47223651D01*
X64392638Y-46867133D01*
X63995031Y-46660000D01*
X125994879Y-46660000D01*
X125607362Y-46867133D01*
%TD*%
M02*
